<svg width="660" height="532" viewBox="0 0 660 532" fill="none" xmlns="http://www.w3.org/2000/svg">
<path d="M421.928 8.08694C412.688 9.04454 403.825 11.0661 397.697 13.4069C389.965 16.3861 384.402 16.5989 377.142 14.3645C359.982 9.04454 330.094 7.44854 315.857 11.0661C306.051 13.6197 279.934 15.8541 272.957 14.8965C253.251 11.9173 226.474 14.7901 208.182 21.7061C201.111 24.3661 194.511 26.6005 193.568 26.6005C185.837 26.6005 158.4 39.0493 150.102 46.2845C146.142 49.7957 146.142 49.7957 140.014 45.2205C122.194 32.0269 95.0396 31.8141 77.5967 44.5821C65.7167 53.4133 56.3825 68.2029 53.7425 82.6733C52.3282 90.2277 52.9882 108.422 54.8739 114.274C56.1939 118.424 56.1939 118.424 52.2339 122.573C46.671 128.425 42.8053 135.554 39.5996 145.981C38.1853 150.876 35.8282 157.898 34.4139 161.622C32.9996 165.346 31.1139 172.581 30.171 177.582C29.2282 182.583 27.1539 190.244 25.551 194.606C18.5739 213.226 13.7653 235.144 12.6339 253.232C12.351 258.765 11.2196 267.171 10.2768 271.852C7.82533 283.663 8.0139 293.771 11.031 310.369C13.8596 326.116 15.7453 328.883 17.7253 320.052C20.5539 307.603 33.471 282.812 42.4282 272.916C47.991 266.745 48.0853 266 44.2196 260.468C37.431 250.892 40.2596 237.166 50.3482 230.782C60.1539 224.504 74.7682 233.868 74.7682 246.529C74.7682 250.892 74.7682 250.892 83.4425 250.785C92.0225 250.679 92.0225 250.679 93.6253 240.677C96.5482 222.802 105.505 195.776 108.617 195.776C111.162 195.776 123.608 185.775 129.265 179.072C139.825 166.729 148.594 149.918 149.631 140.449C150.197 134.916 152.742 131.937 166.508 120.871C172.354 116.189 172.26 116.189 173.014 120.445C174.9 130.021 188.194 138.64 201.3 138.746C213.462 138.746 220.157 133.639 230.905 115.764C237.977 104.06 236.374 104.805 255.891 104.805C272.768 104.805 273.051 104.805 281.254 101.4C295.962 95.3349 305.297 86.9293 312.18 73.5229C315.385 67.1389 315.385 67.1389 330.754 67.0325C351.968 67.0325 370.825 69.3733 394.868 75.1189C401.28 76.7149 401.657 76.9277 401.657 79.6941C401.657 91.0789 410.897 109.38 422.305 120.552C439.56 137.469 470.485 140.129 486.797 126.085C490.945 122.467 490.945 122.467 499.808 130.553C519.608 148.535 534.977 168.857 546.385 191.946C549.968 199.075 549.968 199.288 547.705 198.649C540.634 196.415 531.677 195.67 525.548 196.734C522.06 197.372 519.137 197.692 519.042 197.585C519.042 197.479 518.194 193.755 517.251 189.392C513.951 174.177 501.128 145.662 495.282 140.449C489.531 135.341 483.685 139.278 481.8 149.599C479.254 163.112 483.497 197.585 490.097 217.056C490.851 219.291 490.38 220.674 486.985 226.1C469.448 253.977 462.188 299.836 468.882 340.906C468.977 341.438 467.657 342.289 465.865 342.821C464.168 343.353 460.868 345.588 458.511 347.716C447.291 358.356 448.14 380.912 459.642 380.912C460.68 380.912 461.057 382.189 461.057 385.594C461.057 397.617 476.802 403.469 485.288 394.532C487.268 392.404 487.268 392.404 493.397 399.426C500.091 407.193 500.28 406.874 481.328 421.025C467.468 431.346 461.717 434.219 459.171 431.984C457.851 430.814 453.231 428.154 448.8 425.92C440.785 421.876 440.785 421.876 427.114 421.983C409.011 422.089 398.262 426.664 389.588 437.836C386.854 441.241 386.571 441.348 378.368 441.667C365.451 442.305 357.72 449.86 356.588 462.84C356.117 468.586 354.514 469.224 339.805 469.224C333.017 469.224 333.017 469.224 332.357 465.288C327.171 434.006 285.591 428.792 274.277 457.946C272.108 463.585 271.92 463.692 268.714 463.16C262.491 462.096 240.522 455.392 231.282 451.775C216.008 445.71 214.5 445.072 214.688 443.901C216.102 436.666 216.102 434.112 214.594 434.112C213.745 434.112 213.085 434.964 213.085 436.028C213.085 454.648 188.76 471.459 159.531 473.161C148.782 473.8 148.782 473.8 150.291 469.969C153.308 461.776 157.268 443.688 158.305 434.006C160.285 413.577 160.285 412.832 158.777 412.088C156.702 411.236 155.571 413.577 155.571 418.578C155.571 431.24 148.971 457.201 140.768 476.992C136.808 486.461 136.242 485.078 147.368 492.845C159.72 501.57 170.091 504.443 187.157 504.23C197.622 504.017 201.205 504.336 204.6 505.826C218.46 511.678 257.965 520.828 284.271 524.233C305.768 527 360.077 527 380.914 524.233C411.934 520.19 439.654 513.38 465.96 503.698C478.877 498.91 478.877 498.91 484.345 503.911C497.545 516.04 511.405 520.722 535.071 520.722C566.374 520.722 588.908 508.699 598.337 486.78C602.014 478.162 602.391 461.244 598.997 452.945C596.922 447.944 596.922 447.944 601.731 445.178C608.52 441.241 617.005 431.772 620.117 424.643C623.7 416.45 623.982 399.32 620.682 391.233C618.608 386.126 618.608 386.126 624.737 375.592C653.211 326.542 660.094 267.277 643.971 208.544C642.462 203.012 640.765 196.521 640.294 194.18C639.068 188.967 621.72 157.26 613.422 145.236C611.348 142.257 610.217 139.065 609.462 134.064C607.482 120.977 603.805 113.423 587.965 89.4829C577.311 73.5229 559.491 64.3725 536.297 63.0957C524.322 62.4573 524.322 62.4573 520.834 55.7541C514.422 43.3053 504.051 32.5589 490.757 24.6853C482.082 19.4717 465.394 11.5981 459.925 10.0021C454.174 8.40614 430.225 7.12934 421.928 8.08694ZM497.828 169.176C505.371 183.647 508.86 198.649 507.351 209.715C505.56 222.164 503.202 220.036 501.505 204.182C500.94 198.756 499.054 187.69 497.262 179.497C493.02 159.92 493.02 159.813 497.828 169.176ZM589.097 173.007C589.285 174.496 587.965 177.156 585.514 180.348C583.44 183.008 579.197 189.073 575.991 193.755C572.88 198.33 570.051 202.16 569.674 202.16C569.297 202.16 567.128 204.82 564.771 208.012C562.508 211.098 560.434 213.652 560.34 213.439C559.491 212.481 566.562 194.606 570.428 188.009C578.537 174.071 588.248 166.304 589.097 173.007ZM523.097 241.741C524.7 243.55 524.511 245.784 522.625 248.125C520.362 250.892 516.874 250.572 515.554 247.38C513.668 242.592 519.797 238.017 523.097 241.741ZM547.328 244.72C549.402 247.274 547.234 252.168 544.028 252.168C541.105 252.168 539.785 248.338 541.671 245.146C543.462 242.06 545.065 241.954 547.328 244.72ZM534.411 265.256C534.788 267.384 532.054 268.873 530.64 267.277C529.225 265.681 530.545 262.596 532.431 263.021C533.374 263.234 534.222 264.192 534.411 265.256ZM520.08 283.982C524.794 286.429 529.414 284.195 531.111 278.768C531.394 277.598 531.865 277.917 532.525 279.939C534.222 284.727 541.86 286.642 545.254 283.237C547.422 281.216 546.762 283.131 544.217 286.429C542.331 288.983 536.674 288.876 533.657 286.216C530.828 283.663 529.508 283.556 526.68 285.791C522.342 288.983 514.611 282.492 514.894 275.896C514.894 274.832 515.554 275.896 516.308 278.343C517.157 281.109 518.571 283.131 520.08 283.982ZM536.957 326.648C538.465 326.648 539.314 328.989 539.314 333.352C539.314 345.694 552.042 350.801 563.262 343.14C566.28 341.119 568.26 340.161 567.505 341.119C559.68 351.759 543.84 351.227 539.031 340.161C536.957 335.373 535.542 335.16 533.468 339.416C528.565 349.205 512.82 348.992 505.465 338.991C504.711 338.033 506.691 338.991 509.708 341.012C523.474 350.376 534.6 342.821 533.28 325.052C532.808 317.604 532.808 317.604 534.222 322.073C535.071 324.627 536.297 326.648 536.957 326.648Z" fill="#E489E4"/>
<path d="M323.4 143.64C321.325 145.981 321.042 148.109 322.457 151.088C324.437 155.238 331.885 154.493 331.885 150.024C331.885 147.471 330.188 147.258 328.68 149.492C327.737 150.982 327.36 150.982 325.757 149.599C323.965 148.109 323.965 147.896 325.474 146.194C326.794 144.704 327.454 144.492 328.302 145.556C329.905 147.364 331.885 147.152 331.885 145.236C331.885 143.747 328.397 141.512 326.134 141.512C325.662 141.512 324.437 142.47 323.4 143.64Z" fill="#E489E4"/>
<path d="M255.137 148.003C249.102 156.089 253.628 167.048 263.057 167.048C270.694 167.048 274.937 160.132 272.485 151.727C270.222 144.066 259.757 141.725 255.137 148.003ZM267.865 151.727C269.94 154.174 269.94 154.6 268.714 157.153C265.791 163.005 259.757 163.112 257.965 157.26C255.797 150.344 263.245 146.194 267.865 151.727Z" fill="#E489E4"/>
<path d="M388.928 159.175C386.383 162.26 385.817 165.984 387.797 165.984C388.363 165.984 389.683 164.495 390.531 162.792C392.605 158.643 396.943 158.43 400.337 162.26C403.165 165.452 404.485 165.665 404.485 162.899C404.485 156.621 393.171 154.068 388.928 159.175Z" fill="#E489E4"/>
<path d="M386.571 169.283C386.571 172.794 392.04 177.688 396 177.688C397.98 177.688 396.848 174.496 394.585 173.858C393.265 173.539 391.38 172.049 390.437 170.666C388.551 168.006 386.571 167.261 386.571 169.283Z" fill="#E489E4"/>
<path d="M401.185 170.134C400.903 171.304 400.054 172.475 399.3 172.794C397.603 173.539 397.414 176.624 399.111 176.624C400.714 176.624 404.486 171.836 404.486 169.815C404.486 167.474 401.94 167.687 401.185 170.134Z" fill="#E489E4"/>
<path d="M428.811 202.905C427.868 203.118 427.114 204.076 427.114 204.927C427.114 205.778 426.548 206.416 425.794 206.416C424.568 206.416 423.342 208.544 423.342 210.779C423.342 212.907 426.171 211.524 426.737 209.183C427.868 203.756 436.354 204.927 437.957 210.672C438.711 213.226 436.542 219.184 434.94 219.184C434.28 219.184 433.714 219.929 433.714 220.78C433.714 221.632 434.374 222.376 435.128 222.376C435.882 222.376 436.542 221.738 436.542 220.887C436.542 220.142 437.391 219.184 438.334 218.865C439.56 218.546 440.408 217.056 440.785 214.609C442.105 206.736 435.977 200.777 428.811 202.905Z" fill="#E489E4"/>
<path d="M423.342 215.46C423.342 217.908 427.68 222.376 429.942 222.376C430.98 222.376 431.828 221.632 431.828 220.78C431.828 219.929 431.262 219.184 430.508 219.184C429.754 219.184 428.34 218.014 427.302 216.524C425.228 213.545 423.342 213.013 423.342 215.46Z" fill="#E489E4"/>
<path d="M201.771 221.844C201.771 222.696 202.337 223.44 203.091 223.44C204.788 223.44 205.731 227.484 204.505 230.037C202.808 233.548 198 230.995 198 226.526C198 225.462 197.34 224.504 196.585 224.504C194.605 224.504 194.794 228.973 196.868 231.74C201.205 237.272 208.371 235.038 208.371 228.122C208.371 225.249 207.9 224.185 206.485 223.76C205.448 223.44 204.6 222.483 204.6 221.738C204.6 220.887 203.94 220.248 203.185 220.248C202.431 220.248 201.771 220.993 201.771 221.844Z" fill="#E489E4"/>
<path d="M120.497 235.889C116.725 236.953 118.894 239.081 123.797 238.975C126.437 238.975 129.643 239.4 130.868 239.826C132.377 240.464 132.943 240.358 132.943 239.081C132.943 236.315 125.588 234.4 120.497 235.889Z" fill="#E489E4"/>
<path d="M113.803 240.252C112.86 241.316 112.2 242.699 112.2 243.337C112.2 243.976 111.823 244.72 111.351 244.933C109.654 245.572 108.994 251.104 110.597 251.104C111.351 251.104 112.294 249.828 112.577 248.232C112.954 246.742 114.274 244.508 115.594 243.444C118.045 241.209 118.611 238.336 116.631 238.336C115.877 238.336 114.651 239.188 113.803 240.252Z" fill="#E489E4"/>
<path d="M388.457 239.932C388.457 240.784 388.08 241.528 387.514 241.528C387.043 241.528 386.571 242.912 386.571 244.72C386.571 246.848 387.043 247.912 387.985 247.912C388.928 247.912 389.4 246.848 389.4 244.72C389.4 242.912 389.871 241.528 390.343 241.528C390.908 241.528 391.285 240.784 391.285 239.932C391.285 239.081 390.625 238.336 389.871 238.336C389.117 238.336 388.457 239.081 388.457 239.932Z" fill="#E489E4"/>
<path d="M392.228 239.826C392.228 240.677 392.7 241.741 393.171 242.06C394.962 243.337 394.302 247.912 392.228 247.912C391.191 247.912 390.342 248.657 390.342 249.508C390.342 250.36 391.191 251.104 392.228 251.104C393.265 251.104 394.114 250.36 394.114 249.508C394.114 248.657 394.774 247.912 395.528 247.912C397.225 247.912 397.414 243.55 396 240.358C394.868 238.017 392.228 237.592 392.228 239.826Z" fill="#E489E4"/>
<path d="M52.7996 240.145C45.8224 242.912 49.2167 255.36 57.0424 255.36C61.5681 255.36 64.1139 252.275 64.1139 246.955C64.1139 240.464 59.211 237.485 52.7996 240.145Z" fill="#E489E4"/>
<path d="M134.828 244.188C134.828 245.04 135.488 245.784 136.242 245.784C136.997 245.784 137.657 245.04 137.657 244.188C137.657 243.337 136.997 242.592 136.242 242.592C135.488 242.592 134.828 243.337 134.828 244.188Z" fill="#E489E4"/>
<path d="M137.091 249.189C137.374 250.572 137.657 252.488 137.657 253.445C137.657 254.509 138.317 255.36 139.071 255.36C139.826 255.36 140.486 254.509 140.486 253.445C140.486 249.828 139.26 246.848 137.94 246.848C136.903 246.848 136.62 247.487 137.091 249.189Z" fill="#E489E4"/>
<path d="M93.3425 250.466C93.3425 251.317 94.7568 252.275 96.6425 252.594C98.5282 253.02 101.922 254.296 104.28 255.467C109.371 257.808 111.257 258.02 111.257 255.999C111.257 255.148 108.24 253.445 103.714 251.743C95.2282 248.551 93.3425 248.338 93.3425 250.466Z" fill="#E489E4"/>
<path d="M121.251 252.381C119.46 255.254 119.271 261.851 120.874 263.66C122.948 266 129.831 265.256 131.434 262.596C135.017 256.85 132.188 250.04 126.342 250.04C123.608 250.04 122.288 250.679 121.251 252.381Z" fill="#E489E4"/>
<path d="M442.766 261C439.277 264.936 439.277 272.384 442.766 275.47C446.443 278.768 451.911 278.449 454.363 274.938C456.72 271.64 456.908 268.128 454.928 268.128C454.174 268.128 453.514 268.767 453.514 269.512C453.514 273.874 447.951 275.683 445.028 272.384C441.823 268.767 443.991 261.744 448.328 261.744C449.177 261.744 450.874 262.915 452.194 264.404C454.834 267.384 456.343 267.809 456.343 265.575C456.343 259.616 446.82 256.424 442.766 261Z" fill="#E489E4"/>
<path d="M137.657 262.17C137.657 266.213 135.583 271.533 133.131 273.98C131.528 275.47 130.963 276.96 131.34 278.024C132.377 281.003 134.357 280.045 135.771 276.108C136.525 274.087 137.374 272.384 137.751 272.384C138.694 272.384 140.485 265.362 140.485 261.957C140.485 260.574 139.92 259.616 139.071 259.616C138.223 259.616 137.657 260.574 137.657 262.17Z" fill="#E489E4"/>
<path d="M134.828 282.492C134.828 283.45 135.488 284.408 136.242 284.727C136.997 285.152 137.657 286.004 137.657 286.748C137.657 287.493 137.94 288.344 138.411 288.557C138.788 288.664 140.108 291.43 141.334 294.409C143.314 299.304 146.142 301.964 146.142 298.984C146.142 297.282 142.088 288.344 141.24 288.344C140.862 288.344 140.485 287.6 140.485 286.748C140.485 285.897 140.108 285.152 139.637 285.152C139.165 285.152 138.6 284.195 138.317 283.024C137.751 280.577 134.828 280.152 134.828 282.492Z" fill="#E489E4"/>
<path d="M69.9598 292.6C66.4712 294.303 67.6969 297.176 72.6941 298.984C77.0312 300.687 77.0312 300.687 74.7684 302.496C71.5627 305.262 71.8455 309.624 75.2398 309.624C82.2169 309.624 93.6255 302.602 93.1541 298.559C92.4941 293.664 76.4655 289.515 69.9598 292.6Z" fill="#E489E4"/>
<path d="M115.688 298.772C112.011 303.347 114.84 311.752 120.025 311.752C124.551 311.752 128.417 301.751 125.211 298.133C123.42 296.112 117.48 296.537 115.688 298.772Z" fill="#E489E4"/>
<path d="M147.085 305.688C147.085 306.432 149.348 308.348 152.082 309.944C154.722 311.54 157.739 313.348 158.588 314.093C160.474 315.583 161.699 314.732 160.945 312.391C160.379 310.795 150.008 304.304 148.028 304.304C147.557 304.304 147.085 304.943 147.085 305.688Z" fill="#E489E4"/>
<path d="M165.188 320.903C165.377 322.073 166.225 323.031 167.262 323.244C168.488 323.563 168.865 323.137 168.582 321.754C168.394 320.584 167.545 319.626 166.508 319.413C165.282 319.094 164.905 319.52 165.188 320.903Z" fill="#E489E4"/>
<path d="M147.085 321.541C138.977 326.329 141.428 339.736 150.385 339.736C156.608 339.736 158.871 336.863 158.022 329.415C157.268 321.648 152.554 318.349 147.085 321.541Z" fill="#E489E4"/>
<path d="M168.771 326.116C168.771 326.968 169.242 327.712 169.714 327.712C170.28 327.712 170.657 328.457 170.657 329.308C170.657 330.16 171.317 330.904 172.071 330.904C172.825 330.904 173.485 330.16 173.485 329.308C173.485 328.457 173.108 327.712 172.542 327.712C172.071 327.712 171.6 326.968 171.6 326.116C171.6 325.265 170.94 324.52 170.185 324.52C169.431 324.52 168.771 325.265 168.771 326.116Z" fill="#E489E4"/>
<path d="M173.485 335.692C173.485 336.544 174.145 337.288 174.9 337.288C175.654 337.288 176.314 336.544 176.314 335.692C176.314 334.841 175.654 334.096 174.9 334.096C174.145 334.096 173.485 334.841 173.485 335.692Z" fill="#E489E4"/>
<path d="M174.428 341.544C174.428 343.672 174.9 344.736 175.842 344.736C176.785 344.736 177.257 343.672 177.257 341.544C177.257 339.416 176.785 338.352 175.842 338.352C174.9 338.352 174.428 339.416 174.428 341.544Z" fill="#E489E4"/>
<path d="M142.088 345.481C141.711 345.8 141.428 347.822 141.428 349.737C141.428 355.696 129.925 367.08 123.797 367.08C120.685 367.08 115.971 362.399 114.368 357.717C111.351 348.673 106.731 354.312 109.277 363.995C111.351 371.975 118.894 376.656 129.36 376.656C135.394 376.656 139.354 373.784 143.408 366.336C145.765 362.08 147.085 363.037 147.085 368.996C147.085 373.571 150.48 380.912 152.554 380.912C153.402 380.912 155.194 379.104 156.514 376.976C161.228 369.208 158.588 355.589 151.705 351.546C150.102 350.695 148.5 348.78 148.028 347.396C147.18 344.843 143.597 343.672 142.088 345.481Z" fill="#E489E4"/>
<path d="M174.428 360.909C174.428 364.952 169.242 375.805 165.094 380.593C160.945 385.381 159.343 393.68 162.643 393.68C163.585 393.68 164.057 392.51 164.057 389.956C164.057 386.977 164.811 385.381 167.734 382.189C174.145 375.486 179.897 358.568 175.842 358.568C174.994 358.568 174.428 359.526 174.428 360.909Z" fill="#E489E4"/>
<path d="M51.8568 375.912C51.8568 376.656 53.554 379.848 55.7225 383.04C71.6568 406.98 78.1625 435.283 74.4854 464.33C73.2597 473.48 71.4683 477.098 65.434 482.312C56.9483 489.653 53.554 489.76 44.4083 483.056C35.2625 476.353 33.4711 477.524 39.1283 486.248C46.8597 498.165 61.0025 498.804 72.4111 487.844C82.9711 477.524 84.4797 439.539 75.334 411.449C69.4883 393.468 51.8568 366.761 51.8568 375.912Z" fill="#E489E4"/>
<path d="M168.771 393.148C168.771 394 169.62 394.744 170.657 394.744C171.694 394.744 172.542 394 172.542 393.148C172.542 392.297 171.694 391.552 170.657 391.552C169.62 391.552 168.771 392.297 168.771 393.148Z" fill="#E489E4"/>
<path d="M173.485 394.212C173.485 395.064 174.334 395.808 175.371 395.808C176.408 395.808 177.257 395.064 177.257 394.212C177.257 393.361 176.408 392.616 175.371 392.616C174.334 392.616 173.485 393.361 173.485 394.212Z" fill="#E489E4"/>
<path d="M178.2 395.17C178.2 396.021 179.331 396.979 180.84 397.298C184.517 398.362 198.188 405.597 199.885 407.512C200.734 408.364 202.902 410.598 204.694 412.407C206.58 414.216 209.125 418.152 210.351 421.132C212.52 426.345 214.971 428.473 214.971 425.068C214.971 422.728 211.294 414.96 210.257 414.96C209.691 414.96 209.314 414.322 209.314 413.471C209.314 411.662 201.96 404.32 200.262 404.32C199.602 404.32 198.942 403.895 198.754 403.363C198.094 401.448 182.348 393.787 178.954 393.68C178.482 393.68 178.2 394.319 178.2 395.17Z" fill="#E489E4"/>
<path d="M195.831 413.577C195.454 413.896 195.171 415.812 195.171 417.833C195.171 421.344 195.171 421.344 193.285 419.216C191.871 417.62 190.174 417.088 186.685 417.088C180.368 417.088 178.2 419.429 178.2 426.452C178.2 432.729 180.085 435.07 185.648 435.921C190.74 436.666 195.171 432.091 195.171 426.132C195.171 422.834 195.36 422.302 196.491 423.366C201.017 427.622 207.239 421.664 204.788 415.492C203.751 412.832 197.622 411.556 195.831 413.577Z" fill="#E489E4"/>
<path d="M213.085 429.856C213.085 431.027 213.745 431.984 214.499 431.984C215.254 431.984 215.914 431.027 215.914 429.856C215.914 428.686 215.254 427.728 214.499 427.728C213.745 427.728 213.085 428.686 213.085 429.856Z" fill="#E489E4"/>
<path d="M201.488 429.431C200.263 430.814 200.828 436.985 202.148 438.368C205.825 441.667 211.2 435.708 208.748 431.133C207.711 429.218 202.714 428.154 201.488 429.431Z" fill="#E489E4"/>
<path d="M192.059 441.348C188.948 445.178 190.739 451.136 195.077 451.136C198.659 451.136 200.074 449.008 199.697 444.008C199.319 439.113 194.982 437.624 192.059 441.348Z" fill="#E489E4"/>
<path d="M0 266C0 532 0 532 330 532C660 532 660 532 660 266C660 -6.10352e-05 660 -6.10352e-05 330 -6.10352e-05C0 -6.10352e-05 0 -6.10352e-05 0 266ZM458.983 11.0655C464.451 12.6615 481.046 20.5351 489.814 25.7487C503.109 33.6223 513.48 44.3687 519.891 56.8175C523.38 63.5207 523.38 63.5207 535.354 64.1591C558.549 65.4359 576.369 74.5863 587.023 90.5463C602.863 114.486 606.54 122.041 608.52 135.128C609.274 140.129 610.406 143.321 612.48 146.3C620.777 158.323 638.126 190.03 639.351 195.244C639.823 197.585 641.52 204.075 643.029 209.608C659.057 268.234 652.08 326.222 623.04 375.911C616.911 386.338 616.911 386.338 619.363 391.871C623.04 400.064 622.946 415.066 619.174 423.578C615.969 431.026 607.389 440.496 600.223 444.433C597.3 446.029 595.037 447.625 595.226 447.944C601.26 459.648 602.109 474.65 597.394 485.716C588.06 507.315 565.431 519.658 535.071 519.658C512.254 519.658 496.32 514.018 484.157 501.889C479.443 497.207 479.443 497.207 467.186 501.889C441.069 511.784 411.086 519.019 379.971 523.169C359.134 525.935 306.617 525.829 285.214 523.169C259.003 519.764 219.78 510.72 205.543 504.762C202.337 503.378 197.623 502.953 185.743 502.846C166.509 502.634 159.343 500.186 144.54 489.121C138.789 484.758 138.789 484.758 141.146 479.545C148.5 463.053 156.514 432.09 156.514 419.961C156.514 415.705 157.363 412.619 158.306 413.258C160.569 414.854 156.231 445.39 151.329 462.095C149.537 468.266 148.029 473.693 148.029 474.118C148.029 474.544 153.214 474.544 159.626 474.225C177.446 473.267 190.929 468.586 201.489 459.542C207.617 454.328 214.217 444.539 213.369 441.986C212.897 440.709 213.086 440.39 213.934 441.028C214.877 441.666 215.066 441.028 214.5 438.368C214.029 435.921 214.123 435.176 214.877 435.602C215.537 436.134 215.914 435.176 215.914 433.048C215.914 431.133 215.537 429.962 214.971 430.388C214.406 430.814 214.311 429.75 214.689 427.622C215.16 424.962 214.971 424.43 214.029 425.068C213.086 425.706 212.897 425.494 213.369 424.11C213.934 422.408 211.766 416.024 210.634 416.024C210.351 416.024 210.446 416.556 210.823 417.301C211.2 418.046 211.106 418.152 210.446 417.726C209.88 417.301 209.597 416.45 209.88 415.705C210.446 414.002 203.186 406.022 201.96 406.874C201.394 407.193 200.64 406.98 200.263 406.342C199.791 405.49 199.98 405.384 200.923 405.916C202.054 406.767 202.054 406.554 200.923 404.958C200.169 404.001 199.037 403.362 198.283 403.682C197.434 404.107 197.246 403.788 197.623 403.043C198.094 402.192 197.811 402.086 196.68 402.511C195.643 403.043 195.266 402.83 195.737 401.979C196.209 401.128 195.926 401.022 194.794 401.447C193.757 401.979 193.38 401.766 193.851 400.915C194.323 400.064 194.04 399.958 192.909 400.383C191.871 400.915 191.494 400.702 191.966 399.851C192.437 399 192.154 398.894 191.023 399.319C190.174 399.745 189.609 399.638 189.891 399.106C190.646 397.83 188.006 396.766 186.026 397.617C184.894 398.149 184.706 397.936 185.271 396.872C185.837 395.808 185.554 395.595 184.046 396.021C182.726 396.446 182.16 396.234 182.631 395.489C183.009 394.85 182.443 394.638 181.217 394.957C179.897 395.382 179.331 395.17 179.803 394.531C180.18 393.68 179.426 393.574 177.351 393.999C175.183 394.531 174.523 394.318 174.994 393.467C175.466 392.616 174.806 392.51 172.637 392.935C170.563 393.467 169.809 393.254 170.28 392.51C170.657 391.658 169.526 391.446 166.509 391.658C162.171 392.084 162.171 392.084 162.171 388.573C162.171 386.658 162.549 385.274 163.02 385.594C163.397 385.913 164.623 385.168 165.566 383.785C167.357 381.55 167.357 381.55 165.471 383.04C163.774 384.53 163.68 384.53 164.811 382.827C165.566 381.763 166.697 381.338 167.546 381.657C168.677 382.189 168.96 381.87 168.489 380.593C168.206 379.635 168.583 378.358 169.526 377.507C170.94 376.337 171.034 376.337 170.186 377.72C169.714 378.678 169.997 378.465 170.94 377.294C171.883 376.23 172.354 374.528 172.166 373.783C171.789 372.826 172.071 372.613 172.731 373.038C173.486 373.57 173.58 373.251 173.203 371.974C172.826 371.017 172.92 370.378 173.391 370.698C174.523 371.549 175.466 368.57 174.711 366.335C174.334 365.165 174.429 364.846 175.183 365.378C175.937 365.91 176.126 365.165 175.654 362.718C175.277 360.27 175.371 359.526 176.126 360.058C176.974 360.59 176.314 357.823 176.314 351.12C176.314 344.63 176.88 342.076 176.126 342.608C175.371 343.14 175.937 342.076 175.654 339.948C175.371 337.82 175.183 338.352 174.9 336.756C174.429 336.224 174.271 335.692 173.957 334.628C173.486 333.032 173.014 332.5 172.543 331.436C172.071 331.649 171.6 330.372 171.129 329.308C170.186 328.244 170.846 327.074 170.186 327.18C169.526 327.393 168.96 326.435 169.243 325.584C168.771 324.52 168.3 323.882 167.357 322.924C166.886 322.818 166.509 321.115 166.697 320.37C163.586 316.54 162.171 314.944 160.663 313.242C160.003 313.561 158.966 312.922 158.211 311.965C157.174 310.369 157.174 310.262 158.4 311.22C159.249 311.752 158.023 311.22 156.986 310.156C156.043 309.092 155.571 308.773 154.911 308.986C154.063 309.411 153.874 309.092 154.251 308.347C154.723 307.496 154.44 307.39 153.309 307.815C152.271 308.347 151.894 308.134 152.366 307.283C152.837 306.432 152.554 306.326 151.423 306.751C150.386 307.283 150.009 307.07 150.48 306.219C150.951 305.368 150.669 305.262 149.537 305.687C148.594 306.113 148.123 306.006 148.5 305.368C149.254 303.985 146.237 297.707 145.2 298.452C144.634 298.878 144.54 298.346 144.917 297.282C145.294 296.005 145.2 295.686 144.446 296.218C143.691 296.75 143.503 296.324 143.974 295.154C144.351 293.877 144.257 293.558 143.503 294.09C142.749 294.622 142.56 294.196 143.031 293.026C143.409 291.749 143.314 291.43 142.56 291.962C141.806 292.494 141.617 292.068 142.089 290.898C142.466 289.727 142.277 289.302 141.711 289.727C141.146 290.153 140.769 289.621 140.863 288.557C140.863 287.599 140.486 286.854 139.92 286.961C139.26 287.067 138.883 286.429 138.977 285.365C138.977 284.407 138.411 283.556 137.657 283.556C136.903 283.45 136.337 282.811 136.526 282.066C136.809 280.364 134.923 277.491 133.886 278.236C132 279.513 132.283 276.746 134.169 274.938C136.149 272.916 136.149 272.916 134.829 275.044C133.414 277.172 133.414 277.172 135.583 275.15C136.714 273.98 137.469 272.384 137.186 271.639C136.903 270.682 137.186 270.469 137.751 270.894C138.506 271.32 138.6 270.788 138.129 269.192C137.657 267.49 137.751 267.064 138.6 267.596C139.354 268.128 139.449 267.277 138.977 264.404C138.506 261.531 138.6 260.574 139.449 261.106C140.109 261.638 140.486 260.467 140.486 257.488C140.486 254.509 140.109 253.338 139.449 253.87C138.694 254.296 138.6 253.551 139.071 251.104C139.449 249.082 139.354 247.912 138.883 248.231C138.411 248.55 138.034 247.806 138.034 246.529C138.129 245.146 137.657 244.294 136.903 244.507C136.149 244.614 135.96 244.294 136.243 243.656C137.091 242.06 133.886 238.123 132.283 238.868C131.529 239.081 131.246 238.868 131.529 238.336C132.189 237.059 132.189 237.059 125.211 236.846C122.289 236.74 120.026 236.953 120.309 237.485C120.591 237.91 120.12 238.017 119.271 237.698C117.386 236.846 110.974 243.443 111.729 245.571C112.011 246.422 111.729 246.635 111.069 246.21C110.409 245.678 110.22 246.21 110.503 247.699C110.88 248.976 110.691 249.827 110.22 249.402C109.749 249.082 109.371 250.04 109.371 251.423C109.371 252.913 108.711 254.402 107.863 254.722C107.014 255.147 106.637 254.934 107.109 254.19C107.486 253.338 107.014 253.232 105.6 253.764C104.28 254.19 103.714 254.083 104.091 253.445C104.846 252.062 102.017 250.891 99.66 251.742C98.34 252.168 98.0571 252.062 98.5286 251.104C99.0943 250.04 98.6229 249.934 96.7371 250.466C95.04 250.891 94.38 250.785 94.7571 250.146C95.1343 249.402 92.0229 249.189 85.6114 249.402C75.9 249.827 75.9 249.827 75.8057 245.358C75.5229 235.676 69.0171 229.079 58.5514 228.015C42.9943 226.419 33.3771 247.593 43.3714 261.744C46.3886 266.106 46.3886 266.106 40.8257 272.703C31.3971 283.875 19.6114 306.645 16.7829 318.881C15.2743 325.797 14.7086 324.626 11.9743 309.305C8.95714 292.813 8.76857 284.514 11.22 272.916C12.1629 268.234 13.2943 259.829 13.5771 254.296C14.7086 236.208 19.5171 214.29 26.4943 195.67C28.0971 191.307 30.1714 183.646 31.1143 178.646C32.0571 173.645 33.9429 166.41 35.3571 162.686C36.7714 158.962 39.1286 151.939 40.5429 147.045C43.7486 136.511 47.6143 129.489 53.3657 123.424C57.6086 118.955 57.6086 118.955 56.1 114.061C48.5571 90.1207 58.2686 60.6479 78.54 45.6455C97.02 32.0263 124.174 33.1967 141.806 48.4119C145.86 51.9231 145.86 51.9231 150.009 48.1991C158.211 40.7511 178.766 30.9623 191.683 28.1959C195.926 27.3447 204.411 24.5783 210.54 22.2375C227.134 15.8535 253.157 13.1935 272.014 15.9599C279.934 17.1303 306.051 14.8959 316.8 12.1295C329.717 8.83113 360.643 10.1079 372.523 14.4703C382.14 17.9815 389.117 18.0879 397.603 14.7895C404.674 12.1295 413.254 10.2143 422.871 9.15035C430.791 8.29915 453.231 9.46953 458.983 11.0655ZM61.6629 242.166C63.7371 244.507 63.5486 249.614 61.2857 252.168C56.2886 257.807 46.7657 249.614 51.1971 243.443C53.46 240.251 59.3057 239.506 61.6629 242.166ZM131.057 254.509C133.131 258.765 130.869 263.234 126.531 263.659C122.666 264.085 120.686 262.382 120.686 258.658C120.686 251.21 127.946 248.338 131.057 254.509ZM86.0829 294.302C94.7571 297.601 93.2486 302.07 81.7457 306.645C73.26 310.05 70.62 308.134 76.56 302.814C78.8229 300.899 79.2 300.048 78.2571 299.622C77.5029 299.41 75.24 298.558 73.3543 297.92C68.9229 296.43 68.0743 294.941 70.9029 293.77C74.2971 292.174 81.2743 292.387 86.0829 294.302ZM124.74 300.154C126.154 302.602 124.74 307.177 122.1 309.198C117.103 312.816 112.483 304.942 116.631 299.835C118.517 297.388 123.326 297.601 124.74 300.154ZM155.289 323.882C157.457 326.222 157.834 333.351 155.854 336.118C153.403 339.522 147.369 339.522 145.011 336.224C139.637 328.67 149.16 317.178 155.289 323.882ZM147.086 348.46C147.557 349.843 149.16 351.758 150.763 352.61C157.457 356.546 160.003 368.676 155.477 376.018C154.251 378.146 152.931 379.848 152.554 379.848C151.234 379.848 148.029 371.442 148.029 367.931C147.934 366.016 147.369 363.25 146.709 361.866C145.483 359.419 145.483 359.419 143.031 364.207C141.711 366.761 139.071 370.378 137.186 372.294C129.171 380.167 111.823 373.358 109.843 361.441C108.523 353.674 111.069 351.865 113.52 358.781C115.217 363.994 119.931 368.144 123.797 368.144C130.774 368.144 142.371 357.291 142.371 350.801C142.371 345.162 145.483 343.566 147.086 348.46ZM59.4 383.146C74.9571 405.703 80.7086 426.026 79.9543 455.392C79.2 479.013 75.4286 487.206 62.5114 492.632C53.1771 496.569 46.0114 494.228 40.1657 485.397C36.2057 479.226 36.3943 478.8 41.6743 482.843C51.7629 490.61 56.0057 491.036 64.3029 484.971C73.92 478.055 75.3343 474.118 76.0886 452.2C76.9371 425.494 70.9029 403.043 57.2314 382.827C53.1771 376.869 52.5171 375.592 53.46 375.592C53.8371 375.592 56.5714 378.997 59.4 383.146ZM206.109 410.917C208.843 414.428 208.843 414.428 205.826 411.342C202.903 408.363 202.243 407.512 202.997 407.512C203.186 407.512 204.506 409.108 206.109 410.917ZM203.751 416.13C206.014 421.025 200.64 426.026 197.246 422.195C196.02 420.812 195.737 415.811 196.774 414.641C198.189 412.938 202.714 414.002 203.751 416.13ZM192.343 420.28C196.869 425.387 191.871 436.134 185.554 434.75C175.937 432.622 176.974 418.152 186.686 418.152C189.231 418.152 191.117 418.897 192.343 420.28ZM207.429 431.452C208.843 433.474 207.334 438.368 205.26 438.368C202.526 438.368 200.451 432.729 202.431 430.601C203.469 429.324 206.203 429.856 207.429 431.452ZM198.754 444.007C199.32 449.859 194.229 452.413 192.154 447.412C191.306 445.178 191.4 444.433 192.814 442.624C195.36 439.538 198.377 440.283 198.754 444.007Z" fill="#F1A9E0"/>
<path d="M323.683 144.066C322.551 145.981 322.551 151.088 323.683 151.833C324.249 152.152 324.343 151.939 323.966 151.301C323.494 150.45 323.777 150.237 324.72 150.662C325.569 150.982 326.04 151.726 325.757 152.152C325.569 152.578 326.417 152.897 327.643 152.897C328.963 152.897 330.283 152.471 330.66 151.833C330.943 151.194 330.754 151.088 330.189 151.514C329.434 152.046 329.246 151.726 329.623 150.662C329.906 149.705 330.566 149.279 331.037 149.598C332.357 150.45 332.074 145.13 330.754 143.853C329.151 142.47 324.437 142.576 323.683 144.066Z" fill="#F1A9E0"/>
<path d="M260.511 147.896C256.363 149.811 255.137 157.046 258.343 160.664C262.491 165.346 270.6 161.622 270.6 154.812C270.6 150.343 264.471 146.087 260.511 147.896Z" fill="#F1A9E0"/>
<path d="M393.643 157.472C394.02 158.11 393.36 158.43 392.228 158.217C390.908 158.11 389.588 158.962 388.646 160.664C387.703 162.047 387.608 162.898 388.174 162.473C389.023 161.834 389.211 162.154 388.834 163.218C388.551 164.175 387.891 164.601 387.42 164.282C385.723 163.111 386.666 170.027 388.551 172.794C389.966 174.815 391.097 175.454 392.417 174.922C393.548 174.602 394.114 174.709 393.831 175.241C393.454 175.879 394.68 176.305 396.471 176.411C398.263 176.518 399.96 175.986 400.337 175.347C400.808 174.602 400.62 174.496 399.771 175.028C399.017 175.56 398.734 175.454 399.206 174.709C399.583 174.07 400.431 173.751 401.091 174.07C401.751 174.39 402.6 173.858 402.977 172.9C403.26 171.942 403.166 171.517 402.6 171.836C402.034 172.155 401.94 171.73 402.223 170.878C402.506 169.921 403.166 169.495 403.637 169.814C404.108 170.134 404.486 168.644 404.486 166.516C404.486 163.856 404.108 162.898 403.354 163.43C402.694 163.962 402.506 163.643 402.883 162.579C403.166 161.622 402.977 160.451 402.411 159.813C401.846 159.174 400.808 158.962 399.96 159.281C399.111 159.706 398.734 159.494 399.111 158.855C399.583 158.11 399.017 157.898 397.697 158.323C396.377 158.642 395.906 158.536 396.377 157.685C396.848 156.834 396.283 156.408 395.057 156.408C393.926 156.408 393.36 156.834 393.643 157.472Z" fill="#F1A9E0"/>
<path d="M428.529 204.182C428.717 204.714 428.246 205.033 427.303 204.926C426.36 204.926 425.795 205.565 425.795 206.629C425.889 207.693 425.606 208.331 425.229 208.012C424.852 207.693 424.192 208.225 423.909 209.182C422.117 214.396 425.606 221.95 429.189 220.674C430.509 220.248 430.886 220.461 430.509 221.206C430.037 221.95 430.886 222.376 432.772 222.376C434.375 222.376 435.506 221.95 435.223 221.418C434.94 220.886 435.412 220.567 436.355 220.674C437.297 220.674 437.957 220.035 437.957 218.971C437.957 218.014 438.335 216.843 438.806 216.311C439.277 215.779 439.372 216.098 438.9 216.95C438.429 217.907 438.523 218.226 439.183 217.694C440.692 216.737 439.843 207.586 438.146 205.565C436.543 203.862 427.586 202.586 428.529 204.182Z" fill="#F1A9E0"/>
<path d="M197.34 221.525C196.397 223.334 196.209 230.888 197.246 230.25C197.623 229.93 197.717 230.569 197.34 231.526C196.869 233.016 197.057 233.229 198.377 232.697C199.226 232.271 199.792 232.378 199.414 233.016C199.132 233.548 200.357 233.867 202.337 233.761C205.543 233.442 205.826 233.122 206.203 229.824C206.392 227.909 206.674 225.994 206.957 225.781C207.9 224.717 205.354 221.206 204.034 221.738C203.186 222.057 202.903 221.844 203.186 221.312C204.034 219.716 198.283 220.035 197.34 221.525Z" fill="#F1A9E0"/>
<path d="M389.871 239.4C390.249 240.038 389.777 240.145 388.834 239.719C387.514 239.187 387.326 239.506 387.703 241.315C388.08 242.592 387.892 243.443 387.42 243.018C386.949 242.698 386.571 243.444 386.571 244.72C386.571 245.997 386.949 246.742 387.42 246.422C387.892 246.103 388.174 246.635 388.08 247.699C387.986 249.082 388.74 249.508 391.757 249.508C394.774 249.508 395.529 249.082 395.434 247.593C395.34 246.635 395.623 246.103 396.094 246.422C397.509 247.38 397.037 243.23 395.434 240.677C394.02 238.442 388.646 237.166 389.871 239.4Z" fill="#F1A9E0"/>
<path d="M445.689 260.999C445.971 261.531 445.406 261.744 444.463 261.531C443.143 261.318 442.766 261.744 442.954 263.234C443.143 264.298 442.86 264.83 442.294 264.404C441.729 264.085 441.446 264.404 441.729 265.149C441.917 265.894 442.294 268.447 442.577 270.788C442.86 274.086 443.237 274.938 444.557 274.725C445.406 274.512 445.971 274.725 445.689 275.257C444.934 276.64 452.383 276.002 453.986 274.512C454.834 273.661 455.211 272.384 454.834 271.001C454.457 269.618 454.646 269.192 455.306 269.618C457.003 270.894 456.531 265.362 454.74 263.127C453.797 262.063 453.514 261.85 453.986 262.702C454.834 263.978 454.646 263.978 452.854 262.808C451.723 261.957 450.969 260.999 451.157 260.68C451.346 260.254 450.12 260.042 448.329 260.042C446.631 260.148 445.406 260.574 445.689 260.999Z" fill="#F1A9E0"/>
<path d="M311.237 72.4584C304.354 85.8648 295.02 94.2704 280.312 100.335C272.109 103.74 271.826 103.74 254.949 103.74C235.432 103.74 237.034 102.995 229.963 114.699C219.592 132.042 212.52 137.682 201.3 137.575C188.76 137.575 175.56 128.425 173.957 118.742C173.109 113.954 173.109 113.954 166.32 119.274C152.272 130.34 149.254 133.745 148.689 139.384C147.652 148.854 138.883 165.665 128.323 178.007C122.666 184.71 110.22 194.712 107.674 194.712C104.94 194.712 96.8316 217.694 93.343 235.676C90.8916 248.125 90.8916 250.04 93.4373 250.04C94.4744 250.04 98.5287 251.21 102.394 252.7C106.26 254.19 109.56 255.36 109.749 255.36C109.937 255.36 110.314 253.445 110.597 251.104C111.634 242.486 119.837 235.144 126.909 236.74C138.412 239.081 143.786 260.467 135.96 272.916C133.132 277.491 133.132 277.491 136.903 283.13C138.977 286.322 142.372 292.6 144.352 297.069C147.746 304.73 148.406 305.581 153.497 308.454C156.892 310.369 161.04 314.093 164.34 318.136C170.469 325.584 170.94 325.052 166.792 315.689C160.286 301.325 160.003 299.197 162.832 287.493C166.414 272.278 165.189 256.637 159.814 247.912C157.552 244.294 157.457 243.55 158.4 238.762C160.192 229.611 159.626 230.143 167.64 229.611C184.046 228.547 195.266 217.482 201.772 195.776C204.317 187.264 203.94 176.198 200.923 169.389C199.792 166.942 198.943 164.814 198.943 164.601C198.943 163.111 205.166 160.026 212.143 158.004C221.666 155.131 225.72 153.429 241.749 144.917C250.234 140.448 255.892 138.107 260.606 137.256C277.389 134.277 291.909 127.254 297.849 119.274C301.714 114.061 301.714 114.061 310.012 113.316C314.537 112.997 320.194 112.465 322.646 112.146C325.946 111.72 327.266 111.933 327.549 112.997C327.737 113.742 328.397 116.508 329.057 119.062C330.472 125.126 337.166 133.213 343.106 136.086C354.797 141.725 376.2 142.895 385.157 138.426C389.4 136.298 389.4 136.298 392.794 138.533C399.677 143.108 410.237 140.98 415.046 134.064C417.214 130.872 417.214 130.872 427.774 136.83C438.24 142.682 438.24 142.682 437.769 146.726C436.92 154.067 443.992 166.835 451.063 170.666C455.212 172.9 462.189 172.9 466.054 170.666C469.072 168.857 469.072 168.857 475.86 177.156C479.632 181.731 482.932 185.242 483.214 185.03C483.403 184.71 483.12 181.199 482.554 177.156C479.349 153.535 485.1 134.596 493.586 140.874C500.374 145.874 515.46 180.561 517.346 195.35C517.817 199.819 517.817 199.819 521.306 198.649C528.66 196.202 542.332 197.585 551.006 201.734C552.514 202.373 551.854 200.564 548.366 193.01C536.769 168.963 522.814 150.024 503.109 131.723C490.38 119.913 491.323 120.338 486.043 124.914C469.732 138.852 440.503 136.405 423.249 119.487C411.84 108.315 402.6 90.0144 402.6 78.6296C402.6 75.8632 402.223 75.6504 395.812 74.0544C371.486 68.3088 352.912 65.968 330.754 65.968C314.443 66.0744 314.443 66.0744 311.237 72.4584Z" fill="#C257D8"/>
<path d="M324.343 142.363C324.343 142.895 325.663 143.321 327.172 143.427C328.775 143.427 330 143.002 330 142.47C330 141.938 328.775 141.512 327.172 141.512C325.663 141.512 324.343 141.938 324.343 142.363Z" fill="#C257D8"/>
<path d="M259.286 144.598C259.286 145.236 260.794 145.768 262.869 145.768C264.849 145.768 266.923 146.3 267.583 147.045C268.149 147.683 268.997 148.002 269.374 147.577C270.6 146.087 267.96 144.491 263.623 143.959C260.7 143.534 259.286 143.746 259.286 144.598Z" fill="#C257D8"/>
<path d="M321.515 147.896C321.515 149.598 321.892 151.088 322.269 151.088C322.74 151.088 323.117 149.598 323.117 147.896C323.117 146.087 322.74 144.704 322.269 144.704C321.892 144.704 321.515 146.087 321.515 147.896Z" fill="#C257D8"/>
<path d="M330.943 147.896C330.943 149.598 331.414 151.088 331.886 151.088C332.452 151.088 332.829 149.598 332.829 147.896C332.829 146.087 332.452 144.704 331.886 144.704C331.414 144.704 330.943 146.087 330.943 147.896Z" fill="#C257D8"/>
<path d="M254.006 148.428C251.554 152.684 252.969 153.535 255.797 149.492C257.683 146.726 258.06 145.768 257.023 145.768C256.174 145.768 254.854 146.938 254.006 148.428Z" fill="#C257D8"/>
<path d="M271.072 151.301C272.015 154.599 273.429 156.302 273.429 154.067C273.429 151.514 272.392 148.96 271.354 148.96C270.883 148.96 270.789 150.024 271.072 151.301Z" fill="#C257D8"/>
<path d="M324.343 153.322C324.343 153.854 325.663 154.28 327.172 154.28C328.775 154.28 330 153.854 330 153.429C330 152.897 328.775 152.471 327.172 152.365C325.663 152.365 324.343 152.79 324.343 153.322Z" fill="#C257D8"/>
<path d="M252.12 157.685C253.44 165.133 258.72 169.07 265.509 167.686C270.412 166.622 269.374 165.133 264 165.771C258.626 166.303 253.629 162.154 253.629 157.046C253.629 155.557 253.157 154.28 252.592 154.28C251.837 154.28 251.743 155.45 252.12 157.685Z" fill="#C257D8"/>
<path d="M394.114 156.408C394.114 156.94 394.774 157.472 395.529 157.472C396.283 157.472 396.943 156.94 396.943 156.408C396.943 155.77 396.283 155.344 395.529 155.344C394.774 155.344 394.114 155.77 394.114 156.408Z" fill="#C257D8"/>
<path d="M271.26 159.494C269.374 163.75 269.374 163.856 270.6 163.856C271.732 163.856 273.617 158.749 273.146 157.046C272.957 156.514 272.109 157.578 271.26 159.494Z" fill="#C257D8"/>
<path d="M492.643 163.005C492.926 164.388 494.529 172.155 496.32 180.348C498.112 188.647 499.997 199.819 500.563 205.246C501.789 215.992 502.732 219.184 504.995 219.184C506.692 219.184 507.729 216.098 508.577 208.331C509.803 197.266 506.22 182.689 498.583 167.793C495 160.77 491.606 158.11 492.643 163.005Z" fill="#C257D8"/>
<path d="M403.543 166.516C403.543 168.538 404.014 170.24 404.486 170.24C405.052 170.24 405.429 168.538 405.429 166.516C405.429 164.494 405.052 162.792 404.486 162.792C404.014 162.792 403.543 164.494 403.543 166.516Z" fill="#C257D8"/>
<path d="M581.083 172.262C572.786 178.965 566.563 189.818 560.434 208.118C555.532 222.589 555.532 225.142 560.34 216.95C562.226 213.864 566.186 208.331 569.203 204.714C574.766 198.223 586.457 181.944 589.569 176.518C593.434 169.814 587.683 166.835 581.083 172.262Z" fill="#C257D8"/>
<path d="M401.186 173.432C399.583 175.347 399.583 175.56 401.092 175.56C401.94 175.56 402.883 174.815 403.26 173.964C404.109 171.304 403.072 171.091 401.186 173.432Z" fill="#C257D8"/>
<path d="M390.343 175.347C390.343 175.986 391.003 176.73 391.852 177.05C394.209 178.114 398.829 177.794 398.829 176.624C398.829 176.092 397.886 175.666 396.755 175.773C395.529 175.879 393.643 175.56 392.512 175.134C391.286 174.709 390.343 174.815 390.343 175.347Z" fill="#C257D8"/>
<path d="M322.834 185.987C318.968 188.754 316.8 194.286 316.8 201.415C316.8 207.267 316.8 207.267 307.654 207.693C298.414 208.118 298.414 208.118 291.814 202.692C288.231 199.606 283.328 195.67 281.065 193.861C275.88 189.605 264.848 185.774 260.605 186.626C251.554 188.647 249.951 202.054 256.457 220.461C258.531 226.313 261.265 232.803 262.491 234.825C264.754 238.549 264.754 238.549 262.585 243.975C261.454 247.061 259.757 252.913 258.814 256.956C257.211 264.51 257.211 264.51 248.631 266.958C214.217 276.853 189.231 306.538 186.874 340.267C186.214 349.098 186.214 349.098 181.5 342.182C178.954 338.352 176.597 335.266 176.314 335.266C176.031 335.16 175.937 341.331 176.125 348.886C176.597 364.952 173.957 374.102 166.697 381.444C161.417 386.87 161.417 392.616 166.697 392.616C177.823 392.616 197.811 401.979 205.731 410.81C213.651 419.748 216.763 431.558 213.745 441.241C212.425 445.71 212.425 445.709 224.305 450.497C241.183 457.307 272.014 466.351 272.863 464.755C272.957 464.542 274.088 461.882 275.314 458.797C286.817 430.175 326.323 435.495 331.414 466.351C332.074 470.288 332.074 470.288 339.805 470.288C355.457 470.288 357.06 469.649 357.531 463.904C358.663 450.923 366.394 443.369 379.311 442.73C387.514 442.411 387.797 442.305 390.531 438.9C399.017 427.941 409.954 423.259 427.114 423.046C440.88 422.94 447.197 424.961 457.757 432.729C461.434 435.495 461.434 435.495 467.563 431.878C475.011 427.515 488.871 417.407 496.131 411.023C501.506 406.448 501.506 406.448 494.906 399C491.323 394.957 488.4 391.126 488.4 390.382C488.4 389.743 486.703 390.914 484.723 392.935C476.048 401.766 462 396.553 462 384.53C462 381.125 461.623 379.848 460.586 379.848C455.683 379.848 451.628 374.315 451.628 367.612C451.628 365.59 451.251 363.888 450.686 363.888C449.554 363.888 449.554 369.846 450.591 372.932C451.157 374.528 450.78 375.486 448.988 376.869C446.631 378.571 446.631 378.571 444.274 373.251C437.014 356.653 415.517 353.354 405.146 367.186C398.64 375.698 397.226 388.254 401.751 398.149C403.637 402.192 403.637 402.192 401.091 403.256C394.397 406.235 371.768 412.406 371.014 411.555C370.92 411.449 373.56 406.342 377.048 400.49C383.271 389.637 385.628 384.742 393.643 365.697C398.64 353.674 399.677 352.716 411.274 349.098C415.611 347.715 419.666 346.438 420.326 346.226C422.117 345.587 421.646 341.118 419.288 337.182C416.177 331.862 411.934 329.84 403.448 329.84C387.703 329.84 381.008 335.692 371.486 357.93C364.131 375.273 353.76 393.467 348.103 399.213C342.163 405.278 341.691 404.107 346.877 396.34C357.72 380.38 361.208 369.846 361.868 350.801C362.34 336.33 361.774 332.074 357.72 319.945C355.268 312.816 355.268 312.816 358.097 305.049C362.245 293.877 363.283 286.216 362.811 271.107C361.963 249.402 357.154 236.846 345.84 227.164C342.445 224.291 338.863 220.461 337.92 218.652C336.223 215.566 336.223 215.566 341.031 219.503C348.857 225.994 349.706 225.355 347.348 214.183C342.823 192.052 331.98 179.603 322.834 185.987ZM281.914 216.418C283.517 219.929 282.668 223.227 278.708 228.228C275.691 232.165 275.314 232.378 273.805 230.675C272.297 229.079 272.391 228.76 274.277 225.249C277.105 220.035 276.728 217.482 272.486 212.055C270.411 209.395 268.714 206.735 268.714 206.31C268.714 204.714 280.688 213.864 281.914 216.418ZM347.631 253.87C348.291 255.786 346.5 257.488 343.577 257.488C342.54 257.488 340.843 258.446 339.9 259.616C337.731 262.276 336.128 260.893 336.977 257.169C337.92 252.806 346.311 250.146 347.631 253.87ZM315.763 255.254C323.4 259.722 322.551 264.298 314.537 261.744C312.274 261.106 308.314 260.68 305.863 260.893C299.923 261.318 299.263 258.126 304.543 255.147C308.785 252.7 311.331 252.7 315.763 255.254ZM358.285 266.319C358.285 266.532 356.871 268.022 355.268 269.83C352.157 272.916 352.157 272.916 354.891 269.405C357.531 266.213 358.285 265.468 358.285 266.319ZM338.957 270.256C339.523 272.384 338.108 276.64 336.788 276.64C336.317 276.64 335.091 275.257 333.96 273.448C332.074 270.575 331.98 270.256 333.583 269.298C336.128 267.596 338.297 267.915 338.957 270.256ZM334.903 288.344C332.923 290.685 329.623 292.6 327.737 292.6C324.908 292.6 326.228 290.578 330.471 288.45C332.828 287.28 334.714 285.684 334.714 284.939C334.714 283.875 334.903 283.875 335.563 285.046C336.128 286.003 335.846 287.174 334.903 288.344ZM292.757 304.836C298.98 308.241 305.391 310.369 316.328 312.603C321.043 313.667 321.043 313.667 315.574 313.774C305.108 313.986 288.325 306.538 280.028 298.026C275.785 293.664 275.786 293.664 280.971 297.388C283.8 299.516 289.174 302.814 292.757 304.836ZM311.614 361.76C311.708 381.87 293.417 396.34 276.728 389.424C272.957 387.828 272.957 387.828 283.988 387.296C294.36 386.764 295.208 386.551 299.074 383.572C305.108 378.784 309.257 368.995 309.54 358.887C309.823 349.205 311.52 351.652 311.614 361.76Z" fill="#C257D8"/>
<path d="M429 203.118C429 203.65 429.943 203.969 431.169 203.969C432.3 203.862 434.186 204.182 435.412 204.714C436.543 205.139 437.486 205.033 437.486 204.501C437.486 203.33 434.28 202.16 431.169 202.16C429.943 202.16 429 202.586 429 203.118Z" fill="#C257D8"/>
<path d="M486.892 205.352C487.174 206.842 487.457 208.331 487.457 208.757C487.457 209.289 487.929 209.608 488.495 209.608C489.626 209.608 488.683 205.458 487.269 203.756C486.609 203.011 486.42 203.543 486.892 205.352Z" fill="#C257D8"/>
<path d="M423.72 208.118C422.872 210.353 422.494 213.226 422.872 215.034C423.72 219.503 425.229 218.865 424.569 214.29C424.192 211.417 424.474 209.821 426.077 207.374C427.774 204.82 427.869 204.288 426.643 204.288C425.794 204.288 424.474 205.99 423.72 208.118Z" fill="#C257D8"/>
<path d="M438.429 207.161C438.429 207.693 439.089 209.076 439.843 210.246C441.257 212.162 441.257 212.162 441.069 209.714C440.786 207.267 438.429 205.033 438.429 207.161Z" fill="#C257D8"/>
<path d="M488.777 212.8C489.06 214.29 489.343 215.779 489.343 216.205C489.343 216.737 489.814 217.056 490.38 217.056C491.511 217.056 490.569 212.906 489.154 211.204C488.494 210.459 488.306 210.991 488.777 212.8Z" fill="#C257D8"/>
<path d="M439.843 214.396C439.466 215.566 438.24 217.588 437.203 218.865C435.506 220.993 435.506 221.312 436.826 221.312C438.806 221.312 441.54 216.63 440.974 214.183C440.597 212.374 440.503 212.481 439.843 214.396Z" fill="#C257D8"/>
<path d="M197.057 221.312C196.02 222.482 195.172 224.291 195.172 225.249C195.266 226.738 195.643 226.526 197.152 224.185C198.189 222.589 199.886 221.312 200.923 221.312C201.866 221.312 202.714 220.78 202.714 220.248C202.714 218.439 199.037 219.078 197.057 221.312Z" fill="#C257D8"/>
<path d="M490.286 220.674C490.286 221.525 489.626 222.376 488.872 222.802C488.117 223.121 487.457 224.078 487.457 225.036C487.457 225.887 487.08 226.632 486.514 226.632C486.043 226.632 485.572 227.377 485.572 228.228C485.572 229.079 485.194 229.824 484.629 229.824C484.157 229.824 483.686 230.569 483.686 231.42C483.686 232.271 483.309 233.016 482.932 233.016C481.894 233.016 475.672 247.699 476.426 248.55C476.709 248.87 478.5 245.678 480.48 241.422C482.366 237.059 485.76 230.569 488.023 226.951C492.36 220.035 492.737 219.184 491.229 219.184C490.757 219.184 490.286 219.822 490.286 220.674Z" fill="#C257D8"/>
<path d="M205.354 223.759C209.032 228.122 206.014 235.463 201.394 233.442C200.546 233.122 199.886 233.335 199.886 233.974C199.886 235.463 204.129 235.463 206.486 234.08C210.446 231.633 209.126 221.312 204.883 221.312C203.563 221.312 203.657 221.738 205.354 223.759Z" fill="#C257D8"/>
<path d="M388.08 238.974C387.231 239.826 386.571 241.422 386.666 242.379C386.666 243.869 386.949 243.762 388.174 241.741C388.929 240.464 390.437 239.4 391.38 239.4C392.417 239.4 393.171 238.868 393.171 238.336C393.171 236.634 389.683 237.059 388.08 238.974Z" fill="#C257D8"/>
<path d="M515.46 241.315C512.254 245.252 514.423 251.317 518.949 251.317C523.757 251.317 527.057 245.678 524.511 241.634C522.814 238.762 517.629 238.655 515.46 241.315Z" fill="#C257D8"/>
<path d="M540.634 244.294C538.277 248.338 539.786 252.594 543.746 253.019C548.649 253.551 551.572 246.954 547.989 243.337C545.443 240.677 542.426 241.102 540.634 244.294Z" fill="#C257D8"/>
<path d="M394.586 247.912C392.983 249.827 392.983 250.04 394.492 250.04C395.34 250.04 396.283 249.295 396.66 248.444C397.509 245.784 396.472 245.571 394.586 247.912Z" fill="#C257D8"/>
<path d="M387.514 248.338C387.514 249.189 388.363 250.253 389.495 250.572C392.417 251.636 392.606 250.572 389.872 248.55C387.892 247.061 387.514 247.061 387.514 248.338Z" fill="#C257D8"/>
<path d="M472.937 257.062C471.523 262.063 471.429 267.064 472.843 262.702C476.143 252.168 476.426 251.104 475.389 251.104C474.917 251.104 473.88 253.764 472.937 257.062Z" fill="#C257D8"/>
<path d="M493.586 258.02C506.503 259.935 509.992 259.935 504.9 258.02C502.826 257.169 497.357 256.637 492.643 256.637C484.157 256.743 484.157 256.743 493.586 258.02Z" fill="#C257D8"/>
<path d="M443.332 259.297C437.297 262.063 439.277 277.704 445.689 277.704C447.009 277.704 446.632 276.959 444.369 274.938C440.126 271.214 440.032 266 444.18 261.638C446.82 258.871 446.537 257.807 443.332 259.297Z" fill="#C257D8"/>
<path d="M530.357 262.063C527.623 264.404 528.849 268.66 532.243 268.66C534.6 268.66 535.166 268.234 535.354 265.787C535.731 262.17 532.903 260.042 530.357 262.063Z" fill="#C257D8"/>
<path d="M559.586 262.702C558.266 263.446 560.34 263.659 566.186 263.553C570.9 263.446 578.066 263.659 582.214 264.085C587.589 264.617 588.626 264.51 585.986 263.872C580.234 262.382 561.754 261.638 559.586 262.702Z" fill="#C257D8"/>
<path d="M453.703 273.342C452.006 275.895 451.912 276.64 452.949 276.64C454.552 276.64 456.626 272.916 456.154 271.214C455.966 270.575 454.834 271.639 453.703 273.342Z" fill="#C257D8"/>
<path d="M498.112 271.32C493.869 272.278 488.872 274.938 487.929 276.64C487.552 277.278 488.872 277.066 490.946 276.108C492.926 275.15 497.923 273.448 502.072 272.384C509.992 270.362 506.692 269.511 498.112 271.32Z" fill="#C257D8"/>
<path d="M514.517 273.022C514.14 273.448 513.857 275.044 513.857 276.534C513.857 284.301 522.343 290.685 527.529 286.854C529.792 285.152 530.075 285.152 532.715 287.28C537.523 291.11 543.746 289.94 547.046 284.62C549.592 280.47 550.629 273.448 548.743 273.448C548.272 273.448 547.8 274.831 547.8 276.427C547.8 284.407 535.826 286.322 533.469 278.662C532.432 275.15 531.017 274.618 530.169 277.385C527.152 287.067 517.912 285.365 517.157 275.15C516.969 272.916 515.555 271.852 514.517 273.022Z" fill="#C257D8"/>
<path d="M558.737 273.342C558.454 273.767 559.963 274.512 562.226 274.831C564.394 275.257 570.994 277.598 576.84 280.258C589.097 285.684 590.229 285.684 580.611 280.258C569.109 273.661 560.057 270.894 558.737 273.342Z" fill="#C257D8"/>
<path d="M467.657 282.066C467.657 283.237 468.129 283.875 468.6 283.556C469.166 283.237 469.543 282.173 469.543 281.322C469.543 280.47 469.166 279.832 468.6 279.832C468.129 279.832 467.657 280.79 467.657 282.066Z" fill="#C257D8"/>
<path d="M466.714 288.982C466.714 290.472 467.092 291.43 467.657 291.004C468.223 290.685 468.6 289.408 468.6 288.238C468.6 287.174 468.223 286.216 467.657 286.216C467.186 286.216 466.714 287.493 466.714 288.982Z" fill="#C257D8"/>
<path d="M465.771 308.028C465.771 311.22 466.243 313.88 466.714 313.88C467.28 313.88 467.657 311.22 467.657 308.028C467.657 304.836 467.28 302.176 466.714 302.176C466.243 302.176 465.771 304.836 465.771 308.028Z" fill="#C257D8"/>
<path d="M523.191 306.432C537.24 318.987 535.071 343.672 519.986 343.672C510.463 343.672 496.697 327.499 496.697 316.327C496.697 314.944 496.32 313.88 495.848 313.88C492.548 313.88 496.414 327.499 502.166 336.437C511.123 350.056 528.188 352.184 534.506 340.374C536.297 337.182 536.297 337.182 537.994 341.225C543.746 354.312 561.471 352.929 570.806 338.565C575.048 331.968 577.877 324.946 577.971 320.796C577.971 316.966 576.934 318.242 574.766 324.52C572.314 331.968 567.223 338.99 561.754 342.608C541.483 355.695 530.923 325.371 549.874 308.454C555.248 303.772 553.74 302.708 548.177 307.283C543.746 311.007 539.408 317.178 537.9 322.179C536.768 325.797 536.768 325.797 535.26 320.902C533.468 314.838 529.603 309.092 524.794 305.155C519.137 300.58 517.817 301.644 523.191 306.432Z" fill="#C257D8"/>
<path d="M466.714 327.074C466.714 328.563 467.186 329.84 467.657 329.84C468.223 329.84 468.6 328.882 468.6 327.818C468.6 326.648 468.223 325.371 467.657 325.052C467.092 324.626 466.714 325.584 466.714 327.074Z" fill="#C257D8"/>
<path d="M468.6 339.842C468.6 340.799 467.563 341.757 466.243 342.182C464.923 342.502 463.886 343.246 463.886 343.778C463.886 344.63 467.94 344.098 469.826 342.927C470.769 342.289 470.674 339.629 469.543 338.884C469.072 338.565 468.6 338.99 468.6 339.842Z" fill="#C257D8"/>
<path d="M458.229 347.396C456.249 350.056 458.135 350.694 460.397 348.141C462 346.226 462.095 345.8 460.869 345.8C460.115 345.8 458.889 346.545 458.229 347.396Z" fill="#C257D8"/>
<path d="M452.006 356.014C450.026 361.441 450.969 363.25 453.137 358.036C454.08 355.695 455.023 353.461 455.211 352.929C455.4 352.503 455.117 352.184 454.457 352.184C453.891 352.184 452.76 353.886 452.006 356.014Z" fill="#C257D8"/>
<path d="M311.614 111.933C301.243 112.891 301.243 112.891 296.528 118.636C289.74 126.829 276.445 133.213 259.663 136.192C254.948 137.043 249.291 139.384 240.805 143.853C224.683 152.365 220.723 154.067 211.011 156.94C206.58 158.217 201.583 160.345 199.98 161.622C197.057 163.963 197.057 163.963 199.508 169.283C204.6 180.667 203.186 193.01 195.077 208.651C188.477 221.419 179.52 227.696 166.697 228.547C159.343 229.079 159.343 229.079 158.494 232.91C156.137 242.911 156.137 244.614 158.777 248.87C164.246 257.807 165.283 271.533 161.7 286.961C159.248 297.707 159.154 297.92 160.851 303.453C162.548 309.624 168.3 323.031 170.186 325.584C170.846 326.435 172.543 329.521 173.957 332.5C176.691 338.033 185.648 351.12 186.686 351.12C187.063 351.12 187.628 346.971 187.817 341.757C189.703 308.135 214.877 278.023 249.574 268.022C258.154 265.575 258.154 265.575 259.757 258.127C260.7 253.977 262.491 247.912 263.717 244.507C266.168 238.336 266.168 238.336 263.623 234.08C258.626 225.568 253.628 209.395 253.628 201.841C253.628 189.499 258.531 185.668 269.563 189.392C275.88 191.52 277.671 192.691 290.871 203.756C297.471 209.289 297.471 209.289 307.654 208.757C317.743 208.225 317.743 208.225 317.743 202.479C317.743 187.583 327.171 180.774 335.563 189.711C340.465 194.925 349.517 219.823 347.348 222.27C346.406 223.44 335.94 212.907 334.243 209.076C333.017 206.203 332.263 205.459 332.074 206.629C331.32 210.779 338.391 222.695 344.897 228.228C362.34 243.018 367.62 278.236 356.494 305.794C353.76 312.71 353.76 312.71 356.4 320.051C360.548 331.436 361.397 337.714 360.925 351.227C360.171 369.74 355.363 382.721 343.388 398.681C338.391 405.384 338.485 406.555 343.86 404.214C350.554 401.341 362.151 383.04 372.428 358.994C381.763 337.182 388.74 330.904 403.448 330.904C410.897 330.904 415.328 333.139 418.345 338.246C420.797 342.289 421.08 344.63 419.383 345.162C418.723 345.375 414.668 346.651 410.331 348.035C398.545 351.759 397.697 352.503 392.228 365.697C384.025 385.487 377.048 399.213 370.26 408.895C368.751 411.13 367.62 413.151 367.903 413.364C369.034 414.641 401.94 405.384 403.92 403.256C404.391 402.724 403.637 399.958 402.223 396.766C393.548 376.975 410.803 353.887 429.094 360.909C436.637 363.782 445.028 373.358 445.028 379.103C445.028 381.657 446.254 381.125 452.383 376.018C452.571 375.805 452.288 373.996 451.628 371.975C448.705 361.867 456.625 346.971 466.62 343.566C469.448 342.608 470.391 341.757 470.108 340.587C466.525 326.755 466.431 295.686 469.92 276.427C473.691 255.467 478.594 241.847 487.551 227.164C492.077 219.716 492.077 219.716 490.285 213.864C489.343 210.672 487.457 202.905 486.231 196.627C483.685 184.391 482.083 181.306 472.56 170.985C468.883 166.942 468.883 166.942 465.677 169.07C459.36 173.432 451.345 171.304 445.311 163.431C440.503 157.153 438.145 150.769 438.9 145.875C439.465 141.831 439.465 141.831 428.811 135.873C416.271 128.851 416.743 128.851 414.103 133C409.388 140.129 399.583 141.938 393.077 136.937C389.871 134.49 389.871 134.49 385.063 136.937C375.634 141.725 356.117 140.874 344.048 135.022C338.108 132.149 331.414 124.063 330 117.998C329.34 115.444 328.68 112.678 328.491 111.933C328.114 110.55 326.888 110.55 311.614 111.933ZM330.188 144.385C333.017 147.258 331.131 153.216 327.36 153.216C325.38 153.216 322.457 150.131 322.457 148.109C322.457 143.64 327.171 141.299 330.188 144.385ZM270.034 149.067C273.24 153.11 273.051 159.281 269.657 163.324C262.868 171.517 251.083 163.643 253.723 152.791C255.797 144.385 264.66 142.363 270.034 149.067ZM402.128 160.877C408.823 169.815 398.357 181.412 390.437 173.858C385.628 169.283 386.666 160.771 392.417 158.111C396.283 156.195 399.394 157.153 402.128 160.877ZM438.145 206.629C441.163 209.821 441.068 215.247 437.957 218.652C431.923 225.568 421.645 218.652 424.38 209.608C426.36 203.224 433.525 201.735 438.145 206.629ZM203.657 221.844C209.125 225.036 209.314 232.165 204.034 233.655C198.471 235.251 193.946 226.951 197.906 222.483C200.263 219.823 200.168 219.823 203.657 221.844ZM393.925 240.039C397.697 243.018 396 250.04 391.38 250.04C389.683 250.04 387.514 246.742 387.514 244.188C387.514 239.4 390.625 237.379 393.925 240.039ZM452.948 261.851C456.06 264.617 456.437 271.214 453.514 274.512C449.46 279.087 440.314 275.363 440.314 269.192C440.314 261.106 447.385 256.956 452.948 261.851Z" fill="#6321A6"/>
<path d="M267.394 205.246C266.828 206.203 271.166 213.439 273.711 215.886C275.88 217.801 275.691 219.503 273.24 224.504C268.903 233.016 275.314 235.783 280.688 227.909C286.157 219.823 284.837 215.035 275.031 208.119C269.374 204.075 268.243 203.65 267.394 205.246Z" fill="#6321A6"/>
<path d="M338.768 252.381C336.223 253.764 334.62 258.552 335.846 260.999C336.977 263.447 338.768 263.234 340.843 260.68C341.786 259.51 343.483 258.552 344.708 258.552C346.783 258.552 349.8 256.105 349.8 254.403C349.8 251.317 343.011 250.04 338.768 252.381Z" fill="#6321A6"/>
<path d="M303.6 254.083C300.96 255.573 300.3 256.531 300.3 259.084C300.3 262.276 300.3 262.276 306.428 262.383C309.823 262.383 314.254 262.808 316.328 263.234C323.871 264.936 324.437 259.297 317.177 254.615C312.746 251.743 308.031 251.53 303.6 254.083Z" fill="#6321A6"/>
<path d="M354.232 267.915C351.78 270.788 350.837 274.512 352.44 274.512C353.383 274.512 360.172 266.745 360.172 265.681C360.172 263.872 356.494 265.255 354.232 267.915Z" fill="#6321A6"/>
<path d="M332.64 268.235C330.471 269.618 330.471 270.788 333.017 274.512C335.468 278.343 338.203 278.555 339.523 275.151C342.068 268.979 337.731 264.83 332.64 268.235Z" fill="#6321A6"/>
<path d="M298.509 273.342C299.169 274.193 313.783 277.704 316.329 277.704C318.686 277.704 314.631 275.576 309.634 274.087C303.129 272.171 297 271.852 298.509 273.342Z" fill="#6321A6"/>
<path d="M333.771 283.024C333.771 284.514 332.451 285.897 329.34 287.599C324.343 290.259 323.4 292.919 327.36 293.451C330.094 293.771 335.657 291.111 335.657 289.408C335.657 288.77 336.694 289.089 338.014 290.047C339.334 291.004 341.031 291.43 342.257 291.004C344.991 290.047 344.614 288.663 341.22 287.812C339.334 287.28 337.731 285.897 336.694 283.982C334.903 280.364 333.771 280.045 333.771 283.024Z" fill="#6321A6"/>
<path d="M353.006 282.067C352.157 283.556 352.911 284.088 356.777 284.833C359.04 285.259 360.171 285.046 360.171 284.195C360.171 283.556 360.077 283.024 359.889 283.024C359.794 283.024 358.286 282.599 356.683 282.067C354.703 281.428 353.383 281.428 353.006 282.067Z" fill="#6321A6"/>
<path d="M308.126 284.727C305.203 286.429 304.448 289.089 307.183 287.812C308.031 287.28 310.577 286.429 312.746 285.791C314.914 285.046 316.988 284.195 317.366 283.769C318.686 282.386 310.671 283.131 308.126 284.727Z" fill="#6321A6"/>
<path d="M270.6 286.855C270.6 294.09 290.871 310.05 304.731 313.774C309.634 315.051 319.817 315.157 323.4 313.88C326.511 312.816 324.908 312.284 315.103 310.795C301.054 308.773 283.517 299.729 275.126 290.259C271.637 286.323 270.6 285.578 270.6 286.855Z" fill="#6321A6"/>
<path d="M309.068 349.631C308.88 350.163 308.597 353.887 308.503 358.036C308.314 367.825 304.166 377.614 298.131 382.508C293.983 385.7 293.983 385.7 280.877 385.7C273.711 385.7 267.771 386.019 267.771 386.339C267.771 388.467 279.934 392.084 286.628 391.978C302.94 391.871 315.103 375.699 312.651 357.185C311.991 352.397 309.917 347.928 309.068 349.631Z" fill="#6321A6"/>
<path d="M324.437 111.401C327.549 111.826 327.926 112.145 328.397 115.55C329.151 120.764 333.206 128.105 336.883 130.978C339.429 133.106 339.24 132.681 335.469 127.999C332.734 124.701 330.66 120.871 330 117.998C329.34 115.444 328.68 112.678 328.491 111.933C328.303 111.188 326.794 110.762 324.626 110.869C321.043 110.975 321.043 110.975 324.437 111.401Z" fill="#913DBE"/>
<path d="M298.792 115.657C296.529 118.636 296.529 118.636 299.357 115.976C300.96 114.486 302.374 113.209 302.563 112.996C302.751 112.89 302.563 112.784 301.997 112.784C301.526 112.784 300.112 114.061 298.792 115.657Z" fill="#913DBE"/>
<path d="M389.4 135.021C389.4 136.83 393.737 139.49 397.509 139.916C401.186 140.448 401.186 140.448 397.98 139.49C396.283 138.958 393.643 137.469 392.134 136.298C390.626 135.021 389.4 134.489 389.4 135.021Z" fill="#913DBE"/>
<path d="M252.686 158.855C252.686 159.919 253.912 162.26 255.42 163.962C256.929 165.665 259.003 167.048 259.946 167.048C260.983 166.941 260.512 166.409 258.532 165.452C256.646 164.494 254.949 162.579 254.1 160.451C253.252 158.217 252.78 157.685 252.686 158.855Z" fill="#913DBE"/>
<path d="M198.189 163.005C197.529 163.962 197.906 165.771 199.414 169.176C200.64 171.836 201.677 173.538 201.772 173.113C201.772 172.687 200.923 170.453 199.98 168.218C198.566 165.133 198.377 163.856 199.226 162.898C199.792 162.26 199.98 161.728 199.697 161.728C199.414 161.728 198.754 162.366 198.189 163.005Z" fill="#913DBE"/>
<path d="M465.3 169.282C463.792 170.346 462.943 171.304 463.509 171.304C464.169 171.304 465.583 170.346 466.809 169.176C469.637 166.622 468.977 166.622 465.3 169.282Z" fill="#913DBE"/>
<path d="M457.569 172.049C458.417 172.261 459.926 172.261 460.869 172.049C461.717 171.73 460.963 171.518 459.171 171.518C457.38 171.518 456.626 171.73 457.569 172.049Z" fill="#913DBE"/>
<path d="M332.829 186.519C332.829 186.732 334.243 188.221 335.94 190.03C338.957 193.116 338.957 193.116 336.223 189.605C333.583 186.413 332.829 185.668 332.829 186.519Z" fill="#913DBE"/>
<path d="M252.874 202.16C252.874 204.181 253.063 205.033 253.346 203.969C253.534 203.011 253.534 201.309 253.346 200.245C253.063 199.287 252.874 200.138 252.874 202.16Z" fill="#913DBE"/>
<path d="M317.083 202.692C317.083 205.033 317.271 205.884 317.46 204.501C317.649 203.224 317.649 201.309 317.46 200.245C317.177 199.287 316.989 200.351 317.083 202.692Z" fill="#913DBE"/>
<path d="M332.263 207.586C332.263 208.65 332.64 209.608 333.112 209.608C333.489 209.608 333.583 210.14 333.206 210.885C332.829 211.523 332.923 211.736 333.583 211.417C334.054 210.991 334.337 209.714 334.055 208.544C333.395 205.671 332.263 205.033 332.263 207.586Z" fill="#913DBE"/>
<path d="M308.125 208.225C309.257 208.437 311.143 208.437 312.368 208.225C313.5 208.012 312.557 207.799 310.2 207.799C307.843 207.799 306.9 208.012 308.125 208.225Z" fill="#913DBE"/>
<path d="M269.657 210.991C269.657 211.204 271.071 212.693 272.769 214.502C275.786 217.588 275.786 217.588 273.051 214.077C270.411 210.885 269.657 210.14 269.657 210.991Z" fill="#913DBE"/>
<path d="M188.949 218.333C186.214 221.844 186.214 221.844 189.326 218.758C192.154 215.779 192.814 214.928 192.06 214.928C191.871 214.928 190.551 216.524 188.949 218.333Z" fill="#913DBE"/>
<path d="M271.637 228.228C271.449 231.845 276.069 234.931 277.577 232.165C277.766 231.739 276.917 231.313 275.503 231.42C273.711 231.42 272.863 230.781 272.391 228.76C271.826 226.525 271.731 226.419 271.637 228.228Z" fill="#913DBE"/>
<path d="M163.868 229.505C165 229.717 166.697 229.717 167.64 229.505C168.488 229.186 167.546 228.973 165.471 229.079C163.397 229.079 162.643 229.292 163.868 229.505Z" fill="#913DBE"/>
<path d="M394.775 240.464C395.34 241.315 396 243.23 396.283 244.72C396.66 247.38 396.66 247.38 396.849 244.613C396.849 243.017 396.189 241.102 395.34 240.357C393.832 239.081 393.737 239.081 394.775 240.464Z" fill="#913DBE"/>
<path d="M343.671 251.849C345.746 252.061 348.009 253.019 348.669 253.977C349.234 254.934 349.8 255.253 349.8 254.721C349.8 252.487 347.349 251.104 343.766 251.317C339.9 251.423 339.9 251.423 343.671 251.849Z" fill="#913DBE"/>
<path d="M300.96 255.573C299.64 257.062 299.451 261.318 300.677 262.169C301.054 262.489 301.243 261.531 300.96 260.148C300.771 258.658 301.054 256.743 301.714 255.892C303.128 253.977 302.563 253.764 300.96 255.573Z" fill="#913DBE"/>
<path d="M319.723 256.956C320.571 258.126 321.514 259.829 321.797 260.68C322.269 262.063 322.363 262.063 322.363 260.573C322.457 259.616 321.514 258.02 320.383 256.849C318.214 254.828 318.214 254.828 319.723 256.956Z" fill="#913DBE"/>
<path d="M316.14 263.553C316.989 263.765 318.497 263.765 319.44 263.553C320.289 263.234 319.534 263.022 317.743 263.022C315.951 263.022 315.197 263.234 316.14 263.553Z" fill="#913DBE"/>
<path d="M355.834 269.937C353.666 272.49 352.157 274.512 352.534 274.512C353.383 274.512 360.643 266.106 360.077 265.787C359.889 265.574 357.909 267.489 355.834 269.937Z" fill="#913DBE"/>
<path d="M362.34 275.044C362.34 278.555 362.529 279.832 362.717 277.917C362.906 276.001 362.906 273.129 362.717 271.533C362.529 269.937 362.34 271.533 362.34 275.044Z" fill="#913DBE"/>
<path d="M270.506 282.492C269.657 284.088 270.883 287.812 272.392 288.131C273.429 288.344 273.523 288.131 272.769 287.067C272.203 286.322 271.543 284.726 271.354 283.556C271.166 282.385 270.789 281.853 270.506 282.492Z" fill="#913DBE"/>
<path d="M357.343 284.088C355.08 284.939 355.174 284.939 358.097 285.045C359.983 285.152 361.02 284.726 360.643 284.088C360.36 283.449 359.983 283.024 359.889 283.13C359.794 283.237 358.663 283.662 357.343 284.088Z" fill="#913DBE"/>
<path d="M325.286 289.94C324.06 291.536 324.72 293.664 326.511 293.664C327.171 293.664 327.077 293.238 326.229 292.6C325.003 291.642 325.097 291.323 326.606 289.94C327.643 289.088 328.02 288.344 327.454 288.344C326.889 288.344 325.946 289.088 325.286 289.94Z" fill="#913DBE"/>
<path d="M400.526 330.585C401.657 330.797 403.543 330.797 404.769 330.585C405.9 330.372 404.957 330.159 402.6 330.159C400.243 330.159 399.3 330.372 400.526 330.585Z" fill="#913DBE"/>
<path d="M381.292 340.693C378.557 344.204 378.557 344.204 381.669 341.118C384.497 338.139 385.157 337.288 384.403 337.288C384.214 337.288 382.894 338.884 381.292 340.693Z" fill="#913DBE"/>
<path d="M186.874 345.161C186.686 349.949 186.592 350.162 185.083 348.885C183.857 347.821 183.857 348.034 185.272 349.949C187.157 352.397 187.157 352.396 187.44 349.63C187.629 348.14 187.534 345.374 187.346 343.459C187.063 340.799 186.969 341.224 186.874 345.161Z" fill="#913DBE"/>
<path d="M361.397 347.928C361.397 352.29 361.586 354.099 361.774 351.865C361.963 349.737 361.963 346.119 361.774 343.885C361.586 341.757 361.397 343.565 361.397 347.928Z" fill="#913DBE"/>
<path d="M419.854 359.313C421.268 359.525 423.343 359.525 424.568 359.313C425.7 359.1 424.568 358.887 421.928 358.887C419.383 358.887 418.346 359.1 419.854 359.313Z" fill="#913DBE"/>
<path d="M405.617 367.505C398.357 376.443 396.66 387.509 401.186 397.404C402.411 400.277 403.26 402.937 402.977 403.469C402.694 403.894 403.166 404.001 403.92 403.681C405.806 402.83 405.806 403.362 403.166 397.829C398.263 387.615 399.394 376.762 406.466 367.825C411.369 361.441 410.709 361.334 405.617 367.505Z" fill="#913DBE"/>
<path d="M265.886 386.232C265.886 386.764 266.451 387.296 267.206 387.296C267.96 387.296 268.903 386.764 269.186 386.232C269.469 385.593 268.903 385.168 267.866 385.168C266.734 385.168 265.886 385.593 265.886 386.232Z" fill="#913DBE"/>
<path d="M277.86 386.977C279.557 387.189 282.574 387.189 284.46 386.977C286.44 386.764 285.12 386.551 281.443 386.551C277.86 386.551 276.257 386.764 277.86 386.977Z" fill="#913DBE"/>
<path d="M284.083 392.297C285.497 392.509 287.572 392.509 288.797 392.297C289.929 392.084 288.797 391.871 286.157 391.871C283.612 391.871 282.574 392.084 284.083 392.297Z" fill="#913DBE"/>
</svg>
