<svg width="32" height="32" viewBox="0 0 32 32" fill="none" xmlns="http://www.w3.org/2000/svg">
<path d="M32 16C32 24.8366 24.8366 32 16 32C7.16344 32 0 24.8366 0 16C0 7.16344 7.16344 0 16 0C24.8366 0 32 7.16344 32 16Z" fill="#FFE6F7"/>
<path d="M10.136 27.144C10.136 26.8773 10.1413 26.3707 10.152 25.624C10.1627 24.8773 10.1787 23.9707 10.2 22.904C10.2213 21.8373 10.248 20.6853 10.28 19.448C10.3227 18.2107 10.36 16.9573 10.392 15.688C10.4347 14.4187 10.4773 13.208 10.52 12.056C10.5627 10.8933 10.6107 9.86933 10.664 8.984C10.7173 8.088 10.7653 7.40533 10.808 6.936C11.768 6.744 12.7707 6.6 13.816 6.504C14.872 6.408 15.976 6.36 17.128 6.36C18.536 6.36 19.768 6.55733 20.824 6.952C21.8907 7.34667 22.7173 7.96533 23.304 8.808C23.9013 9.65067 24.2 10.7387 24.2 12.072C24.2 13.4267 23.9547 14.6 23.464 15.592C22.984 16.584 22.248 17.3467 21.256 17.88C20.2747 18.4133 19.0373 18.68 17.544 18.68C17.2453 18.68 16.888 18.6587 16.472 18.616C16.0667 18.5627 15.752 18.504 15.528 18.44C15.5173 18.728 15.5013 19.24 15.48 19.976C15.4693 20.712 15.448 21.5333 15.416 22.44C15.3947 23.3467 15.3733 24.2373 15.352 25.112C15.3307 25.9867 15.32 26.7067 15.32 27.272C15.064 27.272 14.7067 27.272 14.248 27.272C13.7893 27.272 13.2933 27.2613 12.76 27.24C12.2373 27.2293 11.7413 27.2133 11.272 27.192C10.8027 27.1813 10.424 27.1653 10.136 27.144ZM15.432 14.28C15.656 14.3227 15.912 14.36 16.2 14.392C16.4987 14.4133 16.7867 14.424 17.064 14.424C17.576 14.424 18.0507 14.344 18.488 14.184C18.9253 14.0133 19.2773 13.7573 19.544 13.416C19.8107 13.064 19.944 12.616 19.944 12.072C19.944 11.2827 19.7147 10.7493 19.256 10.472C18.7973 10.184 18.184 10.04 17.416 10.04C17.1173 10.04 16.8027 10.056 16.472 10.088C16.1413 10.1093 15.7947 10.1413 15.432 10.184C15.432 10.248 15.432 10.408 15.432 10.664C15.432 10.92 15.432 11.2293 15.432 11.592C15.432 11.944 15.432 12.3013 15.432 12.664C15.432 13.0267 15.432 13.3573 15.432 13.656C15.432 13.9547 15.432 14.1627 15.432 14.28Z" fill="url(#paint0_linear_367_564)"/>
<defs>
<linearGradient id="paint0_linear_367_564" x1="16" y1="0" x2="16" y2="32" gradientUnits="userSpaceOnUse">
<stop stop-color="#6321A6"/>
<stop offset="1" stop-color="#3D158C"/>
</linearGradient>
</defs>
</svg>
