<svg width="32" height="32" viewBox="0 0 32 32" fill="none" xmlns="http://www.w3.org/2000/svg">
<path d="M9.88771 32C9.08055 32 8.40119 31.7255 7.84963 31.1765C7.29807 30.6274 7.02229 29.9739 7.02229 29.2157C7.02229 28.4314 7.29807 27.7712 7.84963 27.2353C8.40119 26.6993 9.0671 26.4314 9.84736 26.4314C10.6545 26.4314 11.3406 26.7059 11.9056 27.2549C12.4706 27.8039 12.7531 28.4575 12.7531 29.2157C12.7531 30 12.4706 30.6601 11.9056 31.1961C11.3406 31.732 10.668 32 9.88771 32ZM25.9098 32C25.1027 32 24.4301 31.7255 23.8919 31.1765C23.3538 30.6274 23.0848 29.9739 23.0848 29.2157C23.0848 28.4314 23.3606 27.7712 23.9121 27.2353C24.4637 26.6993 25.1296 26.4314 25.9098 26.4314C26.717 26.4314 27.3964 26.7059 27.9479 27.2549C28.4995 27.8039 28.7753 28.4575 28.7753 29.2157C28.7753 30 28.4995 30.6601 27.9479 31.1961C27.3964 31.732 26.717 32 25.9098 32ZM8.47518 6.19608L12.2688 13.8431H23.7305L28.0085 6.19608H8.47518ZM6.86086 3.09804H29.2192C30.6721 3.09804 31.5465 3.47059 31.8425 4.21569C32.1384 4.96078 32.0174 5.85621 31.4793 6.90196L26.7977 15.1373C26.4749 15.6863 26.0578 16.1307 25.5466 16.4706C25.0354 16.8105 24.4435 16.9804 23.7709 16.9804H11.8653L9.84736 20.7451H29.2192V23.8431H9.48413C8.16577 23.8431 7.22408 23.4118 6.65907 22.549C6.09406 21.6863 6.10751 20.732 6.69943 19.6863L9.20163 15.2941L3.30936 3.09804H0V0H5.36762L6.86086 3.09804ZM12.2688 13.8431L8.47518 6.19608H28.0085L23.7305 13.8431H12.2688Z" fill="url(#paint0_linear_86_979)"/>
<defs>
<linearGradient id="paint0_linear_86_979" x1="16" y1="0" x2="16" y2="32" gradientUnits="userSpaceOnUse">
<stop stop-color="#6321A6"/>
<stop offset="1" stop-color="#3D158C"/>
</linearGradient>
</defs>
</svg>
