<svg width="22" height="22" viewBox="0 0 22 22" fill="none" xmlns="http://www.w3.org/2000/svg">
<path d="M11.0004 21.475C9.55039 21.475 8.19622 21.2042 6.93789 20.6625C5.67956 20.1208 4.56706 19.3708 3.60039 18.4125C2.63372 17.4542 1.87956 16.35 1.33789 15.1C0.796224 13.85 0.525391 12.4833 0.525391 11C0.525391 9.54999 0.796224 8.19583 1.33789 6.93749C1.87956 5.67916 2.63372 4.56666 3.60039 3.59999C4.56706 2.63333 5.67956 1.87916 6.93789 1.33749C8.19622 0.795827 9.55039 0.524994 11.0004 0.524994C12.4671 0.524994 13.8296 0.795827 15.0879 1.33749C16.3462 1.87916 17.4546 2.63333 18.4129 3.59999C19.3712 4.56666 20.1212 5.67916 20.6629 6.93749C21.2046 8.19583 21.4754 9.54999 21.4754 11V12.275C21.4754 13.325 21.1171 14.1833 20.4004 14.85C19.6837 15.5167 18.7921 15.85 17.7254 15.85C17.0421 15.85 16.4296 15.6875 15.8879 15.3625C15.3462 15.0375 14.9337 14.6 14.6504 14.05C14.2337 14.6667 13.7171 15.1208 13.1004 15.4125C12.4837 15.7042 11.7837 15.85 11.0004 15.85C9.65039 15.85 8.50039 15.3792 7.55039 14.4375C6.60039 13.4958 6.12539 12.3417 6.12539 10.975C6.12539 9.60833 6.60039 8.45416 7.55039 7.51249C8.50039 6.57083 9.65039 6.09999 11.0004 6.09999C12.3504 6.09999 13.5004 6.57083 14.4504 7.51249C15.4004 8.45416 15.8754 9.61666 15.8754 11V12.1C15.8754 12.6167 16.0587 13.0417 16.4254 13.375C16.7921 13.7083 17.2254 13.875 17.7254 13.875C18.1921 13.875 18.6004 13.7083 18.9504 13.375C19.3004 13.0417 19.4754 12.6167 19.4754 12.1V11C19.4754 8.63333 18.6546 6.62916 17.0129 4.98749C15.3712 3.34583 13.3671 2.52499 11.0004 2.52499C8.65039 2.52499 6.65039 3.34999 5.00039 4.99999C3.35039 6.64999 2.52539 8.64999 2.52539 11C2.52539 13.3667 3.34622 15.3708 4.98789 17.0125C6.62956 18.6542 8.63372 19.475 11.0004 19.475H16.3504V21.475H11.0004ZM11.0004 13.875C11.8171 13.875 12.5046 13.5958 13.0629 13.0375C13.6212 12.4792 13.9004 11.8 13.9004 11C13.9004 10.2 13.6171 9.51249 13.0504 8.93749C12.4837 8.36249 11.8004 8.07499 11.0004 8.07499C10.1837 8.07499 9.49622 8.36666 8.93789 8.94999C8.37956 9.53333 8.10039 10.225 8.10039 11.025C8.10039 11.825 8.38372 12.5 8.95039 13.05C9.51706 13.6 10.2004 13.875 11.0004 13.875Z" fill="url(#paint0_linear_86_1262)"/>
<defs>
<linearGradient id="paint0_linear_86_1262" x1="11.0004" y1="0.524994" x2="11.0004" y2="21.475" gradientUnits="userSpaceOnUse">
<stop stop-color="#6321A6"/>
<stop offset="1" stop-color="#3D158C"/>
</linearGradient>
</defs>
</svg>
