<svg width="41" height="42" viewBox="0 0 41 42" fill="none" xmlns="http://www.w3.org/2000/svg">
<path d="M40.1056 21.1225C40.1056 10.0075 31.1506 0.997498 20.1056 0.997498C9.05559 0.999998 0.100586 10.0075 0.100586 21.125C0.100586 31.1675 7.41559 39.4925 16.9756 41.0025V26.94H11.9006V21.125H16.9806V16.6875C16.9806 11.645 19.9681 8.86 24.5356 8.86C26.7256 8.86 29.0131 9.2525 29.0131 9.2525V14.2025H26.4906C24.0081 14.2025 23.2331 15.755 23.2331 17.3475V21.1225H28.7781L27.8931 26.9375H23.2306V41C32.7906 39.49 40.1056 31.165 40.1056 21.1225Z" fill="url(#paint0_linear_86_1261)"/>
<defs>
<linearGradient id="paint0_linear_86_1261" x1="20.1031" y1="0.997498" x2="20.1031" y2="41.0025" gradientUnits="userSpaceOnUse">
<stop stop-color="#6321A6"/>
<stop offset="1" stop-color="#3D158C"/>
</linearGradient>
</defs>
</svg>
