<svg width="16" height="22" viewBox="0 0 16 22" fill="none" xmlns="http://www.w3.org/2000/svg">
<path d="M8 17.525C5.56667 15.7083 3.77083 13.9875 2.6125 12.3625C1.45417 10.7375 0.875 9.11667 0.875 7.5C0.875 6.3 1.09167 5.24584 1.525 4.3375C1.95833 3.42917 2.50833 2.67084 3.175 2.0625C3.84167 1.45417 4.6 0.987503 5.45 0.662503C6.3 0.337503 7.15 0.175003 8 0.175003C8.83333 0.175003 9.67917 0.337503 10.5375 0.662503C11.3958 0.987503 12.1583 1.45417 12.825 2.0625C13.4917 2.67084 14.0458 3.42917 14.4875 4.3375C14.9292 5.24584 15.15 6.3 15.15 7.5C15.15 9.11667 14.5667 10.7375 13.4 12.3625C12.2333 13.9875 10.4333 15.7083 8 17.525ZM8.025 9.475C8.625 9.475 9.12917 9.2625 9.5375 8.8375C9.94583 8.4125 10.15 7.90834 10.15 7.325C10.15 6.725 9.94167 6.21667 9.525 5.8C9.10833 5.38334 8.60833 5.175 8.025 5.175C7.44167 5.175 6.9375 5.3875 6.5125 5.8125C6.0875 6.2375 5.875 6.74167 5.875 7.325C5.875 7.925 6.0875 8.43334 6.5125 8.85C6.9375 9.26667 7.44167 9.475 8.025 9.475ZM0.875 21.775V19.5H15.15V21.775H0.875Z" fill="url(#paint0_linear_86_1256)"/>
<defs>
<linearGradient id="paint0_linear_86_1256" x1="8.0125" y1="0.175003" x2="8.0125" y2="21.775" gradientUnits="userSpaceOnUse">
<stop stop-color="#6321A6"/>
<stop offset="1" stop-color="#3D158C"/>
</linearGradient>
</defs>
</svg>
