<svg width="32" height="32" viewBox="0 0 32 32" fill="none" xmlns="http://www.w3.org/2000/svg">
<path d="M15.9766 15.57C13.5786 15.57 11.6399 14.8458 10.1606 13.3975C8.68126 11.9491 7.94161 10.0783 7.94161 7.78501C7.94161 5.49175 8.68126 3.62093 10.1606 2.17256C11.6399 0.724187 13.5786 0 15.9766 0C18.3436 0 20.2822 0.716643 21.7927 2.14993C23.3032 3.58322 24.0584 5.46158 24.0584 7.78501C24.0584 10.0783 23.3109 11.9491 21.8161 13.3975C20.3212 14.8458 18.3747 15.57 15.9766 15.57ZM0 32V26.7496C0 25.422 0.358151 24.2678 1.07445 23.2871C1.79075 22.3065 2.70949 21.5596 3.83066 21.0467C5.94842 20.0811 7.99611 19.372 9.97372 18.9194C11.9513 18.4668 13.9367 18.2405 15.9299 18.2405C17.9854 18.2405 19.9942 18.4819 21.9562 18.9646C23.9182 19.4474 25.9582 20.1414 28.0759 21.0467C29.2594 21.5295 30.2092 22.2687 30.9255 23.2645C31.6418 24.2603 32 25.422 32 26.7496V32H0Z" fill="url(#paint0_linear_86_930)"/>
<defs>
<linearGradient id="paint0_linear_86_930" x1="16" y1="0" x2="16" y2="32" gradientUnits="userSpaceOnUse">
<stop stop-color="#6321A6"/>
<stop offset="1" stop-color="#3D158C"/>
</linearGradient>
</defs>
</svg>
