<svg width="100" height="40" viewBox="0 0 100 40" fill="none" xmlns="http://www.w3.org/2000/svg">
<path d="M0 29.4822C0 29.1438 0.00681334 28.5008 0.02044 27.5533C0.0340667 26.6058 0.0545066 25.4552 0.0817599 24.1015C0.109013 22.7479 0.14308 21.286 0.18396 19.7157C0.238466 18.1455 0.28616 16.555 0.32704 14.9442C0.381546 13.3333 0.436053 11.797 0.490559 10.335C0.545066 8.85956 0.606386 7.56007 0.674519 6.43655C0.742652 5.29949 0.803972 4.43316 0.858479 3.83756C2.08488 3.59391 3.36578 3.41117 4.70119 3.28934C6.05023 3.16751 7.46059 3.1066 8.93227 3.1066C10.731 3.1066 12.3049 3.35702 13.6539 3.85787C15.0166 4.35871 16.0726 5.14382 16.8221 6.2132C17.5852 7.28257 17.9667 8.66328 17.9667 10.3553C17.9667 12.0745 17.6533 13.5635 17.0265 14.8223C16.4133 16.0812 15.4731 17.0491 14.2058 17.7259C12.9521 18.4027 11.3714 18.7411 9.46371 18.7411C9.08216 18.7411 8.62567 18.714 8.09423 18.6599C7.57642 18.5922 7.17443 18.5178 6.88827 18.4365C6.87464 18.802 6.8542 19.4518 6.82695 20.3858C6.81332 21.3198 6.78607 22.3621 6.74519 23.5127C6.71794 24.6633 6.69068 25.7936 6.66343 26.9036C6.63618 28.0135 6.62255 28.9272 6.62255 29.6447C6.29551 29.6447 5.83902 29.6447 5.25307 29.6447C4.66713 29.6447 4.03349 29.6311 3.35216 29.6041C2.68445 29.5905 2.05081 29.5702 1.45124 29.5431C0.851665 29.5296 0.36792 29.5093 0 29.4822ZM6.76563 13.1574C7.05179 13.2115 7.37883 13.2589 7.74675 13.2995C8.1283 13.3266 8.49621 13.3401 8.85051 13.3401C9.50459 13.3401 10.111 13.2386 10.6697 13.0355C11.2284 12.819 11.678 12.4941 12.0187 12.0609C12.3594 11.6142 12.5297 11.0457 12.5297 10.3553C12.5297 9.35364 12.2367 8.67682 11.6508 8.32487C11.0648 7.95939 10.2813 7.77665 9.30019 7.77665C8.91864 7.77665 8.51665 7.79695 8.09423 7.83756C7.6718 7.86464 7.22894 7.90525 6.76563 7.95939C6.76563 8.04061 6.76563 8.24365 6.76563 8.56853C6.76563 8.8934 6.76563 9.28596 6.76563 9.74619C6.76563 10.1929 6.76563 10.6464 6.76563 11.1066C6.76563 11.5668 6.76563 11.9865 6.76563 12.3655C6.76563 12.7445 6.76563 13.0085 6.76563 13.1574Z" fill="url(#paint0_linear_86_1028)"/>
<path d="M28.325 28.3452C27.9435 28.7513 27.2281 29.1438 26.1788 29.5228C25.1432 29.9154 23.9849 30.1117 22.704 30.1117C21.0416 30.1117 19.7743 29.7259 18.9022 28.9543C18.0437 28.1827 17.4646 27.0931 17.1648 25.6853C16.865 24.264 16.7151 22.6125 16.7151 20.731C16.7151 19.2555 16.7287 17.7733 16.756 16.2843C16.7832 14.7953 16.8173 13.3198 16.8582 11.8579C16.9127 10.3959 16.9672 8.98139 17.0217 7.61421C17.0898 6.2335 17.1512 4.92724 17.2057 3.69543C17.2738 2.45009 17.3419 1.31303 17.4101 0.284265C18.3776 0.216583 19.2701 0.182742 20.0877 0.182742C20.6191 0.182742 21.1438 0.196279 21.6616 0.223351C22.1794 0.250423 22.7517 0.291032 23.3785 0.345177C23.3104 1.52284 23.2286 2.8291 23.1333 4.26396C23.0515 5.68528 22.9697 7.14044 22.888 8.62944C22.8198 10.1184 22.7517 11.5601 22.6836 12.9543C22.6154 14.3486 22.5609 15.6142 22.5201 16.7513C22.4928 17.8748 22.4792 18.775 22.4792 19.4518C22.4792 20.3316 22.5132 21.1506 22.5814 21.9086C22.6631 22.6531 22.8403 23.2623 23.1128 23.736C23.3853 24.1963 23.7941 24.4264 24.3392 24.4264C24.8025 24.4264 25.1773 24.3249 25.4634 24.1218C25.7632 23.9052 26.0085 23.6345 26.1993 23.3096C26.2946 23.4721 26.4445 23.797 26.6489 24.2843C26.8533 24.758 27.0782 25.286 27.3235 25.868C27.5687 26.4501 27.7868 26.978 27.9775 27.4518C28.1683 27.912 28.2841 28.2098 28.325 28.3452Z" fill="url(#paint1_linear_86_1028)"/>
<path d="M39.1895 9.44162C39.5302 9.3198 40.0139 9.23181 40.6407 9.17766C41.2812 9.10998 41.9012 9.07614 42.5008 9.07614C43.005 9.07614 43.5636 9.09645 44.1768 9.13706C44.79 9.17766 45.2874 9.22504 45.669 9.27919C45.8461 10.3756 45.9824 11.4856 46.0778 12.6091C46.1731 13.7191 46.2208 14.8156 46.2208 15.8985C46.2208 17.8883 46.0437 19.7631 45.6894 21.5228C45.3487 23.2826 44.7832 24.8325 43.9929 26.1726C43.2025 27.5127 42.1465 28.5618 40.8247 29.3198C39.5029 30.0914 37.8745 30.4772 35.9395 30.4772C33.8819 30.4772 32.1854 30.0778 30.85 29.2792C29.5146 28.467 28.4721 27.3435 27.7227 25.9086C26.9732 24.4602 26.4486 22.775 26.1488 20.8528C25.8626 18.9171 25.7196 16.8325 25.7196 14.599C25.7196 13.6108 25.74 12.6091 25.7809 11.5939C25.8354 10.5651 25.9035 9.54315 25.9853 8.52792C26.3396 8.50085 26.8029 8.48054 27.3752 8.46701C27.9611 8.43993 28.4926 8.43316 28.9695 8.4467C29.6508 8.4467 30.3322 8.48731 31.0135 8.56853C31.7085 8.63621 32.2535 8.73096 32.6487 8.85279C32.5533 9.77326 32.4716 10.7682 32.4034 11.8376C32.3353 12.8934 32.3012 13.956 32.3012 15.0254C32.3012 16.8122 32.417 18.423 32.6487 19.8579C32.894 21.2927 33.296 22.4298 33.8547 23.269C34.4134 24.1083 35.1696 24.5279 36.1235 24.5279C37.0229 24.5279 37.7383 24.1489 38.2697 23.3909C38.8148 22.6328 39.2031 21.6176 39.4348 20.3452C39.6801 19.0592 39.8027 17.6244 39.8027 16.0406C39.8027 14.8494 39.7414 13.6785 39.6187 12.5279C39.5097 11.3638 39.3666 10.335 39.1895 9.44162Z" fill="url(#paint2_linear_86_1028)"/>
<path d="M54.2483 30.9036C52.654 30.9036 51.1891 30.7073 49.8537 30.3147C48.5319 29.9357 47.4077 29.489 46.4811 28.9746C45.5681 28.4467 44.9073 27.9729 44.4985 27.5533C44.5802 27.2961 44.7369 26.9239 44.9686 26.4365C45.2139 25.9357 45.5 25.3942 45.8271 24.8122C46.1541 24.2301 46.4811 23.6887 46.8082 23.1878C47.1352 22.687 47.4282 22.3147 47.6871 22.0711C48.3412 22.6261 49.0498 23.1743 49.8128 23.7157C50.5759 24.2437 51.3595 24.6768 52.1634 25.0152C52.9674 25.3536 53.7169 25.5228 54.4118 25.5228C54.9569 25.5228 55.4475 25.4552 55.8835 25.3198C56.3196 25.1709 56.6602 24.9543 56.9055 24.67C57.1644 24.3858 57.2939 24.0338 57.2939 23.6142C57.2939 23.1269 57.0554 22.6599 56.5785 22.2132C56.1152 21.753 55.5156 21.3198 54.7798 20.9137C54.0439 20.5076 53.274 20.1421 52.47 19.8173C51.3663 19.3706 50.3375 18.8494 49.3836 18.2538C48.4297 17.6447 47.6598 16.9002 47.0739 16.0203C46.4879 15.1269 46.195 14.0169 46.195 12.6904C46.195 11.3367 46.597 10.1997 47.4009 9.27919C48.2049 8.35871 49.2542 7.66159 50.5487 7.18782C51.8568 6.71404 53.2536 6.47716 54.7389 6.47716C56.1424 6.47716 57.5664 6.67343 59.0108 7.06599C60.4553 7.44501 61.634 7.99323 62.5469 8.71066C62.4652 8.96785 62.288 9.36041 62.0155 9.88833C61.7566 10.4162 61.4364 10.9848 61.0548 11.5939C60.6869 12.1895 60.2917 12.7377 59.8693 13.2386C59.3106 12.7648 58.6088 12.3113 57.764 11.8782C56.9191 11.445 56.0334 11.2284 55.1068 11.2284C54.6435 11.2284 54.1802 11.2758 53.7169 11.3706C53.2672 11.4653 52.8925 11.6345 52.5927 11.8782C52.3065 12.1218 52.1634 12.4535 52.1634 12.8731C52.1634 13.2792 52.3202 13.6447 52.6336 13.9695C52.947 14.2809 53.4035 14.5854 54.003 14.8832C54.6162 15.181 55.3316 15.4924 56.1492 15.8173C56.9668 16.1421 57.7981 16.5279 58.6429 16.9746C59.4878 17.4078 60.2645 17.9289 60.9731 18.5381C61.6953 19.1472 62.2744 19.8579 62.7105 20.67C63.1465 21.4687 63.3645 22.3892 63.3645 23.4315C63.3645 25.0964 62.9489 26.4839 62.1177 27.5939C61.2865 28.7039 60.1759 29.5296 58.786 30.0711C57.4097 30.6261 55.8971 30.9036 54.2483 30.9036Z" fill="url(#paint3_linear_86_1028)"/>
<path d="M68.2954 29.5228C67.982 29.577 67.5391 29.6176 66.9668 29.6447C66.4081 29.6717 65.8289 29.6853 65.2294 29.6853C64.5208 29.6853 63.8599 29.6582 63.2467 29.6041C62.6335 29.5634 62.1838 29.489 61.8977 29.3807C62.0067 28.5685 62.1021 27.5127 62.1838 26.2132C62.2792 24.9002 62.3542 23.4315 62.4087 21.8071C62.4768 20.1827 62.5109 18.4772 62.5109 16.6904C62.5109 14.8629 62.4768 13.0017 62.4087 11.1066C62.3542 9.21151 62.2792 7.3841 62.1838 5.62437C62.0884 3.8511 61.9999 2.2335 61.9181 0.771573C62.0135 0.730964 62.3133 0.670051 62.8175 0.588833C63.3216 0.507614 63.9076 0.426396 64.5753 0.345177C65.243 0.250423 65.8766 0.169205 66.4762 0.101523C67.0758 0.0338409 67.5255 0 67.8253 0C68.0433 1.01523 68.2341 2.22673 68.3976 3.63452C68.5611 5.0423 68.6974 6.58545 68.8064 8.26396C68.9154 9.92893 68.9903 11.6751 69.0312 13.5025C69.4945 12.9882 70.0805 12.5279 70.789 12.1218C71.4976 11.7022 72.2675 11.3773 73.0988 11.1472C73.9436 10.9036 74.7817 10.7817 75.6129 10.7817C77.2753 10.7817 78.5494 11.0998 79.4352 11.736C80.3209 12.3587 80.9341 13.2724 81.2748 14.4772C81.6291 15.6684 81.8062 17.1235 81.8062 18.8426C81.8062 19.9256 81.7585 21.0897 81.6631 22.335C81.5814 23.5804 81.4723 24.8054 81.3361 26.0102C81.1998 27.2149 81.0499 28.2978 80.8864 29.2589C80.4095 29.3266 79.9189 29.3807 79.4147 29.4213C78.9105 29.4619 78.4063 29.4822 77.9022 29.4822C77.3435 29.4822 76.7916 29.4552 76.2465 29.401C75.7151 29.3604 75.2313 29.2995 74.7953 29.2183C74.8907 28.6091 74.9929 27.8917 75.1019 27.066C75.2109 26.2403 75.3131 25.3942 75.4085 24.5279C75.5039 23.6481 75.5788 22.8156 75.6333 22.0305C75.7015 21.2318 75.7355 20.555 75.7355 20C75.7355 19.2014 75.6538 18.5245 75.4902 17.9695C75.3404 17.4146 75.0883 16.9949 74.734 16.7107C74.3933 16.4129 73.93 16.264 73.344 16.264C72.8399 16.264 72.3629 16.3587 71.9132 16.5482C71.4636 16.7242 71.048 16.9543 70.6664 17.2386C70.2985 17.5093 69.9715 17.7936 69.6853 18.0914C69.3991 18.3756 69.1743 18.6261 69.0108 18.8426C69.0108 20.2369 68.9767 21.6311 68.9086 23.0254C68.8404 24.4061 68.7519 25.665 68.6429 26.802C68.5338 27.9391 68.418 28.846 68.2954 29.5228Z" fill="url(#paint4_linear_86_1028)"/>
<path d="M89.0237 40C86.9389 40 85.072 39.6887 83.4232 39.066C81.7744 38.4433 80.4185 37.78 79.3556 37.0761C79.5191 36.6294 79.7712 36.0541 80.1119 35.3503C80.4662 34.6599 80.8273 33.9831 81.1952 33.3198C81.5631 32.6701 81.8629 32.1827 82.0946 31.8579C82.5715 32.1692 83.1915 32.5144 83.9546 32.8934C84.7313 33.2724 85.5762 33.6041 86.4892 33.8883C87.4022 34.1726 88.3151 34.3147 89.2281 34.3147C90.2229 34.3147 91.0541 34.0575 91.7218 33.5431C92.4031 33.0288 92.955 32.3452 93.3774 31.4924C93.7999 30.6396 94.1065 29.6988 94.2972 28.67C94.5016 27.6413 94.6107 26.6058 94.6243 25.5635C94.3245 26.0778 93.9089 26.5651 93.3774 27.0254C92.846 27.4721 92.226 27.8376 91.5174 28.1218C90.8225 28.3926 90.0457 28.5279 89.1873 28.5279C87.1024 28.5279 85.474 27.9662 84.3021 26.8426C83.1438 25.7056 82.3331 24.1692 81.8697 22.2335C81.4201 20.2978 81.1952 18.132 81.1952 15.736C81.1952 14.802 81.2157 13.8274 81.2565 12.8122C81.2974 11.797 81.3451 10.7411 81.3996 9.64467C81.6313 9.57699 81.9788 9.53638 82.4421 9.52284C82.9054 9.49577 83.4096 9.48223 83.9546 9.48223C84.7041 9.48223 85.4399 9.50254 86.1621 9.54315C86.8844 9.58376 87.3749 9.63113 87.6338 9.68528C87.5929 9.9154 87.5316 10.335 87.4499 10.9442C87.3681 11.5533 87.2932 12.2775 87.225 13.1168C87.1705 13.956 87.1433 14.8156 87.1433 15.6954C87.1433 16.5482 87.1841 17.3942 87.2659 18.2335C87.3477 19.0592 87.4907 19.8105 87.6951 20.4873C87.9132 21.1641 88.2198 21.7056 88.6149 22.1117C89.0101 22.5178 89.5143 22.7208 90.1275 22.7208C91.0677 22.7208 91.8308 22.3824 92.4168 21.7056C93.0027 21.0288 93.4388 20.0812 93.7249 18.8629C94.0247 17.6447 94.2019 16.2301 94.2564 14.6193C94.27 14.1049 94.2836 13.5973 94.2972 13.0964C94.3109 12.5821 94.3177 12.1015 94.3177 11.6548C94.3177 11.2081 94.3109 10.8291 94.2972 10.5178C94.2972 10.1929 94.2904 9.97631 94.2768 9.86802C94.6038 9.84095 94.9241 9.82064 95.2375 9.80711C95.5509 9.78003 95.8643 9.7665 96.1777 9.7665C97.4314 9.7665 98.6714 9.90186 99.8978 10.1726C99.9659 11.7022 100 13.4484 100 15.4112C100 16.6565 99.9864 17.9898 99.9591 19.4112C99.9319 20.819 99.8842 22.2606 99.816 23.736C99.7615 25.2115 99.6934 26.687 99.6116 28.1624C99.489 30.4772 99.0257 32.5211 98.2217 34.2944C97.4314 36.0812 96.2731 37.4755 94.7469 38.4772C93.2207 39.4924 91.313 40 89.0237 40Z" fill="url(#paint5_linear_86_1028)"/>
<defs>
<linearGradient id="paint0_linear_86_1028" x1="50" y1="0" x2="50" y2="40" gradientUnits="userSpaceOnUse">
<stop stop-color="#6321A6"/>
<stop offset="1" stop-color="#3D158C"/>
</linearGradient>
<linearGradient id="paint1_linear_86_1028" x1="50" y1="0" x2="50" y2="40" gradientUnits="userSpaceOnUse">
<stop stop-color="#6321A6"/>
<stop offset="1" stop-color="#3D158C"/>
</linearGradient>
<linearGradient id="paint2_linear_86_1028" x1="50" y1="0" x2="50" y2="40" gradientUnits="userSpaceOnUse">
<stop stop-color="#6321A6"/>
<stop offset="1" stop-color="#3D158C"/>
</linearGradient>
<linearGradient id="paint3_linear_86_1028" x1="50" y1="0" x2="50" y2="40" gradientUnits="userSpaceOnUse">
<stop stop-color="#6321A6"/>
<stop offset="1" stop-color="#3D158C"/>
</linearGradient>
<linearGradient id="paint4_linear_86_1028" x1="50" y1="0" x2="50" y2="40" gradientUnits="userSpaceOnUse">
<stop stop-color="#6321A6"/>
<stop offset="1" stop-color="#3D158C"/>
</linearGradient>
<linearGradient id="paint5_linear_86_1028" x1="50" y1="0" x2="50" y2="40" gradientUnits="userSpaceOnUse">
<stop stop-color="#6321A6"/>
<stop offset="1" stop-color="#3D158C"/>
</linearGradient>
</defs>
</svg>
