<svg width="22" height="22" viewBox="0 0 22 22" fill="none" xmlns="http://www.w3.org/2000/svg">
<path d="M14.4246 15.9L15.9246 14.45L12.0496 10.55V5.77501H10.0746V11.375L14.4246 15.9ZM10.9996 21.525C9.56628 21.525 8.20378 21.25 6.91211 20.7C5.62044 20.15 4.49961 19.4 3.54961 18.45C2.59961 17.5 1.84961 16.3792 1.29961 15.0875C0.749609 13.7958 0.474609 12.4333 0.474609 11C0.474609 9.56668 0.749609 8.20835 1.29961 6.92501C1.84961 5.64168 2.59961 4.52501 3.54961 3.57501C4.49961 2.62501 5.62044 1.86668 6.91211 1.30001C8.20378 0.733346 9.56628 0.450012 10.9996 0.450012C12.4496 0.450012 13.8121 0.733346 15.0871 1.30001C16.3621 1.86668 17.4746 2.62501 18.4246 3.57501C19.3746 4.52501 20.1329 5.63751 20.6996 6.91251C21.2663 8.18751 21.5496 9.55001 21.5496 11C21.5496 12.4333 21.2663 13.7958 20.6996 15.0875C20.1329 16.3792 19.3746 17.5 18.4246 18.45C17.4746 19.4 16.3621 20.15 15.0871 20.7C13.8121 21.25 12.4496 21.525 10.9996 21.525Z" fill="url(#paint0_linear_86_1257)"/>
<defs>
<linearGradient id="paint0_linear_86_1257" x1="11.0121" y1="0.450012" x2="11.0121" y2="21.525" gradientUnits="userSpaceOnUse">
<stop stop-color="#6321A6"/>
<stop offset="1" stop-color="#3D158C"/>
</linearGradient>
</defs>
</svg>
