<svg width="20" height="20" viewBox="0 0 20 20" fill="none" xmlns="http://www.w3.org/2000/svg">
<path d="M17.7996 19.475C15.7163 19.475 13.6413 18.9625 11.5746 17.9375C9.50794 16.9125 7.65378 15.5833 6.01211 13.95C4.37044 12.3167 3.03711 10.4583 2.01211 8.375C0.987109 6.29166 0.474609 4.225 0.474609 2.175C0.474609 1.70833 0.641276 1.30416 0.974609 0.962497C1.30794 0.62083 1.71628 0.449997 2.19961 0.449997H5.57461C6.10794 0.449997 6.53711 0.58333 6.86211 0.849997C7.18711 1.11666 7.39961 1.50833 7.49961 2.025L8.17461 4.675C8.24128 5.14166 8.22461 5.5375 8.12461 5.8625C8.02461 6.1875 7.84128 6.46666 7.57461 6.7L4.99961 9.05C5.83294 10.3667 6.74128 11.5042 7.72461 12.4625C8.70794 13.4208 9.79961 14.2417 10.9996 14.925L13.4746 12.45C13.7579 12.15 14.0746 11.9417 14.4246 11.825C14.7746 11.7083 15.1663 11.7 15.5996 11.8L17.9496 12.375C18.4663 12.5083 18.8579 12.7458 19.1246 13.0875C19.3913 13.4292 19.5246 13.85 19.5246 14.35V17.725C19.5246 18.225 19.3579 18.6417 19.0246 18.975C18.6913 19.3083 18.2829 19.475 17.7996 19.475Z" fill="url(#paint0_linear_86_1258)"/>
<defs>
<linearGradient id="paint0_linear_86_1258" x1="9.99961" y1="0.449997" x2="9.99961" y2="19.475" gradientUnits="userSpaceOnUse">
<stop stop-color="#6321A6"/>
<stop offset="1" stop-color="#3D158C"/>
</linearGradient>
</defs>
</svg>
