<svg width="41" height="34" viewBox="0 0 41 34" fill="none" xmlns="http://www.w3.org/2000/svg">
<path d="M12.6705 33.5C27.7655 33.5 36.023 20.9925 36.023 10.165C36.023 9.81499 36.023 9.45999 36.008 9.10999C37.6156 7.94621 39.0031 6.50537 40.1055 4.85499C38.6038 5.51712 37.0124 5.95351 35.383 6.14999C37.0993 5.12409 38.3848 3.50991 39.0005 1.60749C37.3879 2.5628 35.623 3.23343 33.783 3.58999C32.5459 2.27255 30.909 1.39979 29.1257 1.10689C27.3424 0.813986 25.5123 1.1173 23.9188 1.96984C22.3254 2.82238 21.0575 4.17657 20.3116 5.82264C19.5657 7.46872 19.3834 9.31483 19.793 11.075C16.5298 10.9114 13.3375 10.0637 10.4231 8.58685C7.50864 7.11004 4.93718 5.0371 2.87547 2.50249C1.82882 4.3102 1.5094 6.4485 1.98208 8.48316C2.45476 10.5178 3.68411 12.2963 5.42047 13.4575C4.11932 13.4133 2.84677 13.0639 1.70547 12.4375V12.55C1.70771 14.4437 2.36374 16.2785 3.56265 17.7444C4.76157 19.2102 6.42984 20.2172 8.28547 20.595C7.58113 20.789 6.85354 20.8858 6.12297 20.8825C5.60793 20.8841 5.09392 20.8363 4.58797 20.74C5.11244 22.3701 6.13365 23.7954 7.50859 24.8162C8.88352 25.837 10.5433 26.4021 12.2555 26.4325C9.34686 28.717 5.75397 29.956 2.05547 29.95C1.40377 29.9527 0.752527 29.9152 0.105469 29.8375C3.85926 32.2307 8.21871 33.5014 12.6705 33.5Z" fill="url(#paint0_linear_86_1259)"/>
<defs>
<linearGradient id="paint0_linear_86_1259" x1="20.1055" y1="0.99826" x2="20.1055" y2="33.5" gradientUnits="userSpaceOnUse">
<stop stop-color="#6321A6"/>
<stop offset="1" stop-color="#3D158C"/>
</linearGradient>
</defs>
</svg>
