<svg width="236" height="96" viewBox="0 0 236 96" fill="none" xmlns="http://www.w3.org/2000/svg">
<path d="M0.407959 70.432C0.407959 69.632 0.423959 68.112 0.455959 65.872C0.487959 63.632 0.535959 60.912 0.599959 57.712C0.663959 54.512 0.743959 51.056 0.839959 47.344C0.967959 43.632 1.07996 39.872 1.17596 36.064C1.30396 32.256 1.43196 28.624 1.55996 25.168C1.68796 21.68 1.83196 18.608 1.99196 15.952C2.15196 13.264 2.29596 11.216 2.42396 9.80799C5.30396 9.23199 8.31196 8.79999 11.448 8.512C14.616 8.22399 17.928 8.07999 21.384 8.07999C25.608 8.07999 29.304 8.67199 32.472 9.856C35.672 11.04 38.152 12.896 39.912 15.424C41.704 17.952 42.6 21.216 42.6 25.216C42.6 29.28 41.864 32.8 40.392 35.776C38.952 38.752 36.744 41.04 33.768 42.64C30.824 44.24 27.112 45.04 22.632 45.04C21.736 45.04 20.664 44.976 19.416 44.848C18.2 44.688 17.256 44.512 16.584 44.32C16.552 45.184 16.504 46.72 16.44 48.928C16.408 51.136 16.344 53.6 16.248 56.32C16.184 59.04 16.12 61.712 16.056 64.336C15.992 66.96 15.96 69.12 15.96 70.816C15.192 70.816 14.12 70.816 12.744 70.816C11.368 70.816 9.87996 70.784 8.27996 70.72C6.71196 70.688 5.22396 70.64 3.81596 70.576C2.40796 70.544 1.27196 70.496 0.407959 70.432ZM16.296 31.84C16.968 31.968 17.736 32.08 18.6 32.176C19.496 32.24 20.36 32.272 21.192 32.272C22.728 32.272 24.152 32.032 25.464 31.552C26.776 31.04 27.832 30.272 28.632 29.248C29.432 28.192 29.832 26.848 29.832 25.216C29.832 22.848 29.144 21.248 27.768 20.416C26.392 19.552 24.552 19.12 22.248 19.12C21.352 19.12 20.408 19.168 19.416 19.264C18.424 19.328 17.384 19.424 16.296 19.552C16.296 19.744 16.296 20.224 16.296 20.992C16.296 21.76 16.296 22.688 16.296 23.776C16.296 24.832 16.296 25.904 16.296 26.992C16.296 28.08 16.296 29.072 16.296 29.968C16.296 30.864 16.296 31.488 16.296 31.84Z" fill="black"/>
<path d="M66.9247 67.744C66.0287 68.704 64.3487 69.632 61.8847 70.528C59.4527 71.456 56.7327 71.92 53.7247 71.92C49.8207 71.92 46.8447 71.008 44.7967 69.184C42.7807 67.36 41.4207 64.784 40.7167 61.456C40.0127 58.096 39.6607 54.192 39.6607 49.744C39.6607 46.256 39.6927 42.752 39.7567 39.232C39.8207 35.712 39.9007 32.224 39.9967 28.768C40.1247 25.312 40.2527 21.968 40.3807 18.736C40.5407 15.472 40.6847 12.384 40.8127 9.47199C40.9727 6.52799 41.1327 3.83999 41.2927 1.408C43.5647 1.248 45.6607 1.168 47.5807 1.168C48.8287 1.168 50.0607 1.2 51.2767 1.26399C52.4927 1.32799 53.8367 1.42399 55.3087 1.55199C55.1487 4.33599 54.9567 7.42399 54.7327 10.816C54.5407 14.176 54.3487 17.616 54.1567 21.136C53.9967 24.656 53.8367 28.064 53.6767 31.36C53.5167 34.656 53.3887 37.648 53.2927 40.336C53.2287 42.992 53.1967 45.12 53.1967 46.72C53.1967 48.8 53.2767 50.736 53.4367 52.528C53.6287 54.288 54.0447 55.728 54.6847 56.848C55.3247 57.936 56.2847 58.48 57.5647 58.48C58.6527 58.48 59.5327 58.24 60.2047 57.76C60.9087 57.248 61.4847 56.608 61.9327 55.84C62.1567 56.224 62.5087 56.992 62.9887 58.144C63.4687 59.264 63.9967 60.512 64.5727 61.888C65.1487 63.264 65.6607 64.512 66.1087 65.632C66.5567 66.72 66.8287 67.424 66.9247 67.744Z" fill="black"/>
<path d="M92.4382 23.056C93.2382 22.768 94.3742 22.56 95.8462 22.432C97.3502 22.272 98.8062 22.192 100.214 22.192C101.398 22.192 102.71 22.24 104.15 22.336C105.59 22.432 106.758 22.544 107.654 22.672C108.07 25.264 108.39 27.888 108.614 30.544C108.838 33.168 108.95 35.76 108.95 38.32C108.95 43.024 108.534 47.456 107.702 51.616C106.902 55.776 105.574 59.44 103.718 62.608C101.862 65.776 99.3822 68.256 96.2782 70.048C93.1742 71.872 89.3502 72.784 84.8062 72.784C79.9742 72.784 75.9902 71.84 72.8542 69.952C69.7182 68.032 67.2702 65.376 65.5102 61.984C63.7502 58.56 62.5182 54.576 61.8142 50.032C61.1422 45.456 60.8062 40.528 60.8062 35.248C60.8062 32.912 60.8542 30.544 60.9502 28.144C61.0782 25.712 61.2382 23.296 61.4302 20.896C62.2622 20.832 63.3502 20.784 64.6942 20.752C66.0702 20.688 67.3182 20.672 68.4382 20.704C70.0382 20.704 71.6382 20.8 73.2382 20.992C74.8702 21.152 76.1502 21.376 77.0782 21.664C76.8542 23.84 76.6622 26.192 76.5022 28.72C76.3422 31.216 76.2622 33.728 76.2622 36.256C76.2622 40.48 76.5342 44.288 77.0782 47.68C77.6542 51.072 78.5982 53.76 79.9102 55.744C81.2222 57.728 82.9982 58.72 85.2382 58.72C87.3502 58.72 89.0302 57.824 90.2782 56.032C91.5582 54.24 92.4702 51.84 93.0142 48.832C93.5902 45.792 93.8782 42.4 93.8782 38.656C93.8782 35.84 93.7342 33.072 93.4462 30.352C93.1902 27.6 92.8542 25.168 92.4382 23.056Z" fill="black"/>
<path d="M127.801 73.792C124.057 73.792 120.617 73.328 117.481 72.4C114.377 71.504 111.737 70.448 109.561 69.232C107.417 67.984 105.865 66.864 104.905 65.872C105.097 65.264 105.465 64.384 106.009 63.232C106.585 62.048 107.257 60.768 108.025 59.392C108.793 58.016 109.561 56.736 110.329 55.552C111.097 54.368 111.785 53.488 112.393 52.912C113.929 54.224 115.593 55.52 117.385 56.8C119.177 58.048 121.017 59.072 122.905 59.872C124.793 60.672 126.553 61.072 128.185 61.072C129.465 61.072 130.617 60.912 131.641 60.592C132.665 60.24 133.465 59.728 134.041 59.056C134.649 58.384 134.953 57.552 134.953 56.56C134.953 55.408 134.393 54.304 133.273 53.248C132.185 52.16 130.777 51.136 129.049 50.176C127.321 49.216 125.513 48.352 123.625 47.584C121.033 46.528 118.617 45.296 116.377 43.888C114.137 42.448 112.329 40.688 110.953 38.608C109.577 36.496 108.889 33.872 108.889 30.736C108.889 27.536 109.833 24.848 111.721 22.672C113.609 20.496 116.073 18.848 119.113 17.728C122.185 16.608 125.465 16.048 128.953 16.048C132.249 16.048 135.593 16.512 138.985 17.44C142.377 18.336 145.145 19.632 147.289 21.328C147.097 21.936 146.681 22.864 146.041 24.112C145.433 25.36 144.681 26.704 143.785 28.144C142.921 29.552 141.993 30.848 141.001 32.032C139.689 30.912 138.041 29.84 136.057 28.816C134.073 27.792 131.993 27.28 129.817 27.28C128.729 27.28 127.641 27.392 126.553 27.616C125.497 27.84 124.617 28.24 123.913 28.816C123.241 29.392 122.905 30.176 122.905 31.168C122.905 32.128 123.273 32.992 124.009 33.76C124.745 34.496 125.817 35.216 127.225 35.92C128.665 36.624 130.345 37.36 132.265 38.128C134.185 38.896 136.137 39.808 138.121 40.864C140.105 41.888 141.929 43.12 143.593 44.56C145.289 46 146.649 47.68 147.673 49.6C148.697 51.488 149.209 53.664 149.209 56.128C149.209 60.064 148.233 63.344 146.281 65.968C144.329 68.592 141.721 70.544 138.457 71.824C135.225 73.136 131.673 73.792 127.801 73.792Z" fill="black"/>
<path d="M160.789 70.528C160.053 70.656 159.013 70.752 157.669 70.816C156.357 70.88 154.997 70.912 153.589 70.912C151.925 70.912 150.373 70.848 148.933 70.72C147.493 70.624 146.437 70.448 145.765 70.192C146.021 68.272 146.245 65.776 146.437 62.704C146.661 59.6 146.837 56.128 146.965 52.288C147.125 48.448 147.205 44.416 147.205 40.192C147.205 35.872 147.125 31.472 146.965 26.992C146.837 22.512 146.661 18.192 146.437 14.032C146.213 9.83999 146.005 6.01599 145.813 2.55999C146.037 2.46399 146.741 2.31999 147.925 2.12799C149.109 1.93599 150.485 1.74399 152.053 1.55199C153.621 1.32799 155.109 1.13599 156.517 0.975992C157.925 0.815992 158.981 0.735992 159.685 0.735992C160.197 3.13599 160.645 5.99999 161.029 9.32799C161.413 12.656 161.733 16.304 161.989 20.272C162.245 24.208 162.421 28.336 162.517 32.656C163.605 31.44 164.981 30.352 166.645 29.392C168.309 28.4 170.117 27.632 172.069 27.088C174.053 26.512 176.021 26.224 177.973 26.224C181.877 26.224 184.869 26.976 186.949 28.48C189.029 29.952 190.469 32.112 191.269 34.96C192.101 37.776 192.517 41.216 192.517 45.28C192.517 47.84 192.405 50.592 192.181 53.536C191.989 56.48 191.733 59.376 191.413 62.224C191.093 65.072 190.741 67.632 190.357 69.904C189.237 70.064 188.085 70.192 186.901 70.288C185.717 70.384 184.533 70.432 183.349 70.432C182.037 70.432 180.741 70.368 179.461 70.24C178.213 70.144 177.077 70 176.053 69.808C176.277 68.368 176.517 66.672 176.773 64.72C177.029 62.768 177.269 60.768 177.493 58.72C177.717 56.64 177.893 54.672 178.021 52.816C178.181 50.928 178.261 49.328 178.261 48.016C178.261 46.128 178.069 44.528 177.685 43.216C177.333 41.904 176.741 40.912 175.909 40.24C175.109 39.536 174.021 39.184 172.645 39.184C171.461 39.184 170.341 39.408 169.285 39.856C168.229 40.272 167.253 40.816 166.357 41.488C165.493 42.128 164.725 42.8 164.053 43.504C163.381 44.176 162.853 44.768 162.469 45.28C162.469 48.576 162.389 51.872 162.229 55.168C162.069 58.432 161.861 61.408 161.605 64.096C161.349 66.784 161.077 68.928 160.789 70.528Z" fill="black"/>
<path d="M209.466 95.296C204.57 95.296 200.186 94.56 196.314 93.088C192.442 91.616 189.258 90.048 186.762 88.384C187.146 87.328 187.738 85.968 188.538 84.304C189.37 82.672 190.218 81.072 191.082 79.504C191.946 77.968 192.65 76.816 193.194 76.048C194.314 76.784 195.77 77.6 197.562 78.496C199.386 79.392 201.37 80.176 203.514 80.848C205.658 81.52 207.802 81.856 209.946 81.856C212.282 81.856 214.234 81.248 215.802 80.032C217.402 78.816 218.698 77.2 219.69 75.184C220.682 73.168 221.402 70.944 221.85 68.512C222.33 66.08 222.586 63.632 222.618 61.168C221.914 62.384 220.938 63.536 219.69 64.624C218.442 65.68 216.986 66.544 215.322 67.216C213.69 67.856 211.866 68.176 209.85 68.176C204.954 68.176 201.13 66.848 198.378 64.192C195.658 61.504 193.754 57.872 192.666 53.296C191.61 48.72 191.082 43.6 191.082 37.936C191.082 35.728 191.13 33.424 191.226 31.024C191.322 28.624 191.434 26.128 191.562 23.536C192.106 23.376 192.922 23.28 194.01 23.248C195.098 23.184 196.282 23.152 197.562 23.152C199.322 23.152 201.05 23.2 202.746 23.296C204.442 23.392 205.594 23.504 206.202 23.632C206.106 24.176 205.962 25.168 205.77 26.608C205.578 28.048 205.402 29.76 205.242 31.744C205.114 33.728 205.05 35.76 205.05 37.84C205.05 39.856 205.146 41.856 205.338 43.84C205.53 45.792 205.866 47.568 206.346 49.168C206.858 50.768 207.578 52.048 208.506 53.008C209.434 53.968 210.618 54.448 212.058 54.448C214.266 54.448 216.058 53.648 217.434 52.048C218.81 50.448 219.834 48.208 220.506 45.328C221.21 42.448 221.626 39.104 221.754 35.296C221.786 34.08 221.818 32.88 221.85 31.696C221.882 30.48 221.898 29.344 221.898 28.288C221.898 27.232 221.882 26.336 221.85 25.6C221.85 24.832 221.834 24.32 221.802 24.064C222.57 24 223.322 23.952 224.058 23.92C224.794 23.856 225.53 23.824 226.266 23.824C229.21 23.824 232.122 24.144 235.002 24.784C235.162 28.4 235.242 32.528 235.242 37.168C235.242 40.112 235.21 43.264 235.146 46.624C235.082 49.952 234.97 53.36 234.81 56.848C234.682 60.336 234.522 63.824 234.33 67.312C234.042 72.784 232.954 77.616 231.066 81.808C229.21 86.032 226.49 89.328 222.906 91.696C219.322 94.096 214.842 95.296 209.466 95.296Z" fill="black"/>
</svg>
