<svg width="68" height="68" viewBox="0 0 68 68" fill="none" xmlns="http://www.w3.org/2000/svg">
<path d="M10 48C15.5229 48 20 52.4772 20 58C20 63.5228 15.5229 68 10 68C4.47716 68 2.33956e-06 63.5229 2.09815e-06 58C1.85674e-06 52.4772 4.47715 48 10 48Z" fill="#F1B5DD"/>
<path d="M10 24C15.5228 24 20 28.4772 20 34C20 39.5228 15.5229 44 10 44C4.47715 44 1.29048e-06 39.5229 1.04907e-06 34C8.07662e-07 28.4772 4.47715 24 10 24Z" fill="#F1B5DD"/>
<path d="M10 2.09815e-06C15.5228 1.85674e-06 20 4.47716 20 10C20 15.5228 15.5228 20 10 20C4.47715 20 2.41411e-07 15.5228 0 10C-2.41411e-07 4.47716 4.47715 2.33956e-06 10 2.09815e-06Z" fill="#F1B5DD"/>
<path d="M34 24C39.5228 24 44 28.4772 44 34C44 39.5228 39.5228 44 34 44C28.4772 44 24 39.5228 24 34C24 28.4772 28.4772 24 34 24Z" fill="#F1B5DD"/>
<path d="M34 1.04907e-06C39.5228 8.07662e-07 44 4.47715 44 10C44 15.5228 39.5228 20 34 20C28.4772 20 24 15.5228 24 10C24 4.47716 28.4772 1.29049e-06 34 1.04907e-06Z" fill="#F1B5DD"/>
<path d="M58 0C63.5228 -2.41411e-07 68 4.47715 68 10C68 15.5228 63.5228 20 58 20C52.4772 20 48 15.5228 48 10C48 4.47715 52.4772 2.41411e-07 58 0Z" fill="#F1B5DD"/>
</svg>
