<svg width="69" height="68" viewBox="0 0 69 68" fill="none" xmlns="http://www.w3.org/2000/svg">
<path d="M58.0543 20C52.535 20 48.0606 15.5228 48.0606 10C48.0606 4.47715 52.535 6.58593e-08 58.0543 0C63.5737 -6.58593e-08 68.0481 4.47715 68.0481 10C68.0481 15.5228 63.5737 20 58.0543 20Z" fill="#6C0D9B"/>
<path d="M58.0543 44C52.535 44 48.0606 39.5228 48.0606 34C48.0606 28.4772 52.535 24 58.0543 24C63.5737 24 68.0481 28.4772 68.0481 34C68.0481 39.5228 63.5737 44 58.0543 44Z" fill="#6C0D9B"/>
<path d="M58.0543 68C52.535 68 48.0606 63.5228 48.0606 58C48.0606 52.4772 52.535 48 58.0543 48C63.5737 48 68.0481 52.4772 68.0481 58C68.0481 63.5228 63.5737 68 58.0543 68Z" fill="#6C0D9B"/>
<path d="M34.0693 44C28.5499 44 24.0756 39.5228 24.0756 34C24.0756 28.4772 28.5499 24 34.0693 24C39.5887 24 44.0631 28.4772 44.0631 34C44.0631 39.5228 39.5887 44 34.0693 44Z" fill="#6C0D9B"/>
<path d="M34.0693 68C28.5499 68 24.0756 63.5228 24.0756 58C24.0756 52.4772 28.5499 48 34.0693 48C39.5887 48 44.0631 52.4772 44.0631 58C44.0631 63.5228 39.5887 68 34.0693 68Z" fill="#6C0D9B"/>
<path d="M10.0843 68C4.56493 68 0.0905762 63.5228 0.0905762 58C0.0905761 52.4772 4.56493 48 10.0843 48C15.6037 48 20.0781 52.4772 20.0781 58C20.0781 63.5228 15.6037 68 10.0843 68Z" fill="#6C0D9B"/>
</svg>
