<svg width="68" height="68" viewBox="0 0 68 68" fill="none" xmlns="http://www.w3.org/2000/svg">
<path d="M20 10C20 15.5228 15.5228 20 10 20C4.47715 20 0 15.5228 0 10C0 4.47715 4.47715 0 10 0C15.5228 0 20 4.47715 20 10Z" fill="#F1B5DD"/>
<path d="M44 10C44 15.5228 39.5228 20 34 20C28.4772 20 24 15.5228 24 10C24 4.47715 28.4772 0 34 0C39.5228 0 44 4.47715 44 10Z" fill="#F1B5DD"/>
<path d="M68 10C68 15.5228 63.5228 20 58 20C52.4772 20 48 15.5228 48 10C48 4.47715 52.4772 0 58 0C63.5228 0 68 4.47715 68 10Z" fill="#F1B5DD"/>
<path d="M44 34C44 39.5228 39.5228 44 34 44C28.4772 44 24 39.5228 24 34C24 28.4772 28.4772 24 34 24C39.5228 24 44 28.4772 44 34Z" fill="#F1B5DD"/>
<path d="M68 34C68 39.5228 63.5228 44 58 44C52.4772 44 48 39.5228 48 34C48 28.4772 52.4772 24 58 24C63.5228 24 68 28.4772 68 34Z" fill="#F1B5DD"/>
<path d="M68 58C68 63.5228 63.5228 68 58 68C52.4772 68 48 63.5228 48 58C48 52.4772 52.4772 48 58 48C63.5228 48 68 52.4772 68 58Z" fill="#F1B5DD"/>
</svg>
