<svg width="68" height="68" viewBox="0 0 68 68" fill="none" xmlns="http://www.w3.org/2000/svg">
<path d="M20 58C20 52.4772 15.5228 48 10 48C4.47715 48 0 52.4772 0 58C0 63.5228 4.47715 68 10 68C15.5228 68 20 63.5228 20 58Z" fill="#FFD8F2"/>
<path d="M44 58C44 52.4772 39.5228 48 34 48C28.4772 48 24 52.4772 24 58C24 63.5228 28.4772 68 34 68C39.5228 68 44 63.5228 44 58Z" fill="#FFD8F2"/>
<path d="M68 58C68 52.4772 63.5228 48 58 48C52.4772 48 48 52.4772 48 58C48 63.5228 52.4772 68 58 68C63.5228 68 68 63.5228 68 58Z" fill="#FFD8F2"/>
<path d="M44 34C44 28.4772 39.5228 24 34 24C28.4772 24 24 28.4772 24 34C24 39.5228 28.4772 44 34 44C39.5228 44 44 39.5228 44 34Z" fill="#FFD8F2"/>
<path d="M68 34C68 28.4772 63.5228 24 58 24C52.4772 24 48 28.4772 48 34C48 39.5228 52.4772 44 58 44C63.5228 44 68 39.5228 68 34Z" fill="#FFD8F2"/>
<path d="M68 10C68 4.47715 63.5228 0 58 0C52.4772 0 48 4.47715 48 10C48 15.5228 52.4772 20 58 20C63.5228 20 68 15.5228 68 10Z" fill="#FFD8F2"/>
</svg>
