<svg width="68" height="68" viewBox="0 0 68 68" fill="none" xmlns="http://www.w3.org/2000/svg">
<path d="M58 20C52.4772 20 48 15.5228 48 10C48 4.47715 52.4771 2.41411e-07 58 0C63.5228 -2.41411e-07 68 4.47715 68 10C68 15.5228 63.5228 20 58 20Z" fill="#F1B5DD"/>
<path d="M58 44C52.4772 44 48 39.5228 48 34C48 28.4772 52.4772 24 58 24C63.5228 24 68 28.4772 68 34C68 39.5228 63.5228 44 58 44Z" fill="#F1B5DD"/>
<path d="M58 68C52.4772 68 48 63.5228 48 58C48 52.4772 52.4772 48 58 48C63.5228 48 68 52.4772 68 58C68 63.5228 63.5228 68 58 68Z" fill="#F1B5DD"/>
<path d="M34 44C28.4772 44 24 39.5228 24 34C24 28.4772 28.4772 24 34 24C39.5228 24 44 28.4772 44 34C44 39.5228 39.5228 44 34 44Z" fill="#F1B5DD"/>
<path d="M34 68C28.4772 68 24 63.5228 24 58C24 52.4772 28.4772 48 34 48C39.5228 48 44 52.4772 44 58C44 63.5228 39.5228 68 34 68Z" fill="#F1B5DD"/>
<path d="M10 68C4.47715 68 2.41411e-07 63.5229 0 58C-2.41411e-07 52.4772 4.47715 48 10 48C15.5228 48 20 52.4772 20 58C20 63.5228 15.5228 68 10 68Z" fill="#F1B5DD"/>
</svg>
