<svg width="41" height="40" viewBox="0 0 41 40" fill="none" xmlns="http://www.w3.org/2000/svg">
<g clip-path="url(#clip0_45_527)">
<path d="M40.5623 20.1226C40.5623 9.00756 31.6129 -0.00244141 20.5748 -0.00244141C9.53168 5.85939e-05 0.582275 9.00756 0.582275 20.1251C0.582275 30.1676 7.89271 38.4926 17.4467 40.0026V25.9401H12.3749V20.1251H17.4517V15.6876C17.4517 10.6451 20.4374 7.86006 25.002 7.86006C27.1906 7.86006 29.4767 8.25256 29.4767 8.25256V13.2026H26.9558C24.4748 13.2026 23.7003 14.7551 23.7003 16.3476V20.1226H29.2419L28.3574 25.9376H23.6978V40.0001C33.2519 38.4901 40.5623 30.1651 40.5623 20.1226Z" fill="#FFE6F7"/>
</g>
<defs>
<clipPath id="clip0_45_527">
<rect width="39.975" height="40" fill="white" transform="translate(0.587158)"/>
</clipPath>
</defs>
</svg>
