<svg width="41" height="40" viewBox="0 0 41 40" fill="none" xmlns="http://www.w3.org/2000/svg">
<g clip-path="url(#clip0_45_529)">
<path d="M20.6247 0C15.2006 0 14.5185 0.025 12.3874 0.12C10.2562 0.22 8.8046 0.555 7.5329 1.05C6.19897 1.55205 4.99071 2.33957 3.99261 3.3575C2.97594 4.35674 2.18901 5.5656 1.68655 6.9C1.19186 8.17 0.854571 9.625 0.757132 11.75C0.662191 13.8875 0.637207 14.5675 0.637207 20.0025C0.637207 25.4325 0.662191 26.1125 0.757132 28.245C0.85707 30.375 1.19186 31.8275 1.68655 33.1C2.19873 34.415 2.8808 35.53 3.99261 36.6425C5.10192 37.755 6.21622 38.44 7.5304 38.95C8.8046 39.445 10.2537 39.7825 12.3824 39.88C14.516 39.975 15.1956 40 20.6247 40C26.0538 40 26.7309 39.975 28.8646 39.88C30.9907 39.78 32.4473 39.445 33.719 38.95C35.0521 38.4477 36.2595 37.6602 37.2568 36.6425C38.3686 35.53 39.0507 34.415 39.5629 33.1C40.0551 31.8275 40.3924 30.375 40.4923 28.245C40.5872 26.1125 40.6122 25.4325 40.6122 20C40.6122 14.5675 40.5872 13.8875 40.4923 11.7525C40.3924 9.625 40.0551 8.17 39.5629 6.9C39.0605 5.56556 38.2736 4.35669 37.2568 3.3575C36.259 2.33919 35.0507 1.55161 33.7165 1.05C32.4423 0.555 30.9882 0.2175 28.8621 0.12C26.7284 0.025 26.0513 0 20.6197 0H20.6272H20.6247ZM18.8333 3.605H20.6272C25.9639 3.605 26.596 3.6225 28.7022 3.72C30.6509 3.8075 31.7103 4.135 32.4148 4.4075C33.3468 4.77 34.0138 5.205 34.7134 5.905C35.413 6.605 35.8452 7.27 36.2075 8.205C36.4823 8.9075 36.8071 9.9675 36.8945 11.9175C36.992 14.025 37.012 14.6575 37.012 19.995C37.012 25.3325 36.992 25.9675 36.8945 28.075C36.8071 30.025 36.4798 31.0825 36.2075 31.7875C35.887 32.6559 35.3756 33.4411 34.7109 34.085C34.0113 34.785 33.3468 35.2175 32.4123 35.58C31.7128 35.855 30.6534 36.18 28.7022 36.27C26.596 36.365 25.9639 36.3875 20.6272 36.3875C15.2905 36.3875 14.6559 36.365 12.5498 36.27C10.601 36.18 9.54414 35.855 8.83958 35.58C7.97137 35.2598 7.18593 34.7489 6.54102 34.085C5.87581 33.4401 5.36356 32.6541 5.04195 31.785C4.76962 31.0825 4.44233 30.0225 4.35488 28.0725C4.25994 25.965 4.23996 25.3325 4.23996 19.99C4.23996 14.65 4.25994 14.02 4.35488 11.9125C4.44483 9.9625 4.76962 8.9025 5.04445 8.1975C5.40673 7.265 5.84145 6.5975 6.54102 5.8975C7.24058 5.1975 7.90516 4.765 8.83958 4.4025C9.54414 4.1275 10.601 3.8025 12.5498 3.7125C14.3936 3.6275 15.1082 3.6025 18.8333 3.6V3.605V3.605ZM31.2955 6.925C30.9806 6.925 30.6687 6.98708 30.3777 7.10769C30.0867 7.2283 29.8223 7.40508 29.5995 7.62794C29.3768 7.8508 29.2002 8.11538 29.0796 8.40656C28.9591 8.69774 28.897 9.00983 28.897 9.325C28.897 9.64017 28.9591 9.95226 29.0796 10.2434C29.2002 10.5346 29.3768 10.7992 29.5995 11.0221C29.8223 11.2449 30.0867 11.4217 30.3777 11.5423C30.6687 11.6629 30.9806 11.725 31.2955 11.725C31.9317 11.725 32.5417 11.4721 32.9915 11.0221C33.4413 10.572 33.694 9.96152 33.694 9.325C33.694 8.68848 33.4413 8.07803 32.9915 7.62794C32.5417 7.17786 31.9317 6.925 31.2955 6.925V6.925ZM20.6272 9.73C19.2657 9.70875 17.9136 9.95871 16.6496 10.4654C15.3856 10.972 14.235 11.7252 13.2647 12.6811C12.2944 13.6369 11.5238 14.7764 10.9978 16.0331C10.4719 17.2899 10.201 18.6388 10.201 20.0012C10.201 21.3637 10.4719 22.7126 10.9978 23.9693C11.5238 25.2261 12.2944 26.3656 13.2647 27.3214C14.235 28.2773 15.3856 29.0305 16.6496 29.5371C17.9136 30.0438 19.2657 30.2938 20.6272 30.2725C23.3219 30.2304 25.892 29.1298 27.7827 27.2081C29.6734 25.2865 30.7331 22.6979 30.7331 20.0012C30.7331 17.3046 29.6734 14.716 27.7827 12.7944C25.892 10.8727 23.3219 9.77207 20.6272 9.73V9.73ZM20.6272 13.3325C22.3944 13.3325 24.0893 14.035 25.3389 15.2854C26.5885 16.5358 27.2905 18.2317 27.2905 20C27.2905 21.7683 26.5885 23.4642 25.3389 24.7146C24.0893 25.965 22.3944 26.6675 20.6272 26.6675C18.86 26.6675 17.1651 25.965 15.9155 24.7146C14.6659 23.4642 13.9639 21.7683 13.9639 20C13.9639 18.2317 14.6659 16.5358 15.9155 15.2854C17.1651 14.035 18.86 13.3325 20.6272 13.3325V13.3325Z" fill="#FFE6F7"/>
</g>
<defs>
<clipPath id="clip0_45_529">
<rect width="39.975" height="40" fill="white" transform="translate(0.637207)"/>
</clipPath>
</defs>
</svg>
