<svg width="101" height="40" viewBox="0 0 101 40" fill="none" xmlns="http://www.w3.org/2000/svg">
<path d="M0.862061 29.4822C0.862061 29.1438 0.86887 28.5008 0.882488 27.5533C0.896106 26.6058 0.916533 25.4552 0.943769 24.1015C0.971006 22.7479 1.00505 21.286 1.04591 19.7157C1.10038 18.1455 1.14804 16.555 1.1889 14.9442C1.24337 13.3333 1.29784 11.797 1.35231 10.335C1.40679 8.85956 1.46807 7.56007 1.53616 6.43655C1.60425 5.29949 1.66553 4.43316 1.72 3.83756C2.94564 3.59391 4.22574 3.41117 5.56032 3.28934C6.90851 3.16751 8.31799 3.1066 9.78875 3.1066C11.5863 3.1066 13.1592 3.35702 14.5074 3.85787C15.8692 4.35871 16.9247 5.14382 17.6736 6.2132C18.4363 7.28257 18.8176 8.66328 18.8176 10.3553C18.8176 12.0745 18.5044 13.5635 17.8779 14.8223C17.2651 16.0812 16.3255 17.0491 15.059 17.7259C13.8061 18.4027 12.2264 18.7411 10.3199 18.7411C9.93855 18.7411 9.48234 18.714 8.95123 18.6599C8.43374 18.5922 8.03201 18.5178 7.74603 18.4365C7.73241 18.802 7.71198 19.4518 7.68475 20.3858C7.67113 21.3198 7.64389 22.3621 7.60304 23.5127C7.5758 24.6633 7.54857 25.7936 7.52133 26.9036C7.49409 28.0135 7.48047 28.9272 7.48047 29.6447C7.15364 29.6447 6.69743 29.6447 6.11185 29.6447C5.52627 29.6447 4.89303 29.6311 4.21212 29.6041C3.54483 29.5905 2.91159 29.5702 2.31239 29.5431C1.71319 29.5296 1.22975 29.5093 0.862061 29.4822ZM7.62347 13.1574C7.90945 13.2115 8.23628 13.2589 8.60397 13.2995C8.98528 13.3266 9.35297 13.3401 9.70704 13.3401C10.3607 13.3401 10.9667 13.2386 11.5251 13.0355C12.0834 12.819 12.5328 12.4941 12.8733 12.0609C13.2137 11.6142 13.3839 11.0457 13.3839 10.3553C13.3839 9.35364 13.0911 8.67682 12.5056 8.32487C11.92 7.95939 11.1369 7.77665 10.1564 7.77665C9.77513 7.77665 9.37339 7.79695 8.95123 7.83756C8.52907 7.86464 8.08648 7.90525 7.62347 7.95939C7.62347 8.04061 7.62347 8.24365 7.62347 8.56853C7.62347 8.8934 7.62347 9.28596 7.62347 9.74619C7.62347 10.1929 7.62347 10.6464 7.62347 11.1066C7.62347 11.5668 7.62347 11.9865 7.62347 12.3655C7.62347 12.7445 7.62347 13.0085 7.62347 13.1574Z" fill="#FFE6F7"/>
<path d="M29.1694 28.3452C28.7881 28.7513 28.0731 29.1438 27.0245 29.5228C25.9895 29.9154 24.832 30.1117 23.5519 30.1117C21.8905 30.1117 20.624 29.7259 19.7524 28.9543C18.8945 28.1827 18.3157 27.0931 18.0161 25.6853C17.7165 24.264 17.5667 22.6125 17.5667 20.731C17.5667 19.2555 17.5803 17.7733 17.6076 16.2843C17.6348 14.7953 17.6689 13.3198 17.7097 11.8579C17.7642 10.3959 17.8187 8.98139 17.8731 7.61421C17.9412 6.2335 18.0025 4.92724 18.057 3.69543C18.1251 2.45009 18.1932 1.31303 18.2612 0.284265C19.2281 0.216583 20.1201 0.182742 20.9372 0.182742C21.4683 0.182742 21.9926 0.196279 22.5101 0.223351C23.0276 0.250423 23.5996 0.291032 24.226 0.345177C24.1579 1.52284 24.0762 2.8291 23.9809 4.26396C23.8992 5.68528 23.8175 7.14044 23.7357 8.62944C23.6677 10.1184 23.5996 11.5601 23.5315 12.9543C23.4634 14.3486 23.4089 15.6142 23.3681 16.7513C23.3408 17.8748 23.3272 18.775 23.3272 19.4518C23.3272 20.3316 23.3612 21.1506 23.4293 21.9086C23.511 22.6531 23.6881 23.2623 23.9604 23.736C24.2328 24.1963 24.6413 24.4264 25.1861 24.4264C25.6491 24.4264 26.0236 24.3249 26.3096 24.1218C26.6092 23.9052 26.8543 23.6345 27.0449 23.3096C27.1403 23.4721 27.2901 23.797 27.4943 24.2843C27.6986 24.758 27.9233 25.286 28.1684 25.868C28.4136 26.4501 28.6315 26.978 28.8221 27.4518C29.0128 27.912 29.1285 28.2098 29.1694 28.3452Z" fill="#FFE6F7"/>
<path d="M40.0271 9.44162C40.3675 9.3198 40.851 9.23181 41.4774 9.17766C42.1175 9.10998 42.7371 9.07614 43.3363 9.07614C43.8402 9.07614 44.3985 9.09645 45.0113 9.13706C45.6241 9.17766 46.1212 9.22504 46.5025 9.27919C46.6795 10.3756 46.8157 11.4856 46.911 12.6091C47.0064 13.7191 47.054 14.8156 47.054 15.8985C47.054 17.8883 46.877 19.7631 46.5229 21.5228C46.1825 23.2826 45.6173 24.8325 44.8275 26.1726C44.0376 27.5127 42.9822 28.5618 41.6612 29.3198C40.3403 30.0914 38.7129 30.4772 36.7791 30.4772C34.7228 30.4772 33.0274 30.0778 31.6928 29.2792C30.3582 28.467 29.3164 27.3435 28.5674 25.9086C27.8184 24.4602 27.2941 22.775 26.9945 20.8528C26.7085 18.9171 26.5655 16.8325 26.5655 14.599C26.5655 13.6108 26.586 12.6091 26.6268 11.5939C26.6813 10.5651 26.7494 9.54315 26.8311 8.52792C27.1852 8.50085 27.6482 8.48054 28.2201 8.46701C28.8057 8.43993 29.3368 8.43316 29.8135 8.4467C30.4944 8.4467 31.1753 8.48731 31.8562 8.56853C32.5507 8.63621 33.0954 8.73096 33.4904 8.85279C33.395 9.77326 33.3133 10.7682 33.2452 11.8376C33.1772 12.8934 33.1431 13.956 33.1431 15.0254C33.1431 16.8122 33.2589 18.423 33.4904 19.8579C33.7355 21.2927 34.1372 22.4298 34.6956 23.269C35.2539 24.1083 36.0097 24.5279 36.963 24.5279C37.8618 24.5279 38.5767 24.1489 39.1078 23.3909C39.6526 22.6328 40.0407 21.6176 40.2722 20.3452C40.5173 19.0592 40.6399 17.6244 40.6399 16.0406C40.6399 14.8494 40.5786 13.6785 40.456 12.5279C40.3471 11.3638 40.2041 10.335 40.0271 9.44162Z" fill="#FFE6F7"/>
<path d="M55.0765 30.9036C53.4832 30.9036 52.0192 30.7073 50.6846 30.3147C49.3637 29.9357 48.2402 29.489 47.3142 28.9746C46.4017 28.4467 45.7413 27.9729 45.3327 27.5533C45.4144 27.2961 45.571 26.9239 45.8025 26.4365C46.0477 25.9357 46.3337 25.3942 46.6605 24.8122C46.9873 24.2301 47.3142 23.6887 47.641 23.1878C47.9678 22.687 48.2606 22.3147 48.5194 22.0711C49.173 22.6261 49.8812 23.1743 50.6438 23.7157C51.4064 24.2437 52.1894 24.6768 52.9929 25.0152C53.7964 25.3536 54.5454 25.5228 55.2399 25.5228C55.7846 25.5228 56.2749 25.4552 56.7107 25.3198C57.1465 25.1709 57.4869 24.9543 57.732 24.67C57.9908 24.3858 58.1202 24.0338 58.1202 23.6142C58.1202 23.1269 57.8818 22.6599 57.4052 22.2132C56.9422 21.753 56.343 21.3198 55.6076 20.9137C54.8722 20.5076 54.1028 20.1421 53.2993 19.8173C52.1963 19.3706 51.1681 18.8494 50.2148 18.2538C49.2616 17.6447 48.4921 16.9002 47.9065 16.0203C47.321 15.1269 47.0282 14.0169 47.0282 12.6904C47.0282 11.3367 47.4299 10.1997 48.2334 9.27919C49.0369 8.35871 50.0854 7.66159 51.3792 7.18782C52.6865 6.71404 54.0824 6.47716 55.5667 6.47716C56.9694 6.47716 58.3925 6.67343 59.836 7.06599C61.2796 7.44501 62.4575 7.99323 63.3699 8.71066C63.2882 8.96785 63.1112 9.36041 62.8388 9.88833C62.5801 10.4162 62.2601 10.9848 61.8788 11.5939C61.5111 12.1895 61.1161 12.7377 60.694 13.2386C60.1356 12.7648 59.4343 12.3113 58.59 11.8782C57.7456 11.445 56.8605 11.2284 55.9344 11.2284C55.4714 11.2284 55.0084 11.2758 54.5454 11.3706C54.096 11.4653 53.7215 11.6345 53.4219 11.8782C53.1359 12.1218 52.9929 12.4535 52.9929 12.8731C52.9929 13.2792 53.1495 13.6447 53.4627 13.9695C53.776 14.2809 54.2322 14.5854 54.8314 14.8832C55.4442 15.181 56.1591 15.4924 56.9762 15.8173C57.7933 16.1421 58.624 16.5279 59.4683 16.9746C60.3127 17.4078 61.0889 17.9289 61.797 18.5381C62.5188 19.1472 63.0976 19.8579 63.5334 20.67C63.9691 21.4687 64.187 22.3892 64.187 23.4315C64.187 25.0964 63.7717 26.4839 62.941 27.5939C62.1103 28.7039 61.0004 29.5296 59.6113 30.0711C58.2359 30.6261 56.7243 30.9036 55.0765 30.9036Z" fill="#FFE6F7"/>
<path d="M69.1148 29.5228C68.8016 29.577 68.359 29.6176 67.787 29.6447C67.2287 29.6717 66.6499 29.6853 66.0507 29.6853C65.3426 29.6853 64.6821 29.6582 64.0693 29.6041C63.4564 29.5634 63.007 29.489 62.7211 29.3807C62.83 28.5685 62.9253 27.5127 63.007 26.2132C63.1024 24.9002 63.1773 23.4315 63.2317 21.8071C63.2998 20.1827 63.3339 18.4772 63.3339 16.6904C63.3339 14.8629 63.2998 13.0017 63.2317 11.1066C63.1773 9.21151 63.1024 7.3841 63.007 5.62437C62.9117 3.8511 62.8232 2.2335 62.7415 0.771573C62.8368 0.730964 63.1364 0.670051 63.6403 0.588833C64.1442 0.507614 64.7297 0.426396 65.397 0.345177C66.0643 0.250423 66.6976 0.169205 67.2968 0.101523C67.896 0.0338409 68.3454 0 68.645 0C68.8628 1.01523 69.0535 2.22673 69.2169 3.63452C69.3803 5.0423 69.5165 6.58545 69.6255 8.26396C69.7344 9.92893 69.8093 11.6751 69.8502 13.5025C70.3132 12.9882 70.8988 12.5279 71.6069 12.1218C72.315 11.7022 73.0845 11.3773 73.9152 11.1472C74.7595 10.9036 75.597 10.7817 76.4277 10.7817C78.0891 10.7817 79.3624 11.0998 80.2476 11.736C81.1328 12.3587 81.7456 13.2724 82.0861 14.4772C82.4401 15.6684 82.6172 17.1235 82.6172 18.8426C82.6172 19.9256 82.5695 21.0897 82.4742 22.335C82.3925 23.5804 82.2835 24.8054 82.1473 26.0102C82.0112 27.2149 81.8614 28.2978 81.6979 29.2589C81.2213 29.3266 80.731 29.3807 80.2272 29.4213C79.7233 29.4619 79.2194 29.4822 78.7156 29.4822C78.1572 29.4822 77.6057 29.4552 77.061 29.401C76.5299 29.3604 76.0464 29.2995 75.6106 29.2183C75.706 28.6091 75.8081 27.8917 75.917 27.066C76.026 26.2403 76.1281 25.3942 76.2234 24.5279C76.3188 23.6481 76.3937 22.8156 76.4481 22.0305C76.5162 21.2318 76.5503 20.555 76.5503 20C76.5503 19.2014 76.4686 18.5245 76.3052 17.9695C76.1554 17.4146 75.9034 16.9949 75.5493 16.7107C75.2089 16.4129 74.7459 16.264 74.1603 16.264C73.6564 16.264 73.1798 16.3587 72.7304 16.5482C72.281 16.7242 71.8656 16.9543 71.4843 17.2386C71.1166 17.5093 70.7898 17.7936 70.5038 18.0914C70.2178 18.3756 69.9931 18.6261 69.8297 18.8426C69.8297 20.2369 69.7957 21.6311 69.7276 23.0254C69.6595 24.4061 69.571 25.665 69.462 26.802C69.3531 27.9391 69.2373 28.846 69.1148 29.5228Z" fill="#FFE6F7"/>
<path d="M89.8302 40C87.7466 40 85.8809 39.6887 84.2331 39.066C82.5853 38.4433 81.2303 37.78 80.1681 37.0761C80.3315 36.6294 80.5835 36.0541 80.9239 35.3503C81.278 34.6599 81.6389 33.9831 82.0066 33.3198C82.3743 32.6701 82.6739 32.1827 82.9054 31.8579C83.382 32.1692 84.0016 32.5144 84.7642 32.8934C85.5405 33.2724 86.3848 33.6041 87.2972 33.8883C88.2096 34.1726 89.122 34.3147 90.0345 34.3147C91.0286 34.3147 91.8593 34.0575 92.5266 33.5431C93.2075 33.0288 93.759 32.3452 94.1812 31.4924C94.6033 30.6396 94.9098 29.6988 95.1004 28.67C95.3047 27.6413 95.4136 26.6058 95.4272 25.5635C95.1276 26.0778 94.7123 26.5651 94.1812 27.0254C93.6501 27.4721 93.0305 27.8376 92.3223 28.1218C91.6278 28.3926 90.8516 28.5279 89.9936 28.5279C87.91 28.5279 86.2827 27.9662 85.1115 26.8426C83.954 25.7056 83.1437 24.1692 82.6807 22.2335C82.2313 20.2978 82.0066 18.132 82.0066 15.736C82.0066 14.802 82.027 13.8274 82.0678 12.8122C82.1087 11.797 82.1564 10.7411 82.2108 9.64467C82.4424 9.57699 82.7896 9.53638 83.2526 9.52284C83.7157 9.49577 84.2195 9.48223 84.7642 9.48223C85.5132 9.48223 86.2486 9.50254 86.9704 9.54315C87.6921 9.58376 88.1824 9.63113 88.4411 9.68528C88.4003 9.9154 88.339 10.335 88.2573 10.9442C88.1756 11.5533 88.1007 12.2775 88.0326 13.1168C87.9781 13.956 87.9509 14.8156 87.9509 15.6954C87.9509 16.5482 87.9917 17.3942 88.0734 18.2335C88.1552 19.0592 88.2981 19.8105 88.5024 20.4873C88.7203 21.1641 89.0267 21.7056 89.4216 22.1117C89.8166 22.5178 90.3204 22.7208 90.9333 22.7208C91.8729 22.7208 92.6355 22.3824 93.2211 21.7056C93.8067 21.0288 94.2425 20.0812 94.5285 18.8629C94.828 17.6447 95.0051 16.2301 95.0596 14.6193C95.0732 14.1049 95.0868 13.5973 95.1004 13.0964C95.114 12.5821 95.1208 12.1015 95.1208 11.6548C95.1208 11.2081 95.114 10.8291 95.1004 10.5178C95.1004 10.1929 95.0936 9.97631 95.08 9.86802C95.4068 9.84095 95.7268 9.82064 96.0401 9.80711C96.3533 9.78003 96.6665 9.7665 96.9797 9.7665C98.2326 9.7665 99.4718 9.90186 100.697 10.1726C100.766 11.7022 100.8 13.4484 100.8 15.4112C100.8 16.6565 100.786 17.9898 100.759 19.4112C100.732 20.819 100.684 22.2606 100.616 23.736C100.561 25.2115 100.493 26.687 100.411 28.1624C100.289 30.4772 99.8259 32.5211 99.0224 34.2944C98.2326 36.0812 97.075 37.4755 95.5498 38.4772C94.0246 39.4924 92.118 40 89.8302 40Z" fill="#FFE6F7"/>
</svg>
