<svg width="41" height="40" viewBox="0 0 41 40" fill="none" xmlns="http://www.w3.org/2000/svg">
<g clip-path="url(#clip0_45_531)">
<path d="M13.0945 37.4998C28.1801 37.4998 36.4324 24.9923 36.4324 14.1648C36.4324 13.8148 36.4324 13.4598 36.4174 13.1098C38.0241 11.946 39.4107 10.5052 40.5124 8.85478C39.0116 9.51691 37.4212 9.95329 35.7928 10.1498C37.5081 9.12387 38.7927 7.5097 39.4081 5.60728C37.7965 6.56259 36.0327 7.23321 34.1938 7.58978C32.9575 6.27234 31.3216 5.39957 29.5394 5.10667C27.7573 4.81377 25.9283 5.11708 24.3358 5.96962C22.7434 6.82216 21.4763 8.17635 20.7309 9.82243C19.9854 11.4685 19.8033 13.3146 20.2126 15.0748C16.9514 14.9112 13.7611 14.0635 10.8485 12.5866C7.9359 11.1098 5.36605 9.03689 3.30562 6.50228C2.25963 8.30999 1.94041 10.4483 2.4128 12.4829C2.88518 14.5176 4.11376 16.2961 5.84903 17.4573C4.5487 17.4131 3.27694 17.0637 2.13635 16.4373V16.5498C2.1386 18.4435 2.79421 20.2783 3.99238 21.7442C5.19055 23.21 6.85777 24.217 8.71224 24.5948C8.00834 24.7888 7.28121 24.8855 6.55109 24.8823C6.03638 24.8838 5.52269 24.8361 5.01705 24.7398C5.54119 26.3699 6.56177 27.7952 7.93585 28.816C9.30992 29.8368 10.9687 30.4019 12.6798 30.4323C9.77297 32.7168 6.18233 33.9558 2.48614 33.9498C1.83484 33.9525 1.18401 33.915 0.537354 33.8373C4.2888 36.2304 8.64553 37.5012 13.0945 37.4998V37.4998Z" fill="#FFE6F7"/>
</g>
<defs>
<clipPath id="clip0_45_531">
<rect width="39.975" height="40" fill="white" transform="translate(0.537354)"/>
</clipPath>
</defs>
</svg>
