<svg width="700.000000pt" height="500.000000pt" viewBox="0 0 700.000000 500.000000" xmlns="http://www.w3.org/2000/svg">
  <g transform="translate(0.000000,500.000000) scale(0.100000,-0.100000)" fill="#e489e4" stroke="none">
    <path d="M4475 4924 c-98 -9 -192 -28 -257 -50 -82 -28 -141 -30 -218 -9 -182
50 -499 65 -650 31 -104 -24 -381 -45 -455 -36 -209 28 -493 1 -687 -64 -75
-25 -145 -46 -155 -46 -82 0 -373 -117 -461 -185 -42 -33 -42 -33 -107 10
-189 124 -477 126 -662 6 -126 -83 -225 -222 -253 -358 -15 -71 -8 -242 12
-297 14 -39 14 -39 -28 -78 -59 -55 -100 -122 -134 -220 -15 -46 -40 -112 -55
-147 -15 -35 -35 -103 -45 -150 -10 -47 -32 -119 -49 -160 -74 -175 -125 -381
-137 -551 -3 -52 -15 -131 -25 -175 -26 -111 -24 -206 8 -362 30 -148 50 -174
71 -91 30 117 167 350 262 443 59 58 60 65 19 117 -72 90 -42 219 65 279 104
59 259 -29 259 -148 0 -41 0 -41 92 -40 91 1 91 1 108 95 31 168 126 422 159
422 27 0 159 94 219 157 112 116 205 274 216 363 6 52 33 80 179 184 62 44 61
44 69 4 20 -90 161 -171 300 -172 129 0 200 48 314 216 75 110 58 103 265 103
179 0 182 0 269 32 156 57 255 136 328 262 34 60 34 60 197 61 225 0 425 -22
680 -76 68 -15 72 -17 72 -43 0 -107 98 -279 219 -384 183 -159 511 -184 684
-52 44 34 44 34 138 -42 210 -169 373 -360 494 -577 38 -67 38 -69 14 -63 -75
21 -170 28 -235 18 -37 -6 -68 -9 -69 -8 0 1 -9 36 -19 77 -35 143 -171 411
-233 460 -61 48 -123 11 -143 -86 -27 -127 18 -451 88 -634 8 -21 3 -34 -33
-85 -186 -262 -263 -693 -192 -1079 1 -5 -13 -13 -32 -18 -18 -5 -53 -26 -78
-46 -119 -100 -110 -312 12 -312 11 0 15 -12 15 -44 0 -113 167 -168 257 -84
21 20 21 20 86 -46 71 -73 73 -70 -128 -203 -147 -97 -208 -124 -235 -103 -14
11 -63 36 -110 57 -85 38 -85 38 -230 37 -192 -1 -306 -44 -398 -149 -29 -32
-32 -33 -119 -36 -137 -6 -219 -77 -231 -199 -5 -54 -22 -60 -178 -60 -72 0
-72 0 -79 37 -55 294 -496 343 -616 69 -23 -53 -25 -54 -59 -49 -66 10 -299
73 -397 107 -162 57 -178 63 -176 74 15 68 15 92 -1 92 -9 0 -16 -8 -16 -18 0
-175 -258 -333 -568 -349 -114 -6 -114 -6 -98 30 32 77 74 247 85 338 21 192
21 199 5 206 -22 8 -34 -14 -34 -61 0 -119 -70 -363 -157 -549 -42 -89 -48
-76 70 -149 131 -82 241 -109 422 -107 111 2 149 -1 185 -15 147 -55 566 -141
845 -173 228 -26 804 -26 1025 0 329 38 623 102 902 193 137 45 137 45 195 -2
140 -114 287 -158 538 -158 332 0 571 113 671 319 39 81 43 240 7 318 -22 47
-22 47 29 73 72 37 162 126 195 193 38 77 41 238 6 314 -22 48 -22 48 43 147
302 461 375 1018 204 1570 -16 52 -34 113 -39 135 -13 49 -197 347 -285 460
-22 28 -34 58 -42 105 -21 123 -60 194 -228 419 -113 150 -302 236 -548 248
-127 6 -127 6 -164 69 -68 117 -178 218 -319 292 -92 49 -269 123 -327 138
-61 15 -315 27 -403 18z m805 -1514 c80 -136 117 -277 101 -381 -19 -117 -44
-97 -62 52 -6 51 -26 155 -45 232 -45 184 -45 185 6 97z m968 -36 c2 -14 -12
-39 -38 -69 -22 -25 -67 -82 -101 -126 -33 -43 -63 -79 -67 -79 -4 0 -27 -25
-52 -55 -24 -29 -46 -53 -47 -51 -9 9 66 177 107 239 86 131 189 204 198 141z
m-700 -646 c17 -17 15 -38 -5 -60 -24 -26 -61 -23 -75 7 -20 45 45 88 80 53z
m257 -28 c22 -24 -1 -70 -35 -70 -31 0 -45 36 -25 66 19 29 36 30 60 4z m-137
-193 c4 -20 -25 -34 -40 -19 -15 15 -1 44 19 40 10 -2 19 -11 21 -21z m-152
-176 c50 -23 99 -2 117 49 3 11 8 8 15 -11 18 -45 99 -63 135 -31 23 19 16 1
-11 -30 -20 -24 -80 -23 -112 2 -30 24 -44 25 -74 4 -46 -30 -128 31 -125 93
0 10 7 0 15 -23 9 -26 24 -45 40 -53z m179 -401 c16 0 25 -22 25 -63 0 -116
135 -164 254 -92 32 19 53 28 45 19 -83 -100 -251 -95 -302 9 -22 45 -37 47
-59 7 -52 -92 -219 -90 -297 4 -8 9 13 0 45 -19 146 -88 264 -17 250 150 -5
70 -5 70 10 28 9 -24 22 -43 29 -43z" />
    <path d="M3430 3650 c-22 -22 -25 -42 -10 -70 21 -39 100 -32 100 10 0 24 -18
26 -34 5 -10 -14 -14 -14 -31 -1 -19 14 -19 16 -3 32 14 14 21 16 30 6 17 -17
38 -15 38 3 0 14 -37 35 -61 35 -5 0 -18 -9 -29 -20z" />
    <path d="M2706 3609 c-64 -76 -16 -179 84 -179 81 0 126 65 100 144 -24 72
-135 94 -184 35z m135 -35 c22 -23 22 -27 9 -51 -31 -55 -95 -56 -114 -1 -23
65 56 104 105 52z" />
    <path d="M4125 3504 c-27 -29 -33 -64 -12 -64 6 0 20 14 29 30 22 39 68 41
104 5 30 -30 44 -32 44 -6 0 59 -120 83 -165 35z" />
    <path d="M4100 3409 c0 -33 58 -79 100 -79 21 0 9 30 -15 36 -14 3 -34 17 -44
30 -20 25 -41 32 -41 13z" />
    <path d="M4255 3401 c-3 -11 -12 -22 -20 -25 -18 -7 -20 -36 -2 -36 17 0 57
45 57 64 0 22 -27 20 -35 -3z" />
    <path d="M4548 3093 c-10 -2 -18 -11 -18 -19 0 -8 -6 -14 -14 -14 -13 0 -26
-20 -26 -41 0 -20 30 -7 36 15 12 51 102 40 119 -14 8 -24 -15 -80 -32 -80 -7
0 -13 -7 -13 -15 0 -8 7 -15 15 -15 8 0 15 6 15 14 0 7 9 16 19 19 13 3 22 17
26 40 14 74 -51 130 -127 110z" />
    <path d="M4490 2975 c0 -23 46 -65 70 -65 11 0 20 7 20 15 0 8 -6 15 -14 15
-8 0 -23 11 -34 25 -22 28 -42 33 -42 10z" />
    <path d="M2140 2915 c0 -8 6 -15 14 -15 18 0 28 -38 15 -62 -18 -33 -69 -9
-69 33 0 10 -7 19 -15 19 -21 0 -19 -42 3 -68 46 -52 122 -31 122 34 0 27 -5
37 -20 41 -11 3 -20 12 -20 19 0 8 -7 14 -15 14 -8 0 -15 -7 -15 -15z" />
    <path d="M1278 2783 c-40 -10 -17 -30 35 -29 28 0 62 -4 75 -8 16 -6 22 -5 22
7 0 26 -78 44 -132 30z" />
    <path d="M1207 2742 c-10 -10 -17 -23 -17 -29 0 -6 -4 -13 -9 -15 -18 -6 -25
-58 -8 -58 8 0 18 12 21 27 4 14 18 35 32 45 26 21 32 48 11 48 -8 0 -21 -8
-30 -18z" />
    <path d="M4120 2745 c0 -8 -4 -15 -10 -15 -5 0 -10 -13 -10 -30 0 -20 5 -30
15 -30 10 0 15 10 15 30 0 17 5 30 10 30 6 0 10 7 10 15 0 8 -7 15 -15 15 -8
0 -15 -7 -15 -15z" />
    <path d="M4160 2746 c0 -8 5 -18 10 -21 19 -12 12 -55 -10 -55 -11 0 -20 -7
-20 -15 0 -8 9 -15 20 -15 11 0 20 7 20 15 0 8 7 15 15 15 18 0 20 41 5 71
-12 22 -40 26 -40 5z" />
    <path d="M560 2743 c-74 -26 -38 -143 45 -143 48 0 75 29 75 79 0 61 -52 89
-120 64z" />
    <path d="M1430 2705 c0 -8 7 -15 15 -15 8 0 15 7 15 15 0 8 -7 15 -15 15 -8 0
-15 -7 -15 -15z" />
    <path d="M1454 2658 c3 -13 6 -31 6 -40 0 -10 7 -18 15 -18 8 0 15 8 15 18 0
34 -13 62 -27 62 -11 0 -14 -6 -9 -22z" />
    <path d="M990 2646 c0 -8 15 -17 35 -20 20 -4 56 -16 81 -27 54 -22 74 -24 74
-5 0 8 -32 24 -80 40 -90 30 -110 32 -110 12z" />
    <path d="M1286 2628 c-19 -27 -21 -89 -4 -106 22 -22 95 -15 112 10 38 54 8
118 -54 118 -29 0 -43 -6 -54 -22z" />
    <path d="M4696 2547 c-37 -37 -37 -107 0 -136 39 -31 97 -28 123 5 25 31 27
64 6 64 -8 0 -15 -6 -15 -13 0 -41 -59 -58 -90 -27 -34 34 -11 100 35 100 9 0
27 -11 41 -25 28 -28 44 -32 44 -11 0 56 -101 86 -144 43z" />
    <path d="M1460 2536 c0 -38 -22 -88 -48 -111 -17 -14 -23 -28 -19 -38 11 -28
32 -19 47 18 8 19 17 35 21 35 10 0 29 66 29 98 0 13 -6 22 -15 22 -9 0 -15
-9 -15 -24z" />
    <path d="M1430 2345 c0 -9 7 -18 15 -21 8 -4 15 -12 15 -19 0 -7 3 -15 8 -17
4 -1 18 -27 31 -55 21 -46 51 -71 51 -43 0 16 -43 100 -52 100 -4 0 -8 7 -8
15 0 8 -4 15 -9 15 -5 0 -11 9 -14 20 -6 23 -37 27 -37 5z" />
    <path d="M742 2250 c-37 -16 -24 -43 29 -60 46 -16 46 -16 22 -33 -34 -26 -31
-67 5 -67 74 0 195 66 190 104 -7 46 -177 85 -246 56z" />
    <path d="M1227 2192 c-39 -43 -9 -122 46 -122 48 0 89 94 55 128 -19 19 -82
15 -101 -6z" />
    <path d="M1560 2127 c0 -7 24 -25 53 -40 28 -15 60 -32 69 -39 20 -14 33 -6
25 16 -6 15 -116 76 -137 76 -5 0 -10 -6 -10 -13z" />
    <path d="M1752 1984 c2 -11 11 -20 22 -22 13 -3 17 1 14 14 -2 11 -11 20 -22
22 -13 3 -17 -1 -14 -14z" />
    <path d="M1560 1978 c-86 -45 -60 -171 35 -171 66 0 90 27 81 97 -8 73 -58
104 -116 74z" />
    <path d="M1790 1935 c0 -8 5 -15 10 -15 6 0 10 -7 10 -15 0 -8 7 -15 15 -15 8
0 15 7 15 15 0 8 -4 15 -10 15 -5 0 -10 7 -10 15 0 8 -7 15 -15 15 -8 0 -15
-7 -15 -15z" />
    <path d="M1840 1845 c0 -8 7 -15 15 -15 8 0 15 7 15 15 0 8 -7 15 -15 15 -8 0
-15 -7 -15 -15z" />
    <path d="M1850 1790 c0 -20 5 -30 15 -30 10 0 15 10 15 30 0 20 -5 30 -15 30
-10 0 -15 -10 -15 -30z" />
    <path d="M1507 1753 c-4 -3 -7 -22 -7 -40 0 -56 -122 -163 -187 -163 -33 0
-83 44 -100 88 -32 85 -81 32 -54 -59 22 -75 102 -119 213 -119 64 0 106 27
149 97 25 40 39 31 39 -25 0 -43 36 -112 58 -112 9 0 28 17 42 37 50 73 22
201 -51 239 -17 8 -34 26 -39 39 -9 24 -47 35 -63 18z" />
    <path d="M1850 1608 c0 -38 -55 -140 -99 -185 -44 -45 -61 -123 -26 -123 10 0
15 11 15 35 0 28 8 43 39 73 68 63 129 222 86 222 -9 0 -15 -9 -15 -22z" />
    <path d="M550 1467 c0 -7 18 -37 41 -67 169 -225 238 -491 199 -764 -13 -86
-32 -120 -96 -169 -90 -69 -126 -70 -223 -7 -97 63 -116 52 -56 -30 82 -112
232 -118 353 -15 112 97 128 454 31 718 -62 169 -249 420 -249 334z" />
    <path d="M1790 1305 c0 -8 9 -15 20 -15 11 0 20 7 20 15 0 8 -9 15 -20 15 -11
0 -20 -7 -20 -15z" />
    <path d="M1840 1295 c0 -8 9 -15 20 -15 11 0 20 7 20 15 0 8 -9 15 -20 15 -11
0 -20 -7 -20 -15z" />
    <path d="M1890 1286 c0 -8 12 -17 28 -20 39 -10 184 -78 202 -96 9 -8 32 -29
51 -46 20 -17 47 -54 60 -82 23 -49 49 -69 49 -37 0 22 -39 95 -50 95 -6 0
-10 6 -10 14 0 17 -78 86 -96 86 -7 0 -14 4 -16 9 -7 18 -174 90 -210 91 -5 0
-8 -6 -8 -14z" />
    <path d="M2077 1113 c-4 -3 -7 -21 -7 -40 0 -33 0 -33 -20 -13 -15 15 -33 20
-70 20 -67 0 -90 -22 -90 -88 0 -59 20 -81 79 -89 54 -7 101 36 101 92 0 31 2
36 14 26 48 -40 114 16 88 74 -11 25 -76 37 -95 18z" />
    <path d="M2260 960 c0 -11 7 -20 15 -20 8 0 15 9 15 20 0 11 -7 20 -15 20 -8
0 -15 -9 -15 -20z" />
    <path d="M2137 964 c-13 -13 -7 -71 7 -84 39 -31 96 25 70 68 -11 18 -64 28
-77 16z" />
    <path d="M2037 852 c-33 -36 -14 -92 32 -92 38 0 53 20 49 67 -4 46 -50 60
-81 25z" />
  </g>
  <g transform="translate(0.000000,500.000000) scale(0.100000,-0.100000)" fill="#f1a9e0" stroke="none">
    <path d="M0 2500 c0 -2500 0 -2500 3500 -2500 3500 0 3500 0 3500 2500 0 2500
0 2500 -3500 2500 -3500 0 -3500 0 -3500 -2500z m4868 2396 c58 -15 234 -89
327 -138 141 -74 251 -175 319 -292 37 -63 37 -63 164 -69 246 -12 435 -98
548 -248 168 -225 207 -296 228 -419 8 -47 20 -77 42 -105 88 -113 272 -411
285 -460 5 -22 23 -83 39 -135 170 -551 96 -1096 -212 -1563 -65 -98 -65 -98
-39 -150 39 -77 38 -218 -2 -298 -34 -70 -125 -159 -201 -196 -31 -15 -55 -30
-53 -33 64 -110 73 -251 23 -355 -99 -203 -339 -319 -661 -319 -242 0 -411 53
-540 167 -50 44 -50 44 -180 0 -277 -93 -595 -161 -925 -200 -221 -26 -778
-25 -1005 0 -278 32 -694 117 -845 173 -34 13 -84 17 -210 18 -204 2 -280 25
-437 129 -61 41 -61 41 -36 90 78 155 163 446 163 560 0 40 9 69 19 63 24 -15
-22 -302 -74 -459 -19 -58 -35 -109 -35 -113 0 -4 55 -4 123 -1 189 9 332 53
444 138 65 49 135 141 126 165 -5 12 -3 15 6 9 10 -6 12 0 6 25 -5 23 -4 30 4
26 7 -5 11 4 11 24 0 18 -4 29 -10 25 -6 -4 -7 6 -3 26 5 25 3 30 -7 24 -10
-6 -12 -4 -7 9 6 16 -17 76 -29 76 -3 0 -2 -5 2 -12 4 -7 3 -8 -4 -4 -6 4 -9
12 -6 19 6 16 -71 91 -84 83 -6 -3 -14 -1 -18 5 -5 8 -3 9 7 4 12 -8 12 -6 0
9 -8 9 -20 15 -28 12 -9 -4 -11 -1 -7 6 5 8 2 9 -10 5 -11 -5 -15 -3 -10 5 5
8 2 9 -10 5 -11 -5 -15 -3 -10 5 5 8 2 9 -10 5 -11 -5 -15 -3 -10 5 5 8 2 9
-10 5 -9 -4 -15 -3 -12 2 8 12 -20 22 -41 14 -12 -5 -14 -3 -8 7 6 10 3 12
-13 8 -14 -4 -20 -2 -15 5 4 6 -2 8 -15 5 -14 -4 -20 -2 -15 4 4 8 -4 9 -26 5
-23 -5 -30 -3 -25 5 5 8 -2 9 -25 5 -22 -5 -30 -3 -25 4 4 8 -8 10 -40 8 -46
-4 -46 -4 -46 29 0 18 4 31 9 28 4 -3 17 4 27 17 19 21 19 21 -1 7 -18 -14
-19 -14 -7 2 8 10 20 14 29 11 12 -5 15 -2 10 10 -3 9 1 21 11 29 15 11 16 11
7 -2 -5 -9 -2 -7 8 4 10 10 15 26 13 33 -4 9 -1 11 6 7 8 -5 9 -2 5 10 -4 9
-3 15 2 12 12 -8 22 20 14 41 -4 11 -3 14 5 9 8 -5 10 2 5 25 -4 23 -3 30 5
25 9 -5 12 16 12 79 0 61 -3 84 -11 79 -8 -5 -9 6 -4 36 5 30 4 41 -4 36 -7
-4 -9 -1 -5 8 7 17 -14 59 -25 51 -5 -2 -8 3 -7 13 0 9 -4 16 -11 15 -7 -2
-10 3 -7 11 5 14 -11 30 -31 31 -5 1 -9 7 -7 14 4 18 -49 73 -64 67 -7 -3 -18
3 -26 12 -11 15 -11 16 2 7 9 -5 7 -2 -4 8 -10 10 -26 15 -33 13 -9 -4 -11 -1
-7 6 5 8 2 9 -10 5 -11 -5 -15 -3 -10 5 5 8 2 9 -10 5 -11 -5 -15 -3 -10 5 5
8 2 9 -10 5 -10 -4 -15 -3 -11 3 8 13 -24 72 -35 65 -6 -4 -7 1 -3 11 4 12 3
15 -5 10 -8 -5 -10 -1 -5 10 4 12 3 15 -5 10 -8 -5 -10 -1 -5 10 4 12 3 15 -5
10 -8 -5 -10 -1 -5 10 4 11 2 15 -4 11 -6 -4 -10 1 -9 11 0 9 -4 16 -10 15 -7
-1 -11 5 -10 15 0 9 -6 17 -14 17 -8 1 -14 7 -12 14 3 16 -17 43 -28 36 -20
-12 -17 14 3 31 21 19 21 19 7 -1 -15 -20 -15 -20 8 -1 12 11 20 26 17 33 -3
9 0 11 6 7 8 -4 9 1 4 16 -5 16 -4 20 5 15 8 -5 9 3 4 30 -5 27 -4 36 5 31 7
-5 11 6 11 34 0 28 -4 39 -11 34 -8 -4 -9 3 -4 26 4 19 3 30 -2 27 -5 -3 -9 4
-9 16 1 13 -4 21 -12 19 -8 -1 -10 2 -7 8 9 15 -25 52 -42 45 -8 -2 -11 0 -8
5 7 12 7 12 -67 14 -31 1 -55 -1 -52 -6 3 -4 -2 -5 -11 -2 -20 8 -88 -54 -80
-74 3 -8 0 -10 -7 -6 -7 5 -9 0 -6 -14 4 -12 2 -20 -3 -16 -5 3 -9 -6 -9 -19
0 -14 -7 -28 -16 -31 -9 -4 -13 -2 -8 5 4 8 -1 9 -16 4 -14 -4 -20 -3 -16 3 8
13 -22 24 -47 16 -14 -4 -17 -3 -12 6 6 10 1 11 -19 6 -18 -4 -25 -3 -21 3 4
7 -29 9 -97 7 -103 -4 -103 -4 -104 38 -3 91 -72 153 -183 163 -165 15 -267
-184 -161 -317 32 -41 32 -41 -27 -103 -100 -105 -225 -319 -255 -434 -16 -65
-22 -54 -51 90 -32 155 -34 233 -8 342 10 44 22 123 25 175 12 170 63 376 137
551 17 41 39 113 49 160 10 47 30 115 45 150 15 35 40 101 55 147 34 99 75
165 136 222 45 42 45 42 29 88 -80 225 23 502 238 643 196 128 484 117 671
-26 43 -33 43 -33 87 2 87 70 305 162 442 188 45 8 135 34 200 56 176 60 452
85 652 59 84 -11 361 10 475 36 137 31 465 19 591 -22 102 -33 176 -34 266 -3
75 25 166 43 268 53 84 8 322 -3 383 -18z m-4214 -2172 c22 -22 20 -70 -4 -94
-53 -53 -154 24 -107 82 24 30 86 37 111 12z m736 -116 c22 -40 -2 -82 -48
-86 -41 -4 -62 12 -62 47 0 70 77 97 110 39z m-477 -374 c92 -31 76 -73 -46
-116 -90 -32 -118 -14 -55 36 24 18 28 26 18 30 -8 2 -32 10 -52 16 -47 14
-56 28 -26 39 36 15 110 13 161 -5z m410 -55 c15 -23 0 -66 -28 -85 -53 -34
-102 40 -58 88 20 23 71 21 86 -3z m324 -223 c23 -22 27 -89 6 -115 -26 -32
-90 -32 -115 -1 -57 71 44 179 109 116z m-87 -231 c5 -13 22 -31 39 -39 71
-37 98 -151 50 -220 -13 -20 -27 -36 -31 -36 -14 0 -48 79 -48 112 -1 18 -7
44 -14 57 -13 23 -13 23 -39 -22 -14 -24 -42 -58 -62 -76 -85 -74 -269 -10
-290 102 -14 73 13 90 39 25 18 -49 68 -88 109 -88 74 0 197 102 197 163 0 53
33 68 50 22z m-930 -326 c165 -212 226 -403 218 -679 -8 -222 -48 -299 -185
-350 -99 -37 -175 -15 -237 68 -42 58 -40 62 16 24 107 -73 152 -77 240 -20
102 65 117 102 125 308 9 251 -55 462 -200 652 -43 56 -50 68 -40 68 4 0 33
-32 63 -71z m1556 -261 c29 -33 29 -33 -3 -4 -31 28 -38 36 -30 36 2 0 16 -15
33 -32z m-25 -49 c24 -46 -33 -93 -69 -57 -13 13 -16 60 -5 71 15 16 63 6 74
-14z m-121 -39 c48 -48 -5 -149 -72 -136 -102 20 -91 156 12 156 27 0 47 -7
60 -20z m160 -105 c15 -19 -1 -65 -23 -65 -29 0 -51 53 -30 73 11 12 40 7 53
-8z m-92 -118 c6 -55 -48 -79 -70 -32 -9 21 -8 28 7 45 27 29 59 22 63 -13z" />
    <path d="M3433 3646 c-12 -18 -12 -66 0 -73 6 -3 7 -1 3 5 -5 8 -2 10 8 6 9
-3 14 -10 11 -14 -2 -4 7 -7 20 -7 14 0 28 4 32 10 3 6 1 7 -5 3 -8 -5 -10 -2
-6 8 3 9 10 13 15 10 14 -8 11 42 -3 54 -17 13 -67 12 -75 -2z" />
    <path d="M2763 3610 c-44 -18 -57 -86 -23 -120 44 -44 130 -9 130 55 0 42 -65
82 -107 65z" />
    <path d="M4175 3520 c4 -6 -3 -9 -15 -7 -14 1 -28 -7 -38 -23 -10 -13 -11 -21
-5 -17 9 6 11 3 7 -7 -3 -9 -10 -13 -15 -10 -18 11 -8 -54 12 -80 15 -19 27
-25 41 -20 12 3 18 2 15 -3 -4 -6 9 -10 28 -11 19 -1 37 4 41 10 5 7 3 8 -6 3
-8 -5 -11 -4 -6 3 4 6 13 9 20 6 7 -3 16 2 20 11 3 9 2 13 -4 10 -6 -3 -7 1
-4 9 3 9 10 13 15 10 5 -3 9 11 9 31 0 25 -4 34 -12 29 -7 -5 -9 -2 -5 8 3 9
1 20 -5 26 -6 6 -17 8 -26 5 -9 -4 -13 -2 -9 4 5 7 -1 9 -15 5 -14 -3 -19 -2
-14 6 5 8 -1 12 -14 12 -12 0 -18 -4 -15 -10z" />
    <path d="M4545 3081 c2 -5 -3 -8 -13 -7 -10 0 -16 -6 -16 -16 1 -10 -2 -16 -6
-13 -4 3 -11 -2 -14 -11 -19 -49 18 -120 56 -108 14 4 18 2 14 -5 -5 -7 4 -11
24 -11 17 0 29 4 26 9 -3 5 2 8 12 7 10 0 17 6 17 16 0 9 4 20 9 25 5 5 6 2 1
-6 -5 -9 -4 -12 3 -7 16 9 7 95 -11 114 -17 16 -112 28 -102 13z" />
    <path d="M2093 2918 c-10 -17 -12 -88 -1 -82 4 3 5 -3 1 -12 -5 -14 -3 -16 11
-11 9 4 15 3 11 -3 -3 -5 10 -8 31 -7 34 3 37 6 41 37 2 18 5 36 8 38 10 10
-17 43 -31 38 -9 -3 -12 -1 -9 4 9 15 -52 12 -62 -2z" />
    <path d="M4135 2750 c4 -6 -1 -7 -11 -3 -14 5 -16 2 -12 -15 4 -12 2 -20 -3
-16 -5 3 -9 -4 -9 -16 0 -12 4 -19 9 -16 5 3 8 -2 7 -12 -1 -13 7 -17 39 -17
32 0 40 4 39 18 -1 9 2 14 7 11 15 -9 10 30 -7 54 -15 21 -72 33 -59 12z" />
    <path d="M4727 2547 c3 -5 -3 -7 -13 -5 -14 2 -18 -2 -16 -16 2 -10 -1 -15 -7
-11 -6 3 -9 0 -6 -7 2 -7 6 -31 9 -53 3 -31 7 -39 21 -37 9 2 15 0 12 -5 -8
-13 71 -7 88 7 9 8 13 20 9 33 -4 13 -2 17 5 13 18 -12 13 40 -6 61 -10 10
-13 12 -8 4 9 -12 7 -12 -12 -1 -12 8 -20 17 -18 20 2 4 -11 6 -30 6 -18 -1
-31 -5 -28 -9z" />
  </g>
  <g transform="translate(0.000000,500.000000) scale(0.100000,-0.100000)" fill="#c257d8" stroke="none">
    <path d="M3301 4319 c-73 -126 -172 -205 -328 -262 -87 -32 -90 -32 -269 -32
-207 0 -190 7 -265 -103 -110 -163 -185 -216 -304 -215 -133 0 -273 86 -290
177 -9 45 -9 45 -81 -5 -149 -104 -181 -136 -187 -189 -11 -89 -104 -247 -216
-363 -60 -63 -192 -157 -219 -157 -29 0 -115 -216 -152 -385 -26 -117 -26
-135 1 -135 11 0 54 -11 95 -25 41 -14 76 -25 78 -25 2 0 6 18 9 40 11 81 98
150 173 135 122 -22 179 -223 96 -340 -30 -43 -30 -43 10 -96 22 -30 58 -89
79 -131 36 -72 43 -80 97 -107 36 -18 80 -53 115 -91 65 -70 70 -65 26 23 -69
135 -72 155 -42 265 38 143 25 290 -32 372 -24 34 -25 41 -15 86 19 86 13 81
98 86 174 10 293 114 362 318 27 80 23 184 -9 248 -12 23 -21 43 -21 45 0 14
66 43 140 62 101 27 144 43 314 123 90 42 150 64 200 72 178 28 332 94 395
169 41 49 41 49 129 56 48 3 108 8 134 11 35 4 49 2 52 -8 2 -7 9 -33 16 -57
15 -57 86 -133 149 -160 124 -53 351 -64 446 -22 45 20 45 20 81 -1 73 -43
185 -23 236 42 23 30 23 30 135 -26 111 -55 111 -55 106 -93 -9 -69 66 -189
141 -225 44 -21 118 -21 159 0 32 17 32 17 104 -61 40 -43 75 -76 78 -74 2 3
-1 36 -7 74 -34 222 27 400 117 341 72 -47 232 -373 252 -512 5 -42 5 -42 42
-31 78 23 223 10 315 -29 16 -6 9 11 -28 82 -123 226 -271 404 -480 576 -135
111 -125 107 -181 64 -173 -131 -483 -108 -666 51 -121 105 -219 277 -219 384
0 26 -4 28 -72 43 -258 54 -455 76 -690 76 -173 -1 -173 -1 -207 -61z" />
    <path d="M3440 3662 c0 -5 14 -9 30 -10 17 0 30 4 30 9 0 5 -13 9 -30 9 -16 0
-30 -4 -30 -8z" />
    <path d="M2750 3641 c0 -6 16 -11 38 -11 21 0 43 -5 50 -12 6 -6 15 -9 19 -5
13 14 -15 29 -61 34 -31 4 -46 2 -46 -6z" />
    <path d="M3410 3610 c0 -16 4 -30 8 -30 5 0 9 14 9 30 0 17 -4 30 -9 30 -4 0
-8 -13 -8 -30z" />
    <path d="M3510 3610 c0 -16 5 -30 10 -30 6 0 10 14 10 30 0 17 -4 30 -10 30
-5 0 -10 -13 -10 -30z" />
    <path d="M2694 3605 c-26 -40 -11 -48 19 -10 20 26 24 35 13 35 -9 0 -23 -11
-32 -25z" />
    <path d="M2875 3578 c10 -31 25 -47 25 -26 0 24 -11 48 -22 48 -5 0 -6 -10 -3
-22z" />
    <path d="M3440 3559 c0 -5 14 -9 30 -9 17 0 30 4 30 8 0 5 -13 9 -30 10 -16 0
-30 -4 -30 -9z" />
    <path d="M2674 3518 c14 -70 70 -107 142 -94 52 10 41 24 -16 18 -57 -5 -110
34 -110 82 0 14 -5 26 -11 26 -8 0 -9 -11 -5 -32z" />
    <path d="M4180 3530 c0 -5 7 -10 15 -10 8 0 15 5 15 10 0 6 -7 10 -15 10 -8 0
-15 -4 -15 -10z" />
    <path d="M2877 3501 c-20 -40 -20 -41 -7 -41 12 0 32 48 27 64 -2 5 -11 -5
-20 -23z" />
    <path d="M5225 3468 c3 -13 20 -86 39 -163 19 -78 39 -183 45 -234 13 -101 23
-131 47 -131 18 0 29 29 38 102 13 104 -25 241 -106 381 -38 66 -74 91 -63 45z" />
    <path d="M4280 3435 c0 -19 5 -35 10 -35 6 0 10 16 10 35 0 19 -4 35 -10 35
-5 0 -10 -16 -10 -35z" />
    <path d="M6163 3381 c-88 -63 -154 -165 -219 -337 -52 -136 -52 -160 -1 -83
20 29 62 81 94 115 59 61 183 214 216 265 41 63 -20 91 -90 40z" />
    <path d="M4255 3370 c-17 -18 -17 -20 -1 -20 9 0 19 7 23 15 9 25 -2 27 -22 5z" />
    <path d="M4140 3352 c0 -6 7 -13 16 -16 25 -10 74 -7 74 4 0 5 -10 9 -22 8
-13 -1 -33 2 -45 6 -13 4 -23 3 -23 -2z" />
    <path d="M3424 3252 c-41 -26 -64 -78 -64 -145 0 -55 0 -55 -97 -59 -98 -4
-98 -4 -168 47 -38 29 -90 66 -114 83 -55 40 -172 76 -217 68 -96 -19 -113
-145 -44 -318 22 -55 51 -116 64 -135 24 -35 24 -35 1 -86 -12 -29 -30 -84
-40 -122 -17 -71 -17 -71 -108 -94 -365 -93 -630 -372 -655 -689 -7 -83 -7
-83 -57 -18 -27 36 -52 65 -55 65 -3 1 -4 -57 -2 -128 5 -151 -23 -237 -100
-306 -56 -51 -56 -105 0 -105 118 0 330 -88 414 -171 84 -84 117 -195 85 -286
-14 -42 -14 -42 112 -87 179 -64 506 -149 515 -134 1 2 13 27 26 56 122 269
541 219 595 -71 7 -37 7 -37 89 -37 166 0 183 6 188 60 12 122 94 193 231 199
87 3 90 4 119 36 90 103 206 147 388 149 146 1 213 -18 325 -91 39 -26 39 -26
104 8 79 41 226 136 303 196 57 43 57 43 -13 113 -38 38 -69 74 -69 81 0 6
-18 -5 -39 -24 -92 -83 -241 -34 -241 79 0 32 -4 44 -15 44 -52 0 -95 52 -95
115 0 19 -4 35 -10 35 -12 0 -12 -56 -1 -85 6 -15 2 -24 -17 -37 -25 -16 -25
-16 -50 34 -77 156 -305 187 -415 57 -69 -80 -84 -198 -36 -291 20 -38 20 -38
-7 -48 -71 -28 -311 -86 -319 -78 -1 1 27 49 64 104 66 102 91 148 176 327 53
113 64 122 187 156 46 13 89 25 96 27 19 6 14 48 -11 85 -33 50 -78 69 -168
69 -167 0 -238 -55 -339 -264 -78 -163 -188 -334 -248 -388 -63 -57 -68 -46
-13 27 115 150 152 249 159 428 5 136 -1 176 -44 290 -26 67 -26 67 4 140 44
105 55 177 50 319 -9 204 -60 322 -180 413 -36 27 -74 63 -84 80 -18 29 -18
29 33 -8 83 -61 92 -55 67 50 -48 208 -163 325 -260 265z m-434 -286 c17 -33
8 -64 -34 -111 -32 -37 -36 -39 -52 -23 -16 15 -15 18 5 51 30 49 26 73 -19
124 -22 25 -40 50 -40 54 0 15 127 -71 140 -95z m697 -352 c7 -18 -12 -34 -43
-34 -11 0 -29 -9 -39 -20 -23 -25 -40 -12 -31 23 10 41 99 66 113 31z m-338
-13 c81 -42 72 -85 -13 -61 -24 6 -66 10 -92 8 -63 -4 -70 26 -14 54 45 23 72
23 119 -1z m451 -104 c0 -2 -15 -16 -32 -33 -33 -29 -33 -29 -4 4 28 30 36 37
36 29z m-205 -37 c6 -20 -9 -60 -23 -60 -5 0 -18 13 -30 30 -20 27 -21 30 -4
39 27 16 50 13 57 -9z m-43 -170 c-21 -22 -56 -40 -76 -40 -30 0 -16 19 29 39
25 11 45 26 45 33 0 10 2 10 9 -1 6 -9 3 -20 -7 -31z m-447 -155 c66 -32 134
-52 250 -73 50 -10 50 -10 -8 -11 -111 -2 -289 68 -377 148 -45 41 -45 41 10
6 30 -20 87 -51 125 -70z m200 -535 c1 -189 -193 -325 -370 -260 -40 15 -40
15 77 20 110 5 119 7 160 35 64 45 108 137 111 232 3 91 21 68 22 -27z" />
    <path d="M4550 3091 c0 -5 10 -8 23 -8 12 1 32 -2 45 -7 12 -4 22 -3 22 2 0
11 -34 22 -67 22 -13 0 -23 -4 -23 -9z" />
    <path d="M5164 3070 c3 -14 6 -28 6 -32 0 -5 5 -8 11 -8 12 0 2 39 -13 55 -7
7 -9 2 -4 -15z" />
    <path d="M4494 3044 c-9 -21 -13 -48 -9 -65 9 -42 25 -36 18 7 -4 27 -1 42 16
65 18 24 19 29 6 29 -9 0 -23 -16 -31 -36z" />
    <path d="M4650 3053 c0 -5 7 -18 15 -29 15 -18 15 -18 13 5 -3 23 -28 44 -28
24z" />
    <path d="M5184 3000 c3 -14 6 -28 6 -32 0 -5 5 -8 11 -8 12 0 2 39 -13 55 -7
7 -9 2 -4 -15z" />
    <path d="M4665 2985 c-4 -11 -17 -30 -28 -42 -18 -20 -18 -23 -4 -23 21 0 50
44 44 67 -4 17 -5 16 -12 -2z" />
    <path d="M2090 2920 c-11 -11 -20 -28 -20 -37 1 -14 5 -12 21 10 11 15 29 27
40 27 10 0 19 5 19 10 0 17 -39 11 -60 -10z" />
    <path d="M5200 2926 c0 -8 -7 -16 -15 -20 -8 -3 -15 -12 -15 -21 0 -8 -4 -15
-10 -15 -5 0 -10 -7 -10 -15 0 -8 -4 -15 -10 -15 -5 0 -10 -7 -10 -15 0 -8 -4
-15 -8 -15 -11 0 -77 -138 -69 -146 3 -3 22 27 43 67 20 41 56 102 80 136 46
65 50 73 34 73 -5 0 -10 -6 -10 -14z" />
    <path d="M2178 2897 c39 -41 7 -110 -42 -91 -9 3 -16 1 -16 -5 0 -14 45 -14
70 -1 42 23 28 120 -17 120 -14 0 -13 -4 5 -23z" />
    <path d="M4116 2754 c-9 -8 -16 -23 -15 -32 0 -14 3 -13 16 6 8 12 24 22 34
22 11 0 19 5 19 10 0 16 -37 12 -54 -6z" />
    <path d="M5467 2732 c-34 -37 -11 -94 37 -94 51 0 86 53 59 91 -18 27 -73 28
-96 3z" />
    <path d="M5734 2704 c-25 -38 -9 -78 33 -82 52 -5 83 57 45 91 -27 25 -59 21
-78 -9z" />
    <path d="M4185 2670 c-17 -18 -17 -20 -1 -20 9 0 19 7 23 15 9 25 -2 27 -22 5z" />
    <path d="M4110 2666 c0 -8 9 -18 21 -21 31 -10 33 0 4 19 -21 14 -25 14 -25 2z" />
    <path d="M5016 2584 c-15 -47 -16 -94 -1 -53 35 99 38 109 27 109 -5 0 -16
-25 -26 -56z" />
    <path d="M5235 2575 c137 -18 174 -18 120 0 -22 8 -80 13 -130 13 -90 -1 -90
-1 10 -13z" />
    <path d="M4702 2563 c-64 -26 -43 -173 25 -173 14 0 10 7 -14 26 -45 35 -46
84 -2 125 28 26 25 36 -9 22z" />
    <path d="M5625 2537 c-29 -22 -16 -62 20 -62 25 0 31 4 33 27 4 34 -26 54 -53
35z" />
    <path d="M5935 2531 c-14 -7 8 -9 70 -8 50 1 126 -1 170 -5 57 -5 68 -4 40 2
-61 14 -257 21 -280 11z" />
    <path d="M4812 2431 c-18 -24 -19 -31 -8 -31 17 0 39 35 34 51 -2 6 -14 -4
-26 -20z" />
    <path d="M5283 2450 c-45 -9 -98 -34 -108 -50 -4 -6 10 -4 32 5 21 9 74 25
118 35 84 19 49 27 -42 10z" />
    <path d="M5457 2434 c-4 -4 -7 -19 -7 -33 0 -73 90 -133 145 -97 24 16 27 16
55 -4 51 -36 117 -25 152 25 27 39 38 105 18 105 -5 0 -10 -13 -10 -28 0 -75
-127 -93 -152 -21 -11 33 -26 38 -35 12 -32 -91 -130 -75 -138 21 -2 21 -17
31 -28 20z" />
    <path d="M5926 2431 c-3 -4 13 -11 37 -14 23 -4 93 -26 155 -51 130 -51 142
-51 40 0 -122 62 -218 88 -232 65z" />
    <path d="M4960 2349 c0 -11 5 -17 10 -14 6 3 10 13 10 21 0 8 -4 14 -10 14 -5
0 -10 -9 -10 -21z" />
    <path d="M4950 2284 c0 -14 4 -23 10 -19 6 3 10 15 10 26 0 10 -4 19 -10 19
-5 0 -10 -12 -10 -26z" />
    <path d="M4940 2105 c0 -30 5 -55 10 -55 6 0 10 25 10 55 0 30 -4 55 -10 55
-5 0 -10 -25 -10 -55z" />
    <path d="M5549 2120 c149 -118 126 -350 -34 -350 -101 0 -247 152 -247 257 0
13 -4 23 -9 23 -35 0 6 -128 67 -212 95 -128 276 -148 343 -37 19 30 19 30 37
-8 61 -123 249 -110 348 25 45 62 75 128 76 167 0 36 -11 24 -34 -35 -26 -70
-80 -136 -138 -170 -215 -123 -327 162 -126 321 57 44 41 54 -18 11 -47 -35
-93 -93 -109 -140 -12 -34 -12 -34 -28 12 -19 57 -60 111 -111 148 -60 43 -74
33 -17 -12z" />
    <path d="M4950 1926 c0 -14 5 -26 10 -26 6 0 10 9 10 19 0 11 -4 23 -10 26 -6
4 -10 -5 -10 -19z" />
    <path d="M4970 1806 c0 -9 -11 -18 -25 -22 -14 -3 -25 -10 -25 -15 0 -8 43 -3
63 8 10 6 9 31 -3 38 -5 3 -10 -1 -10 -9z" />
    <path d="M4860 1735 c-21 -25 -1 -31 23 -7 17 18 18 22 5 22 -8 0 -21 -7 -28
-15z" />
    <path d="M4794 1654 c-21 -51 -11 -68 12 -19 10 22 20 43 22 48 2 4 -1 7 -8 7
-6 0 -18 -16 -26 -36z" />
  </g>
  <g transform="translate(0.000000,500.000000) scale(0.100000,-0.100000)" fill="#6321a6" stroke="none">
    <path d="M3305 3948 c-110 -9 -110 -9 -160 -63 -72 -77 -213 -137 -391 -165
-50 -8 -110 -30 -200 -72 -171 -80 -213 -96 -316 -123 -47 -12 -100 -32 -117
-44 -31 -22 -31 -22 -5 -72 54 -107 39 -223 -47 -370 -70 -120 -165 -179 -301
-187 -78 -5 -78 -5 -87 -41 -25 -94 -25 -110 3 -150 58 -84 69 -213 31 -358
-26 -101 -27 -103 -9 -155 18 -58 79 -184 99 -208 7 -8 25 -37 40 -65 29 -52
124 -175 135 -175 4 0 10 39 12 88 20 316 287 599 655 693 91 23 91 23 108 93
10 39 29 96 42 128 26 58 26 58 -1 98 -53 80 -106 232 -106 303 0 116 52 152
169 117 67 -20 86 -31 226 -135 70 -52 70 -52 178 -47 107 5 107 5 107 59 0
140 100 204 189 120 52 -49 148 -283 125 -306 -10 -11 -121 88 -139 124 -13
27 -21 34 -23 23 -8 -39 67 -151 136 -203 185 -139 241 -470 123 -729 -29 -65
-29 -65 -1 -134 44 -107 53 -166 48 -293 -8 -174 -59 -296 -186 -446 -53 -63
-52 -74 5 -52 71 27 194 199 303 425 99 205 173 264 329 264 79 0 126 -21 158
-69 26 -38 29 -60 11 -65 -7 -2 -50 -14 -96 -27 -125 -35 -134 -42 -192 -166
-87 -186 -161 -315 -233 -406 -16 -21 -28 -40 -25 -42 12 -12 361 75 382 95 5
5 -3 31 -18 61 -92 186 91 403 285 337 80 -27 169 -117 169 -171 0 -24 13 -19
78 29 2 2 -1 19 -8 38 -31 95 53 235 159 267 30 9 40 17 37 28 -38 130 -39
422 -2 603 40 197 92 325 187 463 48 70 48 70 29 125 -10 30 -30 103 -43 162
-27 115 -44 144 -145 241 -39 38 -39 38 -73 18 -67 -41 -152 -21 -216 53 -51
59 -76 119 -68 165 6 38 6 38 -107 94 -133 66 -128 66 -156 27 -50 -67 -154
-84 -223 -37 -34 23 -34 23 -85 0 -100 -45 -307 -37 -435 18 -63 27 -134 103
-149 160 -7 24 -14 50 -16 57 -4 13 -17 13 -179 0z m197 -305 c30 -27 10 -83
-30 -83 -21 0 -52 29 -52 48 0 42 50 64 82 35z m-638 -44 c34 -38 32 -96 -4
-134 -72 -77 -197 -3 -169 99 22 79 116 98 173 35z m1401 -111 c71 -84 -40
-193 -124 -122 -51 43 -40 123 21 148 41 18 74 9 103 -26z m382 -430 c32 -30
31 -81 -2 -113 -64 -65 -173 0 -144 85 21 60 97 74 146 28z m-2487 -143 c58
-30 60 -97 4 -111 -59 -15 -107 63 -65 105 25 25 24 25 61 6z m2018 -171 c40
-28 22 -94 -27 -94 -18 0 -41 31 -41 55 0 45 33 64 68 39z m626 -205 c33 -26
37 -88 6 -119 -43 -43 -140 -8 -140 50 0 76 75 115 134 69z" />
    <path d="M2836 3071 c-6 -9 40 -77 67 -100 23 -18 21 -34 -5 -81 -46 -80 22
-106 79 -32 58 76 44 121 -60 186 -60 38 -72 42 -81 27z" />
    <path d="M3593 2628 c-27 -13 -44 -58 -31 -81 12 -23 31 -21 53 3 10 11 28 20
41 20 22 0 54 23 54 39 0 29 -72 41 -117 19z" />
    <path d="M3220 2612 c-28 -14 -35 -23 -35 -47 0 -30 0 -30 65 -31 36 0 83 -4
105 -8 80 -16 86 37 9 81 -47 27 -97 29 -144 5z" />
    <path d="M3757 2482 c-26 -27 -36 -62 -19 -62 10 0 82 73 82 83 0 17 -39 4
-63 -21z" />
    <path d="M3528 2479 c-23 -13 -23 -24 4 -59 26 -36 55 -38 69 -6 27 58 -19 97
-73 65z" />
    <path d="M3166 2431 c7 -8 162 -41 189 -41 25 0 -18 20 -71 34 -69 18 -134 21
-118 7z" />
    <path d="M3540 2340 c0 -14 -14 -27 -47 -43 -53 -25 -63 -50 -21 -55 29 -3 88
22 88 38 0 6 11 3 25 -6 14 -9 32 -13 45 -9 29 9 25 22 -11 30 -20 5 -37 18
-48 36 -19 34 -31 37 -31 9z" />
    <path d="M3744 2349 c-9 -14 -1 -19 40 -26 24 -4 36 -2 36 6 0 6 -1 11 -3 11
-1 0 -17 4 -34 9 -21 6 -35 6 -39 0z" />
    <path d="M3268 2324 c-31 -16 -39 -41 -10 -29 9 5 36 13 59 19 23 7 45 15 49
19 14 13 -71 6 -98 -9z" />
    <path d="M2870 2304 c0 -68 215 -218 362 -253 52 -12 160 -13 198 -1 33 10 16
15 -88 29 -149 19 -335 104 -424 193 -37 37 -48 44 -48 32z" />
    <path d="M3278 1714 c-2 -5 -5 -40 -6 -79 -2 -92 -46 -184 -110 -230 -44 -30
-44 -30 -183 -30 -76 0 -139 -3 -139 -6 0 -20 129 -54 200 -53 173 1 302 153
276 327 -7 45 -29 87 -38 71z" />
  </g>
  <g transform="translate(0.000000,500.000000) scale(0.100000,-0.100000)" fill="#913dbe" stroke="none">
    <path d="M3441 3953 c33 -4 37 -7 42 -39 8 -49 51 -118 90 -145 27 -20 25 -16
-15 28 -29 31 -51 67 -58 94 -7 24 -14 50 -16 57 -2 7 -18 11 -41 10 -38 -1
-38 -1 -2 -5z" />
    <path d="M3169 3913 c-24 -28 -24 -28 6 -3 17 14 32 26 34 28 2 1 0 2 -6 2 -5
0 -20 -12 -34 -27z" />
    <path d="M4130 3731 c0 -17 46 -42 86 -46 39 -5 39 -5 5 4 -18 5 -46 19 -62
30 -16 12 -29 17 -29 12z" />
    <path d="M2680 3507 c0 -10 13 -32 29 -48 16 -16 38 -29 48 -29 11 1 6 6 -15
15 -20 9 -38 27 -47 47 -9 21 -14 26 -15 15z" />
    <path d="M2102 3468 c-7 -9 -3 -26 13 -58 13 -25 24 -41 25 -37 0 4 -9 25 -19
46 -15 29 -17 41 -8 50 6 6 8 11 5 11 -3 0 -10 -6 -16 -12z" />
    <path d="M4935 3409 c-16 -10 -25 -19 -19 -19 7 0 22 9 35 20 30 24 23 24 -16
-1z" />
    <path d="M4853 3383 c9 -2 25 -2 35 0 9 3 1 5 -18 5 -19 0 -27 -2 -17 -5z" />
    <path d="M3530 3247 c0 -2 15 -16 33 -33 32 -29 32 -29 3 4 -28 30 -36 37 -36
29z" />
    <path d="M2682 3100 c0 -19 2 -27 5 -17 2 9 2 25 0 35 -3 9 -5 1 -5 -18z" />
    <path d="M3363 3095 c0 -22 2 -30 4 -17 2 12 2 30 0 40 -3 9 -5 -1 -4 -23z" />
    <path d="M3524 3049 c0 -10 4 -19 9 -19 4 0 5 -5 1 -12 -4 -6 -3 -8 4 -5 5 4
8 16 5 27 -7 27 -19 33 -19 9z" />
    <path d="M3268 3043 c12 -2 32 -2 45 0 12 2 2 4 -23 4 -25 0 -35 -2 -22 -4z" />
    <path d="M2860 3017 c0 -2 15 -16 33 -33 32 -29 32 -29 3 4 -28 30 -36 37 -36
29z" />
    <path d="M2004 2948 c-29 -33 -29 -33 4 -4 30 28 37 36 29 36 -2 0 -16 -15
-33 -32z" />
    <path d="M2881 2855 c-2 -34 47 -63 63 -37 2 4 -7 8 -22 7 -19 0 -28 6 -33 25
-6 21 -7 22 -8 5z" />
    <path d="M1738 2843 c12 -2 30 -2 40 0 9 3 -1 5 -23 4 -22 0 -30 -2 -17 -4z" />
    <path d="M4187 2740 c6 -8 13 -26 16 -40 4 -25 4 -25 6 1 0 15 -7 33 -16 40
-16 12 -17 12 -6 -1z" />
    <path d="M3645 2633 c22 -2 46 -11 53 -20 6 -9 12 -12 12 -7 0 21 -26 34 -64
32 -41 -1 -41 -1 -1 -5z" />
    <path d="M3192 2598 c-14 -14 -16 -54 -3 -62 4 -3 6 6 3 19 -2 14 1 32 8 40
15 18 9 20 -8 3z" />
    <path d="M3391 2585 c9 -11 19 -27 22 -35 5 -13 6 -13 6 1 1 9 -9 24 -21 35
-23 19 -23 19 -7 -1z" />
    <path d="M3353 2523 c9 -2 25 -2 35 0 9 3 1 5 -18 5 -19 0 -27 -2 -17 -5z" />
    <path d="M3774 2463 c-23 -24 -39 -43 -35 -43 9 0 86 79 80 82 -2 2 -23 -16
-45 -39z" />
    <path d="M3843 2415 c0 -33 2 -45 4 -27 2 18 2 45 0 60 -2 15 -4 0 -4 -33z" />
    <path d="M2869 2345 c-9 -15 4 -50 20 -53 11 -2 12 0 4 10 -6 7 -13 22 -15 33
-2 11 -6 16 -9 10z" />
    <path d="M3790 2330 c-24 -8 -23 -8 8 -9 20 -1 31 3 27 9 -3 6 -7 10 -8 9 -1
-1 -13 -5 -27 -9z" />
    <path d="M3450 2275 c-13 -15 -6 -35 13 -35 7 0 6 4 -3 10 -13 9 -12 12 4 25
11 8 15 15 9 15 -6 0 -16 -7 -23 -15z" />
    <path d="M4248 1893 c12 -2 32 -2 45 0 12 2 2 4 -23 4 -25 0 -35 -2 -22 -4z" />
    <path d="M4044 1798 c-29 -33 -29 -33 4 -4 30 28 37 36 29 36 -2 0 -16 -15
-33 -32z" />
    <path d="M1982 1756 c-2 -45 -3 -47 -19 -35 -13 10 -13 8 2 -10 20 -23 20 -23
23 3 2 14 1 40 -1 58 -3 25 -4 21 -5 -16z" />
    <path d="M3833 1730 c0 -41 2 -58 4 -37 2 20 2 54 0 75 -2 20 -4 3 -4 -38z" />
    <path d="M4453 1623 c15 -2 37 -2 50 0 12 2 0 4 -28 4 -27 0 -38 -2 -22 -4z" />
    <path d="M4302 1546 c-77 -84 -95 -188 -47 -281 13 -27 22 -52 19 -57 -3 -4 2
-5 10 -2 20 8 20 3 -8 55 -52 96 -40 198 35 282 52 60 45 61 -9 3z" />
    <path d="M2820 1370 c0 -5 6 -10 14 -10 8 0 18 5 21 10 3 6 -3 10 -14 10 -12
0 -21 -4 -21 -10z" />
    <path d="M2947 1363 c18 -2 50 -2 70 0 21 2 7 4 -32 4 -38 0 -55 -2 -38 -4z" />
    <path d="M3013 1313 c15 -2 37 -2 50 0 12 2 0 4 -28 4 -27 0 -38 -2 -22 -4z" />
  </g>
</svg>