<svg width="26" height="26" viewBox="0 0 26 26" fill="none" xmlns="http://www.w3.org/2000/svg">
<path d="M23.4667 25.8L14.5334 16.8667C13.8667 17.3778 13.1056 17.7778 12.25 18.0667C11.3945 18.3556 10.4556 18.5 9.43337 18.5C6.87781 18.5 4.72781 17.6278 2.98337 15.8833C1.23892 14.1389 0.366699 12.0111 0.366699 9.5C0.366699 6.98889 1.23892 4.86111 2.98337 3.11667C4.72781 1.37222 6.85559 0.5 9.3667 0.5C11.8778 0.5 14.0056 1.37222 15.75 3.11667C17.4945 4.86111 18.3667 6.98889 18.3667 9.5C18.3667 10.5222 18.2223 11.45 17.9334 12.2833C17.6445 13.1167 17.2223 13.9111 16.6667 14.6667L25.6667 23.6L23.4667 25.8ZM9.3667 15.4667C11.0556 15.4667 12.4723 14.8944 13.6167 13.75C14.7611 12.6056 15.3334 11.1889 15.3334 9.5C15.3334 7.83333 14.7611 6.42222 13.6167 5.26667C12.4723 4.11111 11.0667 3.53333 9.40003 3.53333C7.68892 3.53333 6.26114 4.11111 5.1167 5.26667C3.97225 6.42222 3.40003 7.83333 3.40003 9.5C3.40003 11.1889 3.97225 12.6056 5.1167 13.75C6.26114 14.8944 7.67781 15.4667 9.3667 15.4667Z" fill="#BFBFBF"/>
</svg>
