<svg width="40" height="40" viewBox="0 0 40 40" fill="none" xmlns="http://www.w3.org/2000/svg">
<path d="M5.3002 39.1C4.0002 39.1 2.90853 38.6417 2.0252 37.725C1.14186 36.8083 0.700195 35.75 0.700195 34.55V5.50001C0.700195 4.23334 1.14186 3.15001 2.0252 2.25001C2.90853 1.35001 4.0002 0.900006 5.3002 0.900006H24.1502V11H28.8002V15.65H38.9002V34.55C38.9002 35.75 38.4419 36.8083 37.5252 37.725C36.6085 38.6417 35.5502 39.1 34.3502 39.1H5.3002ZM7.9502 29.8H31.7502L24.6002 20.35L18.3002 28.65L13.6002 22.45L7.9502 29.8ZM31.5002 13V8.40001H26.8502V4.95001H31.4502V0.350006H34.9002V4.90001H39.5002V8.35001H34.9002V13H31.5002Z" fill="#E0E0E0"/>
</svg>
